<svg width="261" height="70" viewBox="0 0 261 70" fill="none" xmlns="http://www.w3.org/2000/svg">
    <path
        d="M91.3852 36.659C90.4679 36.0616 89.8492 35.539 89.5292 35.091C89.2092 34.6643 89.3372 34.2696 89.9132 33.907C90.0412 33.8216 90.2439 33.8963 90.5212 34.131C90.8199 34.3443 91.0652 34.547 91.2572 34.739C91.6839 35.123 92.2065 35.3576 92.8252 35.443C93.4652 35.5496 94.1799 35.4963 94.9692 35.283C95.8652 35.0056 96.6439 34.6216 97.3052 34.131C97.9879 33.619 98.6279 33.0003 99.2252 32.275C99.6732 31.699 99.9825 31.0803 100.153 30.419C100.324 29.7363 100.388 29.107 100.345 28.531C100.324 27.955 100.207 27.5496 99.9932 27.315C99.4599 26.5683 98.7132 26.0563 97.7532 25.779C96.8145 25.4803 95.7052 25.5016 94.4252 25.843C94.2759 25.8643 94.0519 25.907 93.7532 25.971C93.4545 26.035 93.1879 26.099 92.9532 26.163C92.7185 26.2056 92.5905 26.227 92.5692 26.227C92.4199 26.2696 92.3025 26.323 92.2172 26.387C92.1319 26.4296 92.0252 26.5896 91.8972 26.867C91.7905 27.123 91.6199 27.5923 91.3852 28.275C91.1505 28.9363 90.7985 29.9176 90.3292 31.219C89.8812 32.5203 89.5185 33.4483 89.2412 34.003C88.9852 34.5363 88.7505 34.7816 88.5372 34.739C88.3452 34.675 88.0999 34.4403 87.8012 34.035C87.6305 33.7363 87.5239 33.4483 87.4812 33.171C87.4385 32.8723 87.5239 32.531 87.7372 32.147C87.8439 31.955 87.9292 31.7843 87.9932 31.635C88.0572 31.4643 88.1425 31.1763 88.2492 30.771C88.3559 30.451 88.5585 29.8963 88.8572 29.107C89.1772 28.2963 89.5505 27.3576 89.9772 26.291C90.4039 25.203 90.8519 24.083 91.3212 22.931C91.7905 21.779 92.2385 20.691 92.6652 19.667C93.1132 18.643 93.4865 17.779 93.7852 17.075C94.0839 16.4136 94.2652 15.9336 94.3292 15.635C94.3932 15.3363 94.3719 15.1763 94.2652 15.155C94.2652 15.0483 94.2332 14.9523 94.1692 14.867C94.1052 14.7603 94.0839 14.6643 94.1052 14.579C94.1052 14.4936 94.2439 14.3763 94.5212 14.227C94.8199 14.0776 95.1399 13.939 95.4812 13.811C95.8439 13.683 96.1212 13.6403 96.3132 13.683C96.4199 13.683 96.5479 13.683 96.6972 13.683C96.8465 13.6616 96.9212 13.6083 96.9212 13.523C96.9852 13.523 97.1879 13.5016 97.5292 13.459C97.8705 13.4163 98.2439 13.4163 98.6492 13.459C100.079 13.587 101.188 14.003 101.977 14.707C102.767 15.3896 103.151 16.3283 103.129 17.523C103.108 17.8856 102.916 18.3763 102.553 18.995C102.212 19.6136 101.785 20.2323 101.273 20.851C100.783 21.4696 100.303 21.9923 99.8332 22.419C99.5559 22.6536 99.2572 22.899 98.9372 23.155C98.6385 23.3896 98.3719 23.5923 98.1372 23.763C97.9239 23.9123 97.8172 23.987 97.8172 23.987C97.8172 23.987 97.9025 24.019 98.0732 24.083C98.2439 24.147 98.4252 24.211 98.6172 24.275C99.5985 24.6376 100.409 25.0963 101.049 25.651C101.689 26.2056 102.127 26.9736 102.361 27.955C102.447 28.275 102.447 28.6696 102.361 29.139C102.297 29.6083 102.201 30.0776 102.073 30.547C101.945 30.995 101.807 31.379 101.657 31.699C101.508 31.8483 101.391 32.0083 101.305 32.179C101.22 32.3283 101.177 32.403 101.177 32.403C101.177 32.4456 101.092 32.6163 100.921 32.915C100.751 33.1923 100.548 33.5016 100.313 33.843C100.079 34.1843 99.8545 34.483 99.6412 34.739C99.4279 34.9096 99.1719 35.1123 98.8732 35.347C98.5959 35.5816 98.2759 35.8056 97.9132 36.019C97.5719 36.2323 97.1985 36.4136 96.7932 36.563C96.1959 36.819 95.5452 36.9896 94.8412 37.075C94.1585 37.1816 93.5079 37.1923 92.8892 37.107C92.2705 37.043 91.7692 36.8936 91.3852 36.659ZM92.9532 24.339C92.9532 24.339 93.1452 24.307 93.5292 24.243C93.9345 24.1576 94.3719 24.0723 94.8412 23.987C95.3105 23.8803 95.6519 23.7843 95.8652 23.699C95.9719 23.635 96.1212 23.5496 96.3132 23.443C96.5265 23.3363 96.7399 23.1763 96.9532 22.963C97.2519 22.6856 97.6252 22.291 98.0732 21.779C98.5425 21.2456 99.0012 20.691 99.4492 20.115C99.8972 19.5176 100.239 18.9843 100.473 18.515C100.964 17.747 101.231 17.1816 101.273 16.819C101.316 16.435 101.199 16.1043 100.921 15.827C100.729 15.5923 100.399 15.443 99.9292 15.379C99.4812 15.2936 99.0012 15.2723 98.4892 15.315C97.9772 15.3363 97.5399 15.4003 97.1772 15.507C96.8999 15.5923 96.6865 15.699 96.5372 15.827C96.3879 15.9336 96.3132 16.1043 96.3132 16.339C96.3132 16.531 96.2492 16.723 96.1212 16.915C96.0145 17.0856 95.9079 17.2243 95.8012 17.331C95.7799 17.4803 95.7265 17.619 95.6412 17.747C95.5559 17.8536 95.5132 17.907 95.5132 17.907C95.5132 17.9923 95.3639 18.3443 95.0652 18.963C94.7665 19.5816 94.4679 20.2963 94.1692 21.107C93.7852 22.0243 93.4865 22.771 93.2732 23.347C93.0599 23.9016 92.9532 24.2323 92.9532 24.339ZM104.874 33.683C104.789 33.5123 104.682 33.3843 104.554 33.299C104.426 33.1923 104.362 33.0963 104.362 33.011C104.362 32.9256 104.352 32.8403 104.33 32.755C104.33 32.6483 104.288 32.5523 104.202 32.467C104.096 32.339 104.106 32.051 104.234 31.603C104.362 31.1336 104.576 30.5683 104.874 29.907C105.173 29.2243 105.525 28.5096 105.93 27.763C106.101 27.5923 106.272 27.3683 106.442 27.091C106.613 26.8136 106.741 26.6323 106.826 26.547C106.826 26.4616 106.858 26.387 106.922 26.323C106.986 26.2376 107.061 26.195 107.146 26.195V26.003C107.146 25.8963 107.242 25.715 107.434 25.459C107.648 25.203 107.904 24.9256 108.202 24.627C108.501 24.307 108.81 24.0083 109.13 23.731C109.45 23.4323 109.717 23.219 109.93 23.091C110.378 22.7923 110.837 22.611 111.306 22.547C111.797 22.483 112.213 22.5896 112.554 22.867C112.618 22.931 112.725 23.0376 112.874 23.187C113.024 23.3363 113.194 23.507 113.386 23.699C113.6 23.8696 113.813 24.051 114.026 24.243L115.21 25.299L114.634 26.899C114.357 27.7523 114.282 28.499 114.41 29.139C114.56 29.779 114.773 30.3336 115.05 30.803C115.157 31.0376 115.37 31.2616 115.69 31.475C116.032 31.6883 116.352 31.8163 116.65 31.859C116.821 31.8803 116.981 31.9443 117.13 32.051C117.28 32.1576 117.354 32.3283 117.354 32.563C117.354 32.7763 117.312 32.947 117.226 33.075C117.141 33.203 116.992 33.2883 116.778 33.331C116.074 33.4163 115.413 33.2456 114.794 32.819C114.197 32.3923 113.642 31.6883 113.13 30.707C113.045 30.579 112.928 30.3443 112.778 30.003C112.65 29.6403 112.576 29.4056 112.554 29.299C112.469 29.4056 112.309 29.6083 112.074 29.907C111.84 30.1843 111.658 30.387 111.53 30.515C110.016 32.051 108.704 33.0856 107.594 33.619C106.506 34.131 105.6 34.1523 104.874 33.683ZM106.026 31.891C106.026 32.0403 106.25 32.0403 106.698 31.891C107.168 31.7203 107.669 31.4216 108.202 30.995C108.928 30.3763 109.653 29.6936 110.378 28.947C111.125 28.2003 111.722 27.507 112.17 26.867L112.874 25.715C112.661 25.2243 112.426 24.8936 112.17 24.723C111.936 24.531 111.733 24.435 111.562 24.435C111.285 24.435 110.869 24.691 110.314 25.203C109.781 25.715 109.205 26.3976 108.586 27.251C107.968 28.1043 107.381 29.043 106.826 30.067C106.613 30.4936 106.421 30.9096 106.25 31.315C106.101 31.699 106.026 31.891 106.026 31.891ZM122.107 34.483C121.488 34.5896 120.923 34.5576 120.411 34.387C119.899 34.195 119.483 33.8856 119.163 33.459C118.864 33.011 118.715 32.4456 118.715 31.763C118.651 31.123 118.726 30.387 118.939 29.555C119.152 28.7016 119.462 27.8483 119.867 26.995C120.294 26.1416 120.752 25.4056 121.243 24.787C121.67 24.275 122.096 23.8056 122.523 23.379C122.95 22.9523 123.334 22.6643 123.675 22.515C123.974 22.387 124.251 22.3123 124.507 22.291C124.784 22.2483 125.008 22.227 125.179 22.227C125.52 22.3123 125.883 22.4723 126.267 22.707C126.672 22.9203 126.875 23.155 126.875 23.411C126.875 23.411 126.896 23.443 126.939 23.507C127.003 23.5496 127.035 23.571 127.035 23.571C127.163 23.571 127.27 23.7096 127.355 23.987C127.462 24.2643 127.526 24.5843 127.547 24.947C127.568 25.2883 127.515 25.5763 127.387 25.811C127.302 26.2163 127.152 26.5683 126.939 26.867C126.726 27.1656 126.534 27.315 126.363 27.315C126.278 27.315 126.192 27.3256 126.107 27.347C126.043 27.347 126.011 27.4003 126.011 27.507C126.011 27.6136 125.947 27.6563 125.819 27.635C125.712 27.6136 125.595 27.5496 125.467 27.443C125.339 27.315 125.243 27.1656 125.179 26.995C125.179 26.8883 125.222 26.707 125.307 26.451C125.392 26.195 125.478 25.8643 125.563 25.459C125.691 24.8616 125.68 24.4776 125.531 24.307C125.382 24.115 125.094 24.1043 124.667 24.275C124.134 24.5736 123.622 24.9896 123.131 25.523C122.662 26.0563 122.224 26.7496 121.819 27.603C121.414 28.435 121.051 29.4803 120.731 30.739C120.603 31.2296 120.55 31.6563 120.571 32.019C120.614 32.3816 120.667 32.5736 120.731 32.595C121.03 32.6803 121.435 32.7016 121.947 32.659C122.459 32.595 122.832 32.499 123.067 32.371C123.408 32.2003 123.792 31.9763 124.219 31.699C124.646 31.4003 125.019 31.1336 125.339 30.899C125.446 30.835 125.574 30.7283 125.723 30.579C125.872 30.4296 126.032 30.3123 126.203 30.227C126.374 29.971 126.523 29.8216 126.651 29.779C126.779 29.7363 126.971 29.715 127.227 29.715C127.398 29.7576 127.558 29.8216 127.707 29.907C127.856 29.9923 127.952 30.0776 127.995 30.163C128.059 30.2483 128.027 30.323 127.899 30.387C127.814 30.387 127.76 30.419 127.739 30.483C127.739 30.5256 127.739 30.547 127.739 30.547C127.782 30.6323 127.686 30.8136 127.451 31.091C127.238 31.347 126.96 31.635 126.619 31.955C126.278 32.275 125.947 32.5523 125.627 32.787C125.328 33.0003 125.115 33.107 124.987 33.107C124.774 33.107 124.667 33.171 124.667 33.299C124.667 33.3416 124.507 33.4483 124.187 33.619C123.888 33.7896 123.536 33.9603 123.131 34.131C122.747 34.3016 122.406 34.419 122.107 34.483ZM130.218 34.131C130.005 33.9816 129.845 33.843 129.738 33.715C129.631 33.587 129.589 33.4056 129.61 33.171C129.653 32.851 129.717 32.5203 129.802 32.179C129.887 31.8163 129.994 31.4643 130.122 31.123C130.186 30.739 130.261 30.355 130.346 29.971C130.453 29.587 130.623 29.2243 130.858 28.883C131.135 28.0936 131.423 27.315 131.722 26.547C132.021 25.7576 132.277 24.9363 132.49 24.083C132.81 23.315 133.098 22.6323 133.354 22.035C133.631 21.4376 133.962 20.6696 134.346 19.731C134.559 19.2403 134.741 18.6963 134.89 18.099C135.061 17.4803 135.317 16.9363 135.658 16.467C135.807 16.275 135.914 16.115 135.978 15.987C136.063 15.8376 136.149 15.699 136.234 15.571C136.277 15.443 136.415 15.4003 136.65 15.443C136.906 15.4856 137.087 15.5816 137.194 15.731C137.301 15.7096 137.429 15.8483 137.578 16.147C137.727 16.4456 137.781 16.6803 137.738 16.851C137.738 17.0856 137.653 17.3416 137.482 17.619C137.397 17.7043 137.311 17.8323 137.226 18.003C137.141 18.1523 137.013 18.355 136.842 18.611C136.757 18.8883 136.671 19.1656 136.586 19.443C136.501 19.7203 136.405 19.9763 136.298 20.211C136.191 20.4456 136.074 20.6803 135.946 20.915C135.818 21.1496 135.733 21.3416 135.69 21.491C135.498 21.9816 135.285 22.4616 135.05 22.931C134.837 23.379 134.645 23.859 134.474 24.371C134.303 24.8616 134.122 25.3843 133.93 25.939C133.759 26.4723 133.525 26.9843 133.226 27.475C133.077 27.6883 132.959 27.9763 132.874 28.339C132.789 28.7016 132.703 29.0536 132.618 29.395C132.469 29.779 132.33 30.131 132.202 30.451C132.095 30.771 132.042 30.9736 132.042 31.059C131.893 31.5283 131.775 31.9976 131.69 32.467C131.605 32.915 131.466 33.3096 131.274 33.651C131.253 33.971 131.157 34.1843 130.986 34.291C130.837 34.3976 130.581 34.3443 130.218 34.131ZM137.866 34.643C137.525 34.6003 137.269 34.5363 137.098 34.451C136.927 34.3443 136.607 34.1203 136.138 33.779C135.882 33.523 135.53 33.1283 135.082 32.595C134.634 32.0616 134.186 31.4963 133.738 30.899C133.29 30.2803 132.917 29.7576 132.618 29.331L133.93 27.571C134.207 27.9123 134.431 28.2323 134.602 28.531C134.773 28.8296 134.911 29.0323 135.018 29.139C135.509 29.8643 135.893 30.451 136.17 30.899C136.469 31.347 136.735 31.7096 136.97 31.987C137.205 32.2643 137.45 32.5096 137.706 32.723C137.983 32.9363 138.325 33.1603 138.73 33.395C138.794 33.4376 138.858 33.5016 138.922 33.587C138.986 33.6723 139.007 33.8003 138.986 33.971C138.901 34.2056 138.805 34.355 138.698 34.419C138.613 34.4616 138.335 34.5363 137.866 34.643ZM132.522 28.979C132.394 28.6163 132.437 28.2536 132.65 27.891C132.885 27.507 133.141 27.2403 133.418 27.091C133.503 26.9416 133.589 26.8456 133.674 26.803C133.781 26.739 133.845 26.6643 133.866 26.579C133.909 26.4936 134.015 26.3763 134.186 26.227C134.378 26.0776 134.549 25.939 134.698 25.811C135.039 25.5976 135.423 25.3416 135.85 25.043C136.298 24.723 136.725 24.403 137.13 24.083C137.535 23.763 137.877 23.4856 138.154 23.251C138.453 23.0163 138.634 22.867 138.698 22.803C138.762 22.7176 138.847 22.6643 138.954 22.643C139.082 22.6003 139.242 22.6216 139.434 22.707C139.69 22.771 139.861 22.8776 139.946 23.027C140.031 23.155 140.074 23.411 140.074 23.795C140.138 24.0296 140.042 24.2856 139.786 24.563C139.551 24.819 139.189 25.107 138.698 25.427C138.527 25.5336 138.293 25.6936 137.994 25.907C137.717 26.1203 137.471 26.323 137.258 26.515C137.109 26.6003 136.885 26.7496 136.586 26.963C136.309 27.155 136.063 27.347 135.85 27.539C135.679 27.6456 135.455 27.8376 135.178 28.115C134.901 28.371 134.623 28.563 134.346 28.691C133.663 29.331 133.215 29.6723 133.002 29.715C132.789 29.7576 132.629 29.5123 132.522 28.979ZM144.753 34.931C143.815 34.931 143.047 34.579 142.449 33.875C141.852 33.1496 141.564 32.2536 141.585 31.187C141.628 30.419 141.777 29.5976 142.033 28.723C142.311 27.827 142.673 26.9736 143.121 26.163C143.569 25.331 144.06 24.6056 144.593 23.987C145.127 23.3683 145.681 22.931 146.257 22.675C146.471 22.5683 146.695 22.483 146.929 22.419C147.185 22.355 147.441 22.323 147.697 22.323C147.932 22.323 148.177 22.3656 148.433 22.451C148.689 22.515 148.903 22.5896 149.073 22.675C149.436 22.8243 149.713 23.0056 149.905 23.219C150.097 23.4323 150.268 23.763 150.417 24.211C150.481 24.6163 150.513 24.9043 150.513 25.075C150.513 25.2456 150.46 25.5016 150.353 25.843C150.097 26.611 149.767 27.2723 149.361 27.827C148.956 28.3816 148.412 28.851 147.729 29.235C147.559 29.3416 147.356 29.427 147.121 29.491C146.908 29.5336 146.684 29.555 146.449 29.555C146.023 29.555 145.607 29.4803 145.201 29.331C144.817 29.1603 144.508 28.915 144.273 28.595L144.049 28.339L143.953 28.595C143.74 29.171 143.569 29.7043 143.441 30.195C143.335 30.6856 143.281 31.1336 143.281 31.539C143.281 31.795 143.303 32.0403 143.345 32.275C143.409 32.5096 143.495 32.7123 143.601 32.883C143.687 33.011 143.825 33.107 144.017 33.171C144.231 33.2136 144.455 33.235 144.689 33.235C144.839 33.235 144.988 33.235 145.137 33.235C145.308 33.2136 145.468 33.171 145.617 33.107C145.98 32.979 146.268 32.8403 146.481 32.691C146.716 32.5416 146.951 32.3816 147.185 32.211L147.313 32.147H147.281C147.537 32.019 147.761 31.891 147.953 31.763C148.167 31.635 148.273 31.571 148.273 31.571C148.359 31.571 148.444 31.5176 148.529 31.411C148.7 31.3256 148.913 31.3576 149.169 31.507C149.447 31.6563 149.585 31.8483 149.585 32.083C149.564 32.1896 149.468 32.3603 149.297 32.595C149.127 32.8083 148.935 33.011 148.721 33.203C148.529 33.395 148.369 33.5016 148.241 33.523C148.22 33.5443 148.145 33.587 148.017 33.651C147.889 33.6936 147.804 33.7363 147.761 33.779H147.793C147.601 34.035 147.409 34.163 147.217 34.163H146.961C146.876 34.3123 146.599 34.483 146.129 34.675C145.66 34.8456 145.201 34.931 144.753 34.931ZM146.193 27.891C146.577 27.891 146.908 27.7843 147.185 27.571C147.484 27.3363 147.74 27.0803 147.953 26.803C148.38 26.227 148.625 25.6723 148.689 25.139C148.775 24.5843 148.711 24.2003 148.497 23.987C148.369 23.923 148.252 23.891 148.145 23.891C148.06 23.8696 147.879 23.9016 147.601 23.987C147.409 24.0296 147.143 24.1896 146.801 24.467C146.46 24.7443 146.119 25.0536 145.777 25.395C145.457 25.7363 145.212 26.0243 145.041 26.259L144.625 26.931C144.796 26.867 144.956 26.835 145.105 26.835C145.276 26.8136 145.372 26.8243 145.393 26.867C145.393 27.059 145.425 27.2403 145.489 27.411C145.575 27.5603 145.671 27.6776 145.777 27.763C145.905 27.8483 146.044 27.891 146.193 27.891ZM153.624 33.427C153.538 33.427 153.41 33.3736 153.24 33.267C153.09 33.139 152.973 33.0323 152.888 32.947C152.738 32.7763 152.642 32.6056 152.6 32.435C152.578 32.2643 152.568 31.8803 152.568 31.283C152.568 30.6003 152.706 29.8643 152.984 29.075C153.261 28.2643 153.73 27.1336 154.392 25.683L155.448 23.443C155.533 23.2723 155.608 23.1443 155.672 23.059C155.757 22.9736 155.832 22.8883 155.896 22.803C155.981 22.803 156.056 22.803 156.12 22.803C156.184 22.803 156.216 22.803 156.216 22.803C156.386 22.803 156.557 22.9096 156.728 23.123C156.898 23.315 157.026 23.5283 157.112 23.763C157.112 24.0403 157.069 24.3283 156.984 24.627C156.92 24.9256 156.664 25.3736 156.216 25.971C156.066 26.2056 155.864 26.6003 155.608 27.155C155.373 27.7096 155.213 28.1896 155.128 28.595C155.106 28.6163 155.064 28.7123 155 28.883C154.936 29.0323 154.861 29.203 154.776 29.395C154.712 29.587 154.637 29.7683 154.552 29.939L154.392 30.643L156.536 28.435C157.538 27.4323 158.349 26.7176 158.968 26.291C159.586 25.8643 160.077 25.683 160.44 25.747C160.802 25.811 161.112 26.099 161.368 26.611C161.517 26.8456 161.624 27.059 161.688 27.251C161.773 27.4216 161.826 27.6563 161.848 27.955C161.869 28.2536 161.848 28.7016 161.784 29.299V31.283C162.104 31.1976 162.36 31.123 162.552 31.059C162.744 30.9736 162.946 30.8883 163.16 30.803C163.352 30.7176 163.576 30.643 163.832 30.579C164.088 30.4936 164.408 30.4403 164.792 30.419C164.77 30.6963 164.674 30.995 164.504 31.315C164.333 31.6136 164.12 31.9016 163.864 32.179C163.608 32.4563 163.32 32.6803 163 32.851C162.701 33.0216 162.402 33.107 162.104 33.107C161.826 33.107 161.517 32.9683 161.176 32.691C160.834 32.4136 160.589 32.1043 160.44 31.763C160.354 31.5283 160.301 31.2723 160.28 30.995C160.28 30.7176 160.28 30.2056 160.28 29.459V28.275C160.28 27.9336 160.173 27.8376 159.96 27.987C159.768 28.115 159.608 28.2323 159.48 28.339C159.16 28.6163 158.818 28.9363 158.456 29.299C158.114 29.6616 157.762 30.035 157.4 30.419C156.418 31.443 155.597 32.2003 154.936 32.691C154.296 33.1816 153.858 33.427 153.624 33.427ZM174.878 35.443C174.601 35.507 174.366 35.4643 174.174 35.315C174.003 35.187 173.875 34.995 173.79 34.739C173.619 34.2483 173.491 33.715 173.406 33.139C173.342 32.5416 173.331 32.019 173.374 31.571L173.438 30.899L172.19 31.891C171.465 32.531 170.761 32.9896 170.078 33.267C169.417 33.5443 168.83 33.683 168.318 33.683C168.083 33.6403 167.849 33.555 167.614 33.427C167.379 33.299 167.166 33.139 166.974 32.947C166.803 32.755 166.665 32.5523 166.558 32.339C166.43 32.0403 166.387 31.635 166.43 31.123C166.494 30.611 166.622 30.0563 166.814 29.459C167.027 28.8403 167.283 28.243 167.582 27.667C167.902 27.0696 168.265 26.547 168.67 26.099C169.374 25.0323 170.131 24.3816 170.942 24.147C171.753 23.9123 172.553 24.0296 173.342 24.499C173.897 24.7336 174.238 24.8403 174.366 24.819C174.515 24.7976 174.643 24.5523 174.75 24.083C174.835 23.7416 174.921 23.4003 175.006 23.059C175.091 22.6963 175.23 22.2163 175.422 21.619C175.955 19.9976 176.414 18.7283 176.798 17.811C177.203 16.8936 177.566 16.0936 177.886 15.411C178.121 14.9203 178.313 14.6216 178.462 14.515C178.633 14.387 178.803 14.3336 178.974 14.355C179.209 14.355 179.422 14.4403 179.614 14.611C179.806 14.7816 179.955 15.0163 180.062 15.315C180.147 15.507 180.179 15.6776 180.158 15.827C180.158 15.955 180.094 16.1363 179.966 16.371C179.689 16.883 179.358 17.5656 178.974 18.419C178.611 19.251 178.238 20.1683 177.854 21.171C177.491 22.1736 177.15 23.1656 176.83 24.147C176.51 25.1283 176.243 25.9923 176.03 26.739C175.902 27.2083 175.785 27.8056 175.678 28.531C175.593 29.2563 175.518 30.003 175.454 30.771C175.39 31.5176 175.347 32.1896 175.326 32.787C175.326 33.363 175.347 33.7363 175.39 33.907C175.518 34.3336 175.571 34.6536 175.55 34.867C175.55 35.0803 175.497 35.219 175.39 35.283C175.283 35.3683 175.113 35.4216 174.878 35.443ZM169.47 31.891C169.769 31.827 170.057 31.7096 170.334 31.539C170.633 31.3683 170.942 31.1656 171.262 30.931C171.902 30.4403 172.457 29.9923 172.926 29.587C173.395 29.1816 173.705 28.563 173.854 27.731C173.897 27.3256 173.854 27.0056 173.726 26.771C173.619 26.515 173.438 26.2803 173.182 26.067C172.926 25.8963 172.574 25.8323 172.126 25.875C171.699 25.8963 171.251 26.1203 170.782 26.547C170.27 27.0163 169.769 27.6456 169.278 28.435C168.809 29.2243 168.457 30.195 168.222 31.347C168.179 31.5603 168.243 31.731 168.414 31.859C168.585 31.987 168.937 31.9976 169.47 31.891ZM191.734 36.435C191.35 36.3283 191.041 36.2323 190.806 36.147C190.572 36.083 190.454 36.051 190.454 36.051C190.497 35.9443 190.476 35.8483 190.39 35.763C190.326 35.6776 190.177 35.6243 189.942 35.603C189.622 35.411 189.324 35.1656 189.046 34.867C188.79 34.5896 188.577 34.3123 188.406 34.035C188.236 33.7576 188.108 33.523 188.022 33.331C187.873 33.011 187.798 32.819 187.798 32.755C187.82 32.6696 187.948 32.5736 188.182 32.467C188.417 32.2963 188.588 32.243 188.694 32.307C188.822 32.371 188.972 32.5843 189.142 32.947C189.42 33.4376 189.889 33.811 190.55 34.067C191.233 34.323 191.99 34.4403 192.822 34.419C193.676 34.3763 194.486 34.1843 195.254 33.843C196.044 33.523 196.534 33.1923 196.726 32.851C196.94 32.4883 196.865 32.0296 196.502 31.475C196.438 31.3043 196.364 31.1656 196.278 31.059C196.193 30.9523 196.054 30.8136 195.862 30.643C195.692 30.4723 195.404 30.195 194.998 29.811C194.678 29.6616 194.38 29.523 194.102 29.395C193.846 29.267 193.569 29.1283 193.27 28.979C192.929 28.8083 192.513 28.563 192.022 28.243C191.553 27.9016 191.105 27.5283 190.678 27.123C190.252 26.7176 189.942 26.3443 189.75 26.003C189.409 25.683 189.153 25.2456 188.982 24.691C188.812 24.115 188.748 23.507 188.79 22.867C188.833 22.227 188.993 21.651 189.27 21.139C189.398 20.8403 189.612 20.4776 189.91 20.051C190.23 19.603 190.582 19.155 190.966 18.707C191.35 18.259 191.724 17.8536 192.086 17.491C192.449 17.1283 192.748 16.8723 192.982 16.723C193.153 16.5523 193.334 16.3816 193.526 16.211C193.718 16.019 193.814 15.923 193.814 15.923C193.836 15.8163 193.868 15.763 193.91 15.763C193.974 15.763 194.006 15.763 194.006 15.763C194.113 15.699 194.348 15.5923 194.71 15.443C195.073 15.2936 195.468 15.0163 195.894 14.611C197.324 13.9283 198.486 13.427 199.382 13.107C200.278 12.787 201.014 12.627 201.59 12.627C202.124 12.6483 202.604 12.7763 203.03 13.011C203.478 13.2243 203.841 13.5123 204.118 13.875C204.417 14.2376 204.598 14.675 204.662 15.187C204.812 15.699 204.769 16.2963 204.534 16.979C204.3 17.6403 203.948 18.2696 203.478 18.867C203.03 19.443 202.54 19.8803 202.006 20.179C201.409 20.435 201.004 20.5523 200.79 20.531C200.598 20.4883 200.513 20.2643 200.534 19.859C200.534 19.6883 200.588 19.4856 200.694 19.251C200.822 19.0163 201.153 18.6003 201.686 18.003C202.369 17.0003 202.785 16.2003 202.934 15.603C203.084 15.0056 202.945 14.675 202.518 14.611C202.39 14.5683 202.156 14.5683 201.814 14.611C201.494 14.6536 201.132 14.7176 200.726 14.803C200.342 14.867 200.012 14.9416 199.734 15.027C199.457 15.091 199.318 15.1443 199.318 15.187C199.318 15.187 199.318 15.219 199.318 15.283C199.318 15.347 199.276 15.3683 199.19 15.347C199.148 15.347 198.966 15.4323 198.646 15.603C198.326 15.7736 197.942 15.9976 197.494 16.275C197.046 16.5523 196.598 16.8296 196.15 17.107C195.702 17.3843 195.318 17.6296 194.998 17.843C194.7 18.035 194.54 18.1523 194.518 18.195C194.476 18.4296 194.23 18.643 193.782 18.835C193.356 19.091 192.961 19.4643 192.598 19.955C192.257 20.4456 191.873 21.0536 191.446 21.779C191.084 22.2696 190.828 22.803 190.678 23.379C190.529 23.9336 190.529 24.3816 190.678 24.723C190.785 25.0643 191.116 25.5016 191.67 26.035C192.225 26.5683 192.918 27.0803 193.75 27.571C194.476 27.9763 195.126 28.3816 195.702 28.787C196.278 29.171 196.748 29.5443 197.11 29.907C197.494 30.2696 197.75 30.5896 197.878 30.867C198.134 31.2296 198.316 31.603 198.422 31.987C198.55 32.3496 198.614 32.7016 198.614 33.043C198.636 33.3843 198.604 33.6936 198.518 33.971C198.369 34.3123 198.102 34.6643 197.718 35.027C197.356 35.3896 197.046 35.5603 196.79 35.539C196.556 35.603 196.374 35.6776 196.246 35.763C196.14 35.8483 196.012 35.923 195.862 35.987C195.713 36.0723 195.393 36.1576 194.902 36.243C194.433 36.3283 193.91 36.3816 193.334 36.403C192.758 36.4456 192.225 36.4563 191.734 36.435ZM206.369 34.771C206.07 34.6856 205.825 34.5896 205.633 34.483C205.441 34.355 205.185 34.1523 204.865 33.875C204.609 33.5336 204.406 33.2136 204.257 32.915C204.129 32.6163 204.044 32.275 204.001 31.891C203.958 31.4856 203.937 30.9736 203.937 30.355C203.937 30.099 203.98 29.715 204.065 29.203C204.172 28.691 204.289 28.1576 204.417 27.603C204.566 27.027 204.694 26.515 204.801 26.067C204.929 25.619 205.004 25.331 205.025 25.203C205.089 24.9256 204.982 24.7656 204.705 24.723C204.428 24.6803 204.118 24.6696 203.777 24.691C203.457 24.691 203.244 24.659 203.137 24.595C203.052 24.5736 203.009 24.5416 203.009 24.499C203.009 24.435 203.009 24.403 203.009 24.403C203.009 24.3176 202.998 24.2643 202.977 24.243C202.977 24.2003 202.945 24.1256 202.881 24.019C202.838 23.9336 202.86 23.8163 202.945 23.667C203.052 23.4963 203.222 23.3896 203.457 23.347C203.649 23.3043 203.905 23.2723 204.225 23.251C204.566 23.2083 204.908 23.1336 205.249 23.027C205.59 22.899 205.868 22.707 206.081 22.451C206.273 21.9816 206.497 21.459 206.753 20.883C207.009 20.307 207.254 19.795 207.489 19.347C207.745 18.8776 207.916 18.5896 208.001 18.483C208.364 18.291 208.63 18.2163 208.801 18.259C208.972 18.2803 209.164 18.4616 209.377 18.803C209.484 18.9523 209.558 19.0696 209.601 19.155C209.665 19.2403 209.676 19.3683 209.633 19.539C209.59 19.7096 209.473 19.9763 209.281 20.339C209.11 20.7016 208.844 21.2243 208.481 21.907C208.374 22.1203 208.278 22.3123 208.193 22.483C208.108 22.6323 208.065 22.707 208.065 22.707C208.15 22.7283 208.278 22.739 208.449 22.739C208.62 22.739 208.833 22.7283 209.089 22.707C209.324 22.6643 209.622 22.6323 209.985 22.611C210.348 22.5683 210.636 22.5683 210.849 22.611C211.34 22.611 211.702 22.707 211.937 22.899C212.172 23.0696 212.3 23.3683 212.321 23.795C212.364 24.0296 212.31 24.1683 212.161 24.211C212.033 24.2536 211.681 24.275 211.105 24.275C210.913 24.275 210.614 24.2856 210.209 24.307C209.804 24.3283 209.377 24.3496 208.929 24.371C208.502 24.3923 208.129 24.4243 207.809 24.467C207.51 24.4883 207.361 24.5203 207.361 24.563C207.297 24.6056 207.19 24.8083 207.041 25.171C206.913 25.5336 206.774 25.9496 206.625 26.419C206.497 26.867 206.38 27.2723 206.273 27.635C206.124 28.3603 206.006 29.0856 205.921 29.811C205.857 30.5363 205.846 31.1656 205.889 31.699C205.932 32.2323 206.049 32.6056 206.241 32.819C206.433 33.011 206.806 33.0536 207.361 32.947C207.916 32.819 208.364 32.6163 208.705 32.339C209.089 32.019 209.398 31.859 209.633 31.859C209.889 31.859 210.028 31.9763 210.049 32.211C210.092 32.4243 209.974 32.7336 209.697 33.139C209.441 33.523 209.121 33.8643 208.737 34.163C208.353 34.4403 207.948 34.643 207.521 34.771C207.116 34.8776 206.732 34.8776 206.369 34.771ZM214.563 34.099C214.456 34.3123 214.296 34.3763 214.083 34.291C213.891 34.2056 213.731 34.1203 213.603 34.035C213.453 34.035 213.325 33.9923 213.219 33.907C213.112 33.8216 213.037 33.6936 212.995 33.523C212.952 33.395 212.941 33.2456 212.963 33.075C212.984 32.883 213.027 32.6696 213.091 32.435C213.176 32.179 213.261 31.9016 213.347 31.603C213.517 30.899 213.635 30.387 213.699 30.067C213.763 29.747 213.827 29.4696 213.891 29.235C213.955 29.0003 214.04 28.659 214.147 28.211C214.317 27.7843 214.456 27.3683 214.563 26.963C214.669 26.5576 214.829 26.1523 215.043 25.747C215.192 25.1923 215.373 24.6696 215.587 24.179C215.821 23.667 216.045 23.2403 216.259 22.899C216.301 22.835 216.376 22.7496 216.483 22.643C216.611 22.5363 216.717 22.483 216.803 22.483C216.973 22.3123 217.123 22.2483 217.251 22.291C217.4 22.3123 217.581 22.4083 217.795 22.579C218.051 22.8563 218.147 23.1763 218.083 23.539C218.04 23.9016 217.784 24.435 217.315 25.139C217.059 25.8003 216.824 26.3763 216.611 26.867C216.397 27.3363 216.248 27.7843 216.163 28.211C216.397 27.8696 216.653 27.5603 216.931 27.283C217.229 26.9843 217.475 26.739 217.667 26.547C218.136 26.0776 218.52 25.7363 218.819 25.523C219.139 25.3096 219.512 25.0643 219.939 24.787C220.195 24.6163 220.44 24.467 220.675 24.339C220.909 24.1896 221.165 24.083 221.443 24.019C221.741 23.955 222.061 23.955 222.403 24.019C222.616 23.9976 222.787 24.0616 222.915 24.211C223.064 24.3603 223.181 24.563 223.267 24.819C223.352 25.075 223.405 25.3736 223.427 25.715C222.936 25.6083 222.499 25.6296 222.115 25.779C221.731 25.907 221.4 26.067 221.123 26.259C220.867 26.451 220.664 26.6003 220.515 26.707C220.195 26.9203 219.789 27.2083 219.299 27.571C218.808 27.9123 218.317 28.3283 217.827 28.819C217.443 29.2456 217.112 29.6083 216.835 29.907C216.579 30.2056 216.365 30.4723 216.195 30.707C216.045 30.9416 215.928 31.187 215.843 31.443C215.629 31.9336 215.405 32.467 215.171 33.043C214.936 33.619 214.733 33.971 214.563 34.099ZM226.702 34.355C226.425 34.355 226.201 34.3016 226.03 34.195C225.881 34.0883 225.689 33.939 225.454 33.747C225.049 33.3203 224.761 32.915 224.59 32.531C224.419 32.1256 224.366 31.7416 224.43 31.379C224.494 31.2083 224.515 31.0483 224.494 30.899C224.494 30.7283 224.494 30.643 224.494 30.643C224.387 30.5363 224.355 30.4723 224.398 30.451C224.441 30.4083 224.483 30.3443 224.526 30.259C224.654 30.259 224.697 30.1416 224.654 29.907C224.611 29.7363 224.697 29.363 224.91 28.787C225.123 28.211 225.39 27.667 225.71 27.155C225.838 26.9416 226.03 26.6643 226.286 26.323C226.542 25.9603 226.819 25.6083 227.118 25.267C227.438 24.9043 227.726 24.6163 227.982 24.403C228.515 23.955 228.985 23.6243 229.39 23.411C229.795 23.1976 230.233 23.0376 230.702 22.931C231.171 22.8243 231.491 22.771 231.662 22.771C231.854 22.771 232.11 22.9416 232.43 23.283C232.921 23.4963 233.273 23.7523 233.486 24.051C233.721 24.3496 233.87 24.787 233.934 25.363C233.998 26.003 233.945 26.739 233.774 27.571C233.625 28.3816 233.123 29.395 232.27 30.611C231.737 31.379 231.246 31.955 230.798 32.339C230.35 32.7016 229.817 33.0643 229.198 33.427C228.75 33.7256 228.345 33.9496 227.982 34.099C227.619 34.227 227.193 34.3123 226.702 34.355ZM229.774 30.963C230.286 30.387 230.691 29.843 230.99 29.331C231.31 28.819 231.609 28.1683 231.886 27.379C231.971 27.1443 232.025 26.8563 232.046 26.515C232.067 26.1523 232.057 25.8216 232.014 25.523C231.993 25.203 231.918 25.0216 231.79 24.979C231.534 24.8296 231.225 24.787 230.862 24.851C230.499 24.8936 230.105 25.0963 229.678 25.459C229.017 26.0136 228.441 26.707 227.95 27.539C227.459 28.3496 226.979 29.2776 226.51 30.323C226.19 31.091 226.115 31.7096 226.286 32.179C226.478 32.627 226.873 32.787 227.47 32.659C228.089 32.5096 228.857 31.9443 229.774 30.963ZM247.103 33.363C246.677 33.363 246.325 33.2776 246.047 33.107C245.77 32.915 245.535 32.6056 245.343 32.179C245.258 31.8803 245.183 31.5496 245.119 31.187C245.077 30.803 245.055 30.451 245.055 30.131C245.055 29.7896 245.087 29.5656 245.151 29.459C245.237 29.3736 245.269 29.2243 245.247 29.011C245.247 28.7763 245.247 28.531 245.247 28.275C245.226 27.8483 245.119 27.6136 244.927 27.571C244.757 27.507 244.501 27.571 244.159 27.763C243.775 27.9976 243.274 28.3176 242.655 28.723C242.037 29.107 241.386 29.5336 240.703 30.003C240.042 30.4723 239.413 30.963 238.815 31.475C238.346 31.987 238.058 32.3816 237.951 32.659C237.866 32.915 237.738 33.043 237.567 33.043C237.397 33.1283 237.247 33.139 237.119 33.075C237.013 32.9896 236.853 32.8616 236.639 32.691C236.49 32.5203 236.341 32.3603 236.191 32.211C236.042 32.0403 235.946 31.9123 235.903 31.827C235.903 31.7203 235.935 31.4963 235.999 31.155C236.063 30.8136 236.138 30.4723 236.223 30.131C236.33 29.7896 236.405 29.5656 236.447 29.459C236.554 29.459 236.639 29.3523 236.703 29.139C236.789 28.9256 236.917 28.691 237.087 28.435C237.13 28.179 237.237 27.8376 237.407 27.411C237.599 26.963 237.77 26.5683 237.919 26.227C238.218 25.715 238.421 25.2883 238.527 24.947C238.655 24.6056 238.741 24.179 238.783 23.667C238.762 23.5816 238.783 23.507 238.847 23.443C238.911 23.3576 238.986 23.315 239.071 23.315C239.242 23.1443 239.445 23.1016 239.679 23.187C239.914 23.251 240.127 23.411 240.319 23.667C240.703 24.179 240.853 24.7123 240.767 25.267C240.703 25.8003 240.362 26.5683 239.743 27.571C239.594 27.9123 239.477 28.179 239.391 28.371C239.327 28.5416 239.295 28.6803 239.295 28.787C239.295 28.787 239.402 28.7123 239.615 28.563C239.85 28.4136 240.106 28.243 240.383 28.051C240.682 27.8376 240.917 27.6776 241.087 27.571C241.194 27.4643 241.439 27.2723 241.823 26.995C242.207 26.7176 242.613 26.451 243.039 26.195C243.487 25.9176 243.818 25.7576 244.031 25.715C244.202 25.6296 244.383 25.555 244.575 25.491C244.767 25.4056 244.906 25.363 244.991 25.363C245.162 25.363 245.375 25.459 245.631 25.651C245.909 25.8216 246.165 26.035 246.399 26.291C246.634 26.5256 246.773 26.7283 246.815 26.899C246.815 26.9843 246.815 27.0696 246.815 27.155C246.837 27.2403 246.858 27.3256 246.879 27.411C246.965 27.6883 247.007 28.0616 247.007 28.531C247.029 29.0003 247.018 29.427 246.975 29.811C246.933 30.195 246.858 30.419 246.751 30.483C246.751 30.483 246.751 30.515 246.751 30.579C246.773 30.6216 246.826 30.643 246.911 30.643C246.911 30.7283 246.911 30.7816 246.911 30.803C246.805 30.803 246.762 30.899 246.783 31.091C246.805 31.2616 246.869 31.4536 246.975 31.667C247.103 31.8803 247.231 32.051 247.359 32.179C247.615 32.435 247.722 32.6803 247.679 32.915C247.637 33.1283 247.445 33.2776 247.103 33.363ZM252.933 40.851C252.699 40.8723 252.336 40.819 251.845 40.691C251.376 40.563 251.024 40.4456 250.789 40.339C250.512 40.1256 250.235 39.8376 249.957 39.475C249.68 39.1123 249.456 38.739 249.285 38.355C249.136 37.9923 249.072 37.715 249.093 37.523C249.115 37.3523 249.275 37.3203 249.573 37.427C249.893 37.5336 250.107 37.6723 250.213 37.843C250.405 38.0776 250.629 38.3016 250.885 38.515C251.141 38.7283 251.397 38.8883 251.653 38.995C251.909 39.123 252.112 39.1763 252.261 39.155C252.795 39.0696 253.232 38.803 253.573 38.355C253.936 37.9283 254.256 37.3843 254.533 36.723C254.704 36.2536 254.832 35.859 254.917 35.539C255.024 35.2403 255.12 34.899 255.205 34.515C255.312 34.131 255.44 33.5976 255.589 32.915C255.781 32.147 255.909 31.603 255.973 31.283C256.059 30.9416 256.101 30.7176 256.101 30.611C256.101 30.5043 256.069 30.4296 256.005 30.387C256.005 30.387 255.867 30.4616 255.589 30.611C255.312 30.7603 255.003 30.9203 254.661 31.091C254.341 31.2616 254.096 31.4003 253.925 31.507C253.328 31.699 252.741 31.8163 252.165 31.859C251.589 31.9016 251.141 31.8696 250.821 31.763C250.672 31.699 250.512 31.5496 250.341 31.315C250.192 31.0803 250.064 30.8243 249.957 30.547C249.872 30.2483 249.84 29.9923 249.861 29.779C249.883 29.6083 249.979 29.3523 250.149 29.011C250.32 28.6696 250.512 28.307 250.725 27.923C250.96 27.539 251.163 27.219 251.333 26.963C251.525 26.6856 251.643 26.547 251.685 26.547C251.771 26.547 251.813 26.515 251.813 26.451C251.835 26.387 251.845 26.3123 251.845 26.227C251.867 26.1416 252.027 25.9603 252.325 25.683C252.645 25.3843 253.072 25.0216 253.605 24.595C254.352 23.9123 255.024 23.3896 255.621 23.027C256.219 22.6643 256.773 22.4616 257.285 22.419C257.435 22.4403 257.573 22.451 257.701 22.451C257.851 22.451 257.925 22.451 257.925 22.451C257.925 22.451 257.989 22.4936 258.117 22.579C258.267 22.643 258.459 22.7283 258.693 22.835C259.013 22.963 259.301 23.187 259.557 23.507C259.813 23.8056 260.016 24.1576 260.165 24.563C260.336 24.947 260.432 25.331 260.453 25.715C260.432 26.1843 260.325 26.643 260.133 27.091C259.963 27.539 259.792 27.7523 259.621 27.731C259.451 27.7096 259.237 27.7843 258.981 27.955C258.747 28.1256 258.629 28.2536 258.629 28.339C258.629 28.4243 258.597 28.531 258.533 28.659C258.491 28.787 258.352 28.9896 258.117 29.267C258.096 29.3736 258.032 29.6616 257.925 30.131C257.84 30.579 257.733 31.091 257.605 31.667C257.477 32.243 257.36 32.7656 257.253 33.235C257.168 33.683 257.115 33.971 257.093 34.099C257.072 34.1843 257.019 34.3763 256.933 34.675C256.869 34.9523 256.773 35.2723 256.645 35.635C256.539 35.9976 256.421 36.339 256.293 36.659C256.208 37.2776 256.091 37.7363 255.941 38.035C255.813 38.355 255.6 38.6963 255.301 39.059C254.981 39.5923 254.597 40.0083 254.149 40.307C253.701 40.627 253.296 40.8083 252.933 40.851ZM251.621 30.099C251.664 30.3123 251.952 30.387 252.485 30.323C253.019 30.2376 253.552 30.0563 254.085 29.779C254.555 29.5443 254.981 29.3523 255.365 29.203C255.749 29.0536 256.016 28.8403 256.165 28.563C256.293 28.3496 256.4 28.1363 256.485 27.923C256.571 27.7096 256.677 27.4003 256.805 26.995C256.827 26.9096 256.88 26.8136 256.965 26.707C257.072 26.579 257.168 26.5043 257.253 26.483C257.339 26.4616 257.424 26.4616 257.509 26.483C257.616 26.5043 257.744 26.547 257.893 26.611C258 26.5683 258.075 26.4616 258.117 26.291C258.181 26.1203 258.192 25.9283 258.149 25.715C258.128 25.5656 258.021 25.363 257.829 25.107C257.637 24.851 257.392 24.6483 257.093 24.499C256.773 24.3283 256.4 24.435 255.973 24.819C255.547 25.203 255.024 25.6723 254.405 26.227C253.915 26.675 253.445 27.1443 252.997 27.635C252.549 28.1256 252.187 28.5843 251.909 29.011C251.653 29.4376 251.557 29.8003 251.621 30.099Z"
        fill="#22C55E" />
    <path fill-rule="evenodd" clip-rule="evenodd"
        d="M16.4039 62.9798C16.8252 60.835 15.8252 65.835 15.4373 69.0017C15.6585 69.6137 16.1694 69.6187 16.3372 69.6077C16.4672 69.5994 17.113 69.516 17.1755 68.7209C18.0737 57.3835 27.2993 40.6079 40.2924 29.6645C53.1713 18.817 69.8111 13.7075 85.7637 25.6746C86.1517 25.9645 86.7022 25.8858 86.993 25.4997C87.283 25.1117 87.2042 24.5612 86.8162 24.2713C70.1011 11.7327 52.6549 16.9576 39.1627 28.3214C27.7913 37.8983 19.2722 51.8422 16.4039 62.9798Z"
        fill="#22C55E" />
    <path fill-rule="evenodd" clip-rule="evenodd"
        d="M85.3768 24.4641C83.3097 24.5472 81.2489 24.5642 79.1871 24.808C73.6939 25.4565 68.1235 27.2938 63.5577 30.4511C63.1587 30.7283 63.0603 31.2746 63.3346 31.6725C63.6119 32.0715 64.1581 32.1698 64.556 31.8955C68.8875 28.8965 74.1807 27.1663 79.3924 26.5515C81.7526 26.2736 84.1141 26.2968 86.4828 26.1708C86.6009 26.1631 87.6318 26.1398 87.8481 26.075C88.3524 25.9273 88.4669 25.544 88.4972 25.3598C88.5243 25.2063 88.5201 25.0159 88.4286 24.7998C88.3526 24.6228 88.1294 24.3208 87.7452 23.9805C86.5176 22.8866 83.2883 20.746 82.7955 20.3385C77.1449 15.6685 72.672 10.3752 67.8234 4.9202C67.5003 4.55925 66.9448 4.5259 66.5829 4.84702C66.221 5.16814 66.1897 5.72275 66.5109 6.08463C71.4203 11.6092 75.9574 16.9631 81.6774 21.689C82.0152 21.9702 83.972 23.4244 85.3768 24.4641Z"
        fill="#22C55E" />
</svg>
