<svg width="638" height="286" viewBox="0 0 638 286" fill="none" xmlns="http://www.w3.org/2000/svg">
<path d="M59.3525 87.3304C61.7336 87.1319 64.5045 89.0416 67.6652 93.0596C70.8188 96.9926 72.5091 100.32 72.7359 103.041C72.9627 105.762 72.5234 107.169 71.4179 107.261C70.9077 107.303 69.788 107.226 68.0589 107.027C66.4148 106.822 64.9975 106.769 63.807 106.868C59.555 107.222 54.8071 110.358 49.5632 116.276C44.3193 122.193 39.9719 129.106 36.521 137.015C33.1551 144.916 31.7025 151.631 32.1633 157.158C32.3901 159.88 32.9819 161.843 33.9386 163.047C34.8883 164.167 36.4686 164.635 38.6796 164.45C44.5472 163.961 50.4255 162.572 56.3143 160.283C62.2032 157.994 67.0291 155.793 70.792 153.681C74.5478 151.484 76.6808 150.365 77.191 150.322C77.7863 150.273 78.3816 150.737 78.9769 151.715C79.6501 152.6 80.0435 153.724 80.1569 155.084C80.3979 157.976 78.389 161.611 74.1301 165.991C69.8641 170.285 64.5741 174.109 58.26 177.461C52.031 180.806 46.2804 182.698 41.008 183.137C35.7356 183.577 29.8998 180.852 23.5005 174.964C17.1862 169.068 13.788 163.228 13.306 157.446C12.6326 149.367 14.4606 139.967 18.7902 129.245C23.1128 118.438 29.0404 108.91 36.5732 100.661C44.191 92.4047 51.7841 87.9613 59.3525 87.3304ZM109.987 164.415C114.409 161.991 118.062 157.533 120.946 151.042C123.83 144.551 125.045 138.584 124.592 133.141C124.138 127.699 123.061 124.021 121.36 122.108C117.88 124.538 114.596 129.308 111.506 136.416C108.502 143.516 107.216 149.66 107.648 154.848C108.074 159.95 108.853 163.139 109.987 164.415ZM90.6619 157.548C89.7758 146.918 92.2097 136.568 97.9637 126.498C103.803 116.421 109.954 111.113 116.417 110.574C122.88 110.036 128.513 111.878 133.318 116.101C138.116 120.24 140.784 125.54 141.323 132.003C141.855 138.381 140.866 145.014 138.358 151.902C135.849 158.791 132.016 164.676 126.857 169.559C121.691 174.357 115.961 177.018 109.669 177.542C104.991 177.932 100.778 176.186 97.0295 172.302C93.2806 168.419 91.1581 163.501 90.6619 157.548ZM192.714 104.343C197.136 103.974 201.172 105.65 204.821 109.37C208.549 112.998 210.601 117.066 210.976 121.573C211.579 128.801 211.019 136.469 209.297 144.576C207.653 152.591 205.606 158.841 203.154 163.327C200.787 167.806 198.158 170.166 195.267 170.407C192.46 170.641 190.891 168.759 190.557 164.763C190.302 161.701 191.191 155.419 193.225 145.916C194.713 138.085 195.319 132.512 195.042 129.195C194.766 125.879 194.202 124.256 193.352 124.327C192.247 124.419 191.187 125.064 190.174 126.261C189.245 127.452 188.477 128.501 187.867 129.408C187.258 130.315 186.542 131.488 185.72 132.926C184.976 134.273 184.31 135.527 183.722 136.689C183.212 137.759 182.517 139.187 181.638 140.973C180.838 142.667 180.186 144.091 179.683 145.247C179.172 146.317 178.521 147.741 177.727 149.52C171.052 164.976 165.461 172.892 160.954 173.267C159.168 173.416 156.787 172.073 153.81 169.239C150.827 166.319 149.275 164.137 149.154 162.691C149.076 161.755 149.505 159.707 150.44 156.547C151.454 153.294 152.148 150.839 152.524 149.18C152.977 147.43 153.296 145.605 153.48 143.706C153.749 141.8 153.923 139.773 154.001 137.626C154.072 135.393 154.1 133.678 154.086 132.481C154.157 131.276 154.171 129.391 154.128 126.826C153.972 115.707 154.099 109.531 154.51 108.298C155.006 107.058 155.594 106.409 156.275 106.353C159.506 106.083 162.724 107.185 165.927 109.658C169.123 112.046 170.813 114.346 170.997 116.557C171.437 121.829 170.707 129.511 168.808 139.602C173.528 129.447 177.886 121.12 181.882 114.622C185.957 108.031 189.567 104.605 192.714 104.343ZM250.705 114.793C250.216 117.146 249.465 120.463 248.452 124.743C247.517 128.931 246.33 134.211 244.891 140.581C243.538 146.945 242.879 150.34 242.915 150.765C242.943 151.105 243.637 151.218 244.998 151.105C246.444 150.984 249.725 149.769 254.841 147.459C259.951 145.063 262.973 143.827 263.908 143.749C266.034 143.571 267.218 144.928 267.459 147.82C267.7 150.711 265.142 154.435 259.784 158.992C254.42 163.464 248.634 165.958 242.426 166.476C239.705 166.703 236.349 165.484 232.36 162.819C228.37 160.155 226.247 157.292 225.992 154.231C225.779 151.679 226.608 146.216 228.479 137.839C230.428 129.371 231.742 123.567 232.422 120.428C229.184 121.639 226.714 122.316 225.013 122.458C223.312 122.6 221.431 121.601 219.369 119.461C217.299 117.235 216.176 115.06 215.999 112.934C215.772 110.213 222.171 107.367 235.196 104.398C236.153 96.3545 236.39 89.4415 235.908 83.6589C235.695 81.1078 236.864 79.7259 239.416 79.5132C241.627 79.3289 244.546 80.4556 248.175 82.8933C251.881 85.2388 253.844 87.7297 254.064 90.3659C254.276 92.917 254.025 96.5772 253.309 101.347C257.377 100.836 260.474 100.492 262.6 100.315C268.978 99.7835 272.287 100.963 272.528 103.855C272.684 105.725 270.948 107.497 267.32 109.17C263.769 110.75 258.231 112.625 250.705 114.793ZM330.632 122.645C332.276 123.878 333.144 125.047 333.236 126.153C333.328 127.258 333.01 129.597 332.28 133.168C331.55 136.74 331.096 139.518 330.919 141.502C330.735 143.401 330.562 144.914 330.399 146.041C330.321 147.161 330.268 148.064 330.239 148.752C330.204 149.354 330.098 150.134 329.92 151.09C329.828 152.04 329.722 152.819 329.602 153.429C329.559 153.946 329.442 154.598 329.251 155.385C329.137 156.079 328.971 156.65 328.751 157.096C328.524 157.458 328.259 157.865 327.954 158.319C327.501 159.041 326.678 159.452 325.488 159.552C324.297 159.651 322.71 158.584 320.726 156.352C318.826 154.113 317.31 151.328 316.176 147.997C308.863 156.827 302.485 161.469 297.043 161.923C293.386 162.228 289.265 160.559 284.68 156.917C280.088 153.189 277.625 149.327 277.292 145.33C276.952 141.248 278.298 135.313 281.331 127.525C284.364 119.737 288.761 112.392 294.522 105.489C300.368 98.5797 306.395 94.8662 312.603 94.3487C316.175 94.051 320.473 95.7906 325.497 99.5676C330.521 103.345 333.179 106.976 333.47 110.463C333.753 113.865 332.807 117.925 330.632 122.645ZM295.193 145.893C298.594 145.61 302.91 142.938 308.14 137.878C313.447 132.726 316.487 126.564 317.259 119.392C317.259 118.365 317.933 117.709 319.279 117.426C318.62 112.6 317.61 110.244 316.249 110.357C312.848 110.641 309.205 113.171 305.322 117.947C301.524 122.716 298.473 127.723 296.17 132.967C293.952 138.204 292.943 142.013 293.141 144.394C293.198 145.075 293.322 145.535 293.513 145.776C293.782 145.925 294.342 145.964 295.193 145.893ZM342.795 137.943C342.299 131.991 343.624 125.287 346.77 117.832C349.916 110.376 354.295 103.846 359.908 98.2405C365.605 92.6278 371.388 89.5769 377.255 89.0877C380.232 88.8396 383.456 90.5403 386.929 94.1898C390.394 97.7542 392.254 101.067 392.51 104.129C392.694 106.34 391.766 107.53 389.725 107.7C388.704 107.785 387.262 107.435 385.398 106.648C383.534 105.861 381.667 105.546 379.796 105.702C377.925 105.858 375.381 107.697 372.164 111.219C369.025 114.649 366.283 118.731 363.937 123.465C361.669 128.107 360.642 131.703 360.855 134.254C361.067 136.805 361.673 138.425 362.673 139.112C363.757 139.792 366.17 139.977 369.911 139.665C373.738 139.346 377.154 138.718 380.159 137.783C383.248 136.84 385.488 135.969 386.877 135.168C388.343 134.275 389.672 133.779 390.863 133.679C393.244 133.481 394.519 134.402 394.689 136.443C395.001 140.185 392.046 144.284 385.825 148.742C379.596 153.115 373.207 155.574 366.659 156.12C362.492 156.467 357.539 154.568 351.799 150.422C346.136 146.185 343.135 142.025 342.795 137.943ZM435.689 99.3731C435.2 101.726 434.449 105.042 433.435 109.323C432.5 113.511 431.313 118.79 429.875 125.161C428.522 131.525 427.863 134.919 427.898 135.345C427.926 135.685 428.621 135.798 429.981 135.685C431.427 135.564 434.708 134.349 439.825 132.038C444.934 129.643 447.956 128.406 448.892 128.328C451.018 128.151 452.201 129.508 452.442 132.4C452.683 135.291 450.125 139.015 444.768 143.572C439.403 148.043 433.617 150.538 427.409 151.056C424.688 151.282 421.333 150.064 417.343 147.399C413.353 144.735 411.231 141.872 410.975 138.81C410.763 136.259 411.592 130.796 413.462 122.419C415.411 113.951 416.725 108.147 417.406 105.007C414.167 106.219 411.697 106.896 409.997 107.038C408.296 107.18 406.414 106.181 404.352 104.04C402.283 101.815 401.16 99.6398 400.982 97.5138C400.755 94.7926 407.155 91.9472 420.18 88.9776C421.136 80.9343 421.373 74.0214 420.891 68.2388C420.679 65.6876 421.848 64.3057 424.399 64.093C426.61 63.9087 429.53 65.0354 433.158 67.4731C436.864 69.8187 438.827 72.3095 439.047 74.9457C439.26 77.4969 439.008 81.1571 438.293 85.9263C442.36 85.416 445.457 85.0722 447.583 84.895C453.961 84.3633 457.27 85.5432 457.511 88.4345C457.667 90.3053 455.931 92.077 452.303 93.7495C448.753 95.3299 443.215 97.2045 435.689 99.3731ZM553.055 77.5158C553.558 75.3331 554.83 74.1567 556.871 73.9866C558.912 73.8165 561.395 75.3648 564.322 78.6316C567.334 81.8914 568.946 84.7968 569.159 87.348C569.237 88.2834 567.802 94.6968 564.855 106.588C561.907 118.479 559.65 127.873 558.084 134.768C557.191 138.439 555.342 140.391 552.535 140.625C550.835 140.767 549.339 140.292 548.05 139.201C546.838 138.017 546.122 136.108 545.902 133.471C545.683 130.835 545.881 127.051 546.497 122.119C538.787 135.435 532.339 142.309 527.152 142.741C524.43 142.968 521.011 141.498 516.894 138.33C512.769 135.077 510.569 131.793 510.292 128.476C509.612 120.313 511.039 109.704 514.575 96.6505C518.196 83.5899 522.047 76.8895 526.129 76.5492C528.595 76.3436 530.856 77.2684 532.911 79.3234C535.051 81.3714 536.231 83.7134 536.451 86.3496C536.536 87.3701 535.711 90.3075 533.975 95.1618C528.681 109.732 526.276 119.908 526.758 125.691C526.8 126.201 527.034 126.438 527.459 126.403C528.735 126.297 530.949 124.1 534.103 119.812C537.334 115.433 540.806 109.321 544.52 101.476C548.311 93.5386 551.156 85.552 553.055 77.5158ZM610.752 69.6235C613.984 69.3541 617.332 71.0016 620.798 74.5661C624.263 78.1305 626.124 81.4434 626.379 84.5048C626.549 86.5457 625.741 87.6406 623.955 87.7895C622.935 87.8746 621.415 87.6159 619.395 87.0136C617.368 86.3263 615.334 86.0677 613.293 86.2378C611.338 86.4009 608.46 87.3257 604.662 89.0124C600.949 90.692 599.184 92.6373 599.369 94.8483C599.439 95.6987 600.69 96.8361 603.121 98.2604C605.552 99.6847 608.199 101.134 611.062 102.608C613.925 104.082 616.632 106.254 619.183 109.124C621.727 111.909 623.148 115.087 623.446 118.659C623.736 122.145 621.437 125.89 616.547 129.894C611.743 133.891 605.854 136.18 598.881 136.762C591.993 137.336 585.951 136.255 580.757 133.52C575.562 130.785 572.827 127.759 572.55 124.442C572.274 121.126 573.496 119.354 576.217 119.127C577.323 119.035 578.677 119.351 580.278 120.073C584.736 122.185 590.111 122.979 596.404 122.454C602.781 121.922 605.9 120.806 605.758 119.105C605.616 117.405 604.227 115.637 601.591 113.801C599.032 111.874 596.233 110.138 593.193 108.593C590.238 107.041 587.421 105.092 584.742 102.747C582.141 100.309 580.738 97.8571 580.533 95.391C580.15 90.7989 583.902 85.4768 591.789 79.4247C599.669 73.2875 605.99 70.0204 610.752 69.6235Z" fill="#FFA500"/>
<path d="M134.425 226.665C192.2 209.257 365.166 171.433 594.828 159.397" stroke="#FFA500" stroke-width="16" stroke-linecap="round"/>
<path d="M228.39 239.457C270.528 226.927 396.655 199.625 564.065 190.658" stroke="#FFA500" stroke-width="16" stroke-linecap="round"/>
<path d="M164.192 277.714C219.107 261.147 383.513 225.159 601.819 213.743" stroke="#FFA500" stroke-width="16" stroke-linecap="round"/>
</svg>
