<svg width="224" height="42" viewBox="0 0 224 42" fill="none" xmlns="http://www.w3.org/2000/svg">
    <path
        d="M189.744 29.144C189.728 29.144 189.672 29.12 189.576 29.072C189.496 29.04 189.448 29.024 189.432 29.024C189.416 29.024 189.408 29.032 189.408 29.048C189.408 29.08 189.4 29.096 189.384 29.096L189.336 29.048L189.288 29.12C189.176 29.056 189.12 29.016 189.12 29C189.088 29.016 189.064 29.024 189.048 29.024C189.032 29.008 189.024 28.968 189.024 28.904L188.832 28.856C188.816 28.856 188.8 28.864 188.784 28.88C188.768 28.912 188.752 28.928 188.736 28.928C188.688 28.928 188.64 28.904 188.592 28.856C188.544 28.856 188.52 28.888 188.52 28.952H188.4C188.384 28.952 188.328 28.92 188.232 28.856C188.136 28.808 188.072 28.784 188.04 28.784C188.024 28.784 187.984 28.792 187.92 28.808C187.872 28.84 187.84 28.856 187.824 28.856H187.56C187.432 28.728 187.344 28.664 187.296 28.664L187.224 28.736C187.192 28.704 187.152 28.688 187.104 28.688H186.936C186.888 28.656 186.784 28.6 186.624 28.52C186.464 28.44 186.336 28.384 186.24 28.352C186.208 28.352 186.192 28.368 186.192 28.4C185.952 28.144 185.784 28.016 185.688 28.016H185.664C185.664 28.032 185.656 28.04 185.64 28.04C185.624 28.04 185.6 28.024 185.568 27.992L185.496 28.04C185.48 27.96 185.44 27.912 185.376 27.896C185.328 27.88 185.248 27.848 185.136 27.8C185.12 27.8 185.096 27.776 185.064 27.728C185.048 27.696 185.032 27.68 185.016 27.68C185 27.68 184.984 27.688 184.968 27.704C184.968 27.72 184.96 27.728 184.944 27.728L184.752 27.584V27.512C184.592 27.464 184.504 27.424 184.488 27.392C184.472 27.408 184.456 27.416 184.44 27.416C184.424 27.32 184.384 27.272 184.32 27.272C184.288 27.272 184.264 27.28 184.248 27.296C184.184 27.184 184.128 27.128 184.08 27.128V27.056L183.792 26.936C183.696 26.76 183.616 26.672 183.552 26.672H183.504C183.488 26.688 183.464 26.696 183.432 26.696L183.216 26.48C183.184 26.464 183.12 26.408 183.024 26.312V26.216C182.992 26.184 182.952 26.168 182.904 26.168C182.936 26.136 182.816 26 182.544 25.76C182.528 25.712 182.504 25.648 182.472 25.568C182.44 25.472 182.408 25.368 182.376 25.256C182.36 25.256 182.344 25.264 182.328 25.28C182.248 25.2 182.072 25.152 181.8 25.136C181.8 25.088 181.792 25.056 181.776 25.04C181.728 25.072 181.704 25.096 181.704 25.112C181.688 25.096 181.664 25.08 181.632 25.064C181.6 25.048 181.552 25.032 181.488 25.016L181.2 24.92C181.184 24.904 181.136 24.88 181.056 24.848C180.992 24.8 180.896 24.736 180.768 24.656L180.576 24.416L180.528 24.464L180.384 24.368V24.296C180.16 24.104 180.016 23.904 179.952 23.696C179.984 23.616 179.984 23.416 179.952 23.096L180.264 22.64C180.392 22.64 180.456 22.672 180.456 22.736C180.456 22.816 180.408 22.888 180.312 22.952C180.232 23.016 180.184 23.072 180.168 23.12C180.216 23.168 180.264 23.192 180.312 23.192C180.296 23.224 180.288 23.264 180.288 23.312C180.288 23.408 180.336 23.504 180.432 23.6C180.448 23.616 180.48 23.624 180.528 23.624C180.528 23.624 180.536 23.624 180.552 23.624C180.584 23.624 180.616 23.616 180.648 23.6H180.84V23.768C180.936 23.928 181.008 24.008 181.056 24.008C181.072 24.008 181.08 24 181.08 23.984C181.064 23.968 181.064 23.96 181.08 23.96C181.144 23.96 181.208 23.976 181.272 24.008C181.352 24.152 181.432 24.224 181.512 24.224C181.464 24.224 181.504 24.208 181.632 24.176L181.752 24.32C181.848 24.272 181.896 24.224 181.896 24.176C181.896 24.16 181.88 24.12 181.848 24.056C181.832 23.992 181.816 23.952 181.8 23.936V23.84C181.8 23.744 181.76 23.6 181.68 23.408V22.928L181.752 22.76C181.736 22.744 181.728 22.72 181.728 22.688L181.8 22.376C181.928 22.248 181.952 22.128 181.872 22.016C181.888 22 181.968 21.944 182.112 21.848C182.128 21.848 182.16 21.872 182.208 21.92L182.064 22.352C182.048 22.352 182.024 22.368 181.992 22.4C182.024 22.496 182.032 22.592 182.016 22.688L181.968 22.976L182.016 23.504C182.016 23.52 182.032 23.528 182.064 23.528C182.048 23.56 182.04 23.592 182.04 23.624C182.04 23.64 182.04 23.648 182.04 23.648L182.16 24.224L182.208 24.272C182.24 24.4 182.304 24.528 182.4 24.656C182.432 24.64 182.456 24.632 182.472 24.632C182.488 24.616 182.496 24.608 182.496 24.608L182.616 24.632C182.616 24.648 182.624 24.664 182.64 24.68H182.736L182.784 24.728C182.816 24.712 182.848 24.672 182.88 24.608C183.04 24.656 183.144 24.744 183.192 24.872C183.368 24.872 183.48 24.864 183.528 24.848C183.576 24.88 183.608 24.936 183.624 25.016C183.688 24.984 183.72 24.968 183.72 24.968C183.752 24.968 183.784 24.976 183.816 24.992C183.864 25.008 183.896 25.016 183.912 25.016C183.896 25.016 183.92 24.992 183.984 24.944H184.152C184.184 25.024 184.232 25.064 184.296 25.064C184.328 25.064 184.368 25.056 184.416 25.04C184.464 25.008 184.496 24.992 184.512 24.992C184.544 24.992 184.584 25.016 184.632 25.064C184.68 25.112 184.712 25.136 184.728 25.136L184.824 25.112C184.824 25.144 184.84 25.176 184.872 25.208C184.872 25.208 184.96 25.192 185.136 25.16C185.152 25.144 185.176 25.128 185.208 25.112C185.24 25.08 185.272 25.064 185.304 25.064C185.512 25.176 185.656 25.232 185.736 25.232C185.768 25.232 185.8 25.216 185.832 25.184V25.256C185.944 25.192 186 25.16 186 25.16L186.312 25.256C186.376 25.256 186.464 25.2 186.576 25.088C186.624 25.136 186.672 25.16 186.72 25.16C186.736 25.16 186.744 25.152 186.744 25.136H186.768C186.784 25.136 186.8 25.152 186.816 25.184C186.848 25.2 186.872 25.208 186.888 25.208C186.904 25.208 186.928 25.208 186.96 25.208C186.992 25.208 187.04 25.2 187.104 25.184H187.296C187.392 25.184 187.48 25.144 187.56 25.064C187.608 25.176 187.656 25.232 187.704 25.232H188.28C188.264 25.248 188.288 25.256 188.352 25.256C188.368 25.256 188.392 25.248 188.424 25.232C188.456 25.216 188.48 25.208 188.496 25.208C188.528 25.208 188.544 25.216 188.544 25.232C188.56 25.248 188.576 25.256 188.592 25.256C188.608 25.256 188.656 25.248 188.736 25.232C188.816 25.2 188.88 25.184 188.928 25.184C188.944 25.184 188.952 25.192 188.952 25.208C188.968 25.224 188.984 25.232 189 25.232C189.016 25.232 189.04 25.224 189.072 25.208C189.12 25.176 189.152 25.16 189.168 25.16C189.184 25.16 189.24 25.176 189.336 25.208L189.384 25.16C189.4 25.176 189.464 25.184 189.576 25.184C189.592 25.184 189.6 25.176 189.6 25.16C189.616 25.144 189.64 25.136 189.672 25.136C189.688 25.136 189.712 25.144 189.744 25.16C189.792 25.176 189.832 25.184 189.864 25.184L190.08 25.136C190.16 25.136 190.208 25.128 190.224 25.112L190.272 25.16C190.304 25.112 190.344 25.088 190.392 25.088C190.408 25.088 190.416 25.096 190.416 25.112C190.416 25.128 190.432 25.136 190.464 25.136C190.48 25.136 190.48 25.128 190.464 25.112C190.464 25.096 190.496 25.08 190.56 25.064H190.632C190.648 25.064 190.68 25.064 190.728 25.064C190.776 25.048 190.84 25.04 190.92 25.04H191.184C191.2 25.04 191.208 25.032 191.208 25.016C191.224 24.984 191.24 24.968 191.256 24.968H191.352C191.384 24.984 191.416 24.992 191.448 24.992L191.544 24.92C191.672 24.904 191.76 24.896 191.808 24.896C191.872 24.88 191.896 24.872 191.88 24.872C192.104 24.808 192.264 24.76 192.36 24.728C192.472 24.696 192.52 24.68 192.504 24.68C192.504 24.696 192.536 24.712 192.6 24.728C192.616 24.712 192.624 24.672 192.624 24.608C192.624 24.544 192.688 24.512 192.816 24.512C192.848 24.512 192.896 24.528 192.96 24.56C192.96 24.576 192.976 24.632 193.008 24.728C192.944 24.84 192.832 24.896 192.672 24.896C192.656 24.896 192.64 24.888 192.624 24.872H192.6C192.568 24.872 192.496 24.904 192.384 24.968C192.288 25.032 192.232 25.064 192.216 25.064C192.168 25.064 192.128 25.088 192.096 25.136L192.024 25.088C191.832 25.088 191.592 25.128 191.304 25.208C191.16 25.256 191.112 25.28 191.16 25.28C191.112 25.28 191.064 25.272 191.016 25.256H190.896C190.88 25.256 190.864 25.264 190.848 25.28C190.848 25.296 190.832 25.304 190.8 25.304C190.784 25.304 190.776 25.296 190.776 25.28H190.752C190.704 25.28 190.68 25.304 190.68 25.352C190.648 25.32 190.616 25.304 190.584 25.304L190.296 25.376C190.264 25.376 190.248 25.368 190.248 25.352L190.224 25.328C190.208 25.328 190.176 25.344 190.128 25.376C190.096 25.392 190.072 25.4 190.056 25.4H190.008C190.008 25.384 190 25.376 189.984 25.376C189.936 25.376 189.88 25.384 189.816 25.4C189.752 25.416 189.664 25.464 189.552 25.544C189.504 25.496 189.472 25.472 189.456 25.472C189.408 25.472 189.352 25.488 189.288 25.52C189.24 25.552 189.208 25.568 189.192 25.568H189.096C189.064 25.552 189.032 25.544 189 25.544C188.984 25.544 188.96 25.552 188.928 25.568C188.896 25.584 188.872 25.592 188.856 25.592C188.84 25.592 188.824 25.584 188.808 25.568C188.792 25.552 188.768 25.544 188.736 25.544C188.72 25.544 188.704 25.552 188.688 25.568C188.672 25.584 188.656 25.592 188.64 25.592C188.624 25.592 188.608 25.584 188.592 25.568C188.576 25.552 188.552 25.544 188.52 25.544C188.472 25.544 188.424 25.56 188.376 25.592C188.344 25.608 188.328 25.616 188.328 25.616H188.304C188.24 25.616 188.192 25.576 188.16 25.496C188.032 25.528 187.944 25.56 187.896 25.592C187.912 25.608 187.912 25.616 187.896 25.616C187.864 25.616 187.864 25.608 187.896 25.592C187.88 25.576 187.864 25.56 187.848 25.544C187.832 25.592 187.8 25.616 187.752 25.616C187.736 25.616 187.72 25.616 187.704 25.616C187.688 25.6 187.664 25.584 187.632 25.568C187.616 25.584 187.608 25.64 187.608 25.736C187.528 25.656 187.456 25.616 187.392 25.616C187.424 25.616 187.4 25.632 187.32 25.664C187.272 25.6 187.232 25.568 187.2 25.568H187.056L186.984 25.616L186.744 25.568C186.696 25.568 186.672 25.584 186.672 25.616L186.6 25.568C186.568 25.6 186.536 25.616 186.504 25.616C186.504 25.616 186.448 25.584 186.336 25.52C186.288 25.568 186.264 25.616 186.264 25.664H186.192L186.144 25.616C186.128 25.632 186.12 25.656 186.12 25.688L186.072 25.616C186.056 25.616 186.048 25.624 186.048 25.64C186.048 25.608 186.016 25.592 185.952 25.592C185.92 25.592 185.896 25.6 185.88 25.616C185.88 25.6 185.848 25.568 185.784 25.52L185.712 25.568C185.68 25.568 185.664 25.584 185.664 25.616C185.536 25.536 185.456 25.496 185.424 25.496C185.44 25.496 185.408 25.512 185.328 25.544C185.28 25.496 185.224 25.472 185.16 25.472C185.144 25.472 185.104 25.496 185.04 25.544C184.992 25.576 184.952 25.592 184.92 25.592C184.84 25.592 184.768 25.576 184.704 25.544C184.656 25.512 184.624 25.496 184.608 25.496C184.64 25.496 184.6 25.512 184.488 25.544C184.52 25.512 184.52 25.488 184.488 25.472C184.472 25.472 184.464 25.488 184.464 25.52H184.368L184.296 25.424L184.08 25.496L183.696 25.376C183.216 25.376 182.96 25.384 182.928 25.4C182.976 25.464 183.048 25.536 183.144 25.616V25.688C183.208 25.72 183.272 25.768 183.336 25.832C183.4 25.896 183.472 25.968 183.552 26.048C183.6 26.144 183.712 26.232 183.888 26.312C183.92 26.328 183.968 26.336 184.032 26.336C184.064 26.336 184.088 26.328 184.104 26.312H184.224V26.36C184.224 26.408 184.256 26.456 184.32 26.504C184.4 26.568 184.44 26.616 184.44 26.648C184.44 26.68 184.432 26.704 184.416 26.72C184.64 26.816 184.744 26.864 184.728 26.864C184.744 26.864 184.768 26.848 184.8 26.816C184.848 26.8 184.88 26.792 184.896 26.792C184.944 26.792 184.992 26.856 185.04 26.984L185.112 26.912H185.184C185.184 26.944 185.176 26.968 185.16 26.984C185.208 27 185.248 27.008 185.28 27.008C185.312 27.008 185.424 27.048 185.616 27.128C185.632 27.128 185.656 27.112 185.688 27.08C185.72 27.144 185.752 27.2 185.784 27.248C185.816 27.312 185.864 27.344 185.928 27.344H185.976C185.976 27.328 185.992 27.32 186.024 27.32C186.04 27.32 186.04 27.328 186.024 27.344C186.024 27.36 186.032 27.368 186.048 27.368C186.064 27.368 186.08 27.352 186.096 27.32C186.112 27.304 186.128 27.296 186.144 27.296C186.176 27.296 186.216 27.312 186.264 27.344C186.312 27.392 186.344 27.432 186.36 27.464C186.392 27.416 186.416 27.392 186.432 27.392C186.448 27.392 186.488 27.408 186.552 27.44C186.632 27.472 186.688 27.488 186.72 27.488C186.784 27.488 186.848 27.464 186.912 27.416C186.976 27.512 187.064 27.592 187.176 27.656L187.224 27.704C187.208 27.72 187.2 27.776 187.2 27.872L187.32 27.824L187.344 27.92C187.344 28 187.312 28.04 187.248 28.04H187.2C187.2 28.072 187.216 28.088 187.248 28.088C187.264 28.088 187.288 28.088 187.32 28.088C187.352 28.088 187.384 28.08 187.416 28.064H187.584C187.616 28.064 187.632 28.024 187.632 27.944H187.848C187.864 27.944 187.88 27.928 187.896 27.896C187.928 27.88 187.952 27.872 187.968 27.872L188.184 27.944L188.28 27.752C188.344 27.784 188.408 27.8 188.472 27.8C188.552 27.8 188.68 27.824 188.856 27.872L188.904 27.944V27.872C188.952 27.856 189.064 27.848 189.24 27.848C189.208 27.848 189.288 27.896 189.48 27.992C189.576 27.944 189.616 27.912 189.6 27.896H189.576C189.592 27.896 189.6 27.896 189.6 27.896C189.616 27.912 189.632 27.92 189.648 27.92C189.664 27.936 189.68 27.944 189.696 27.944C189.76 27.88 189.784 27.848 189.768 27.848C189.784 27.848 189.8 27.848 189.816 27.848C189.832 27.864 189.856 27.88 189.888 27.896C189.888 27.912 189.896 27.936 189.912 27.968C189.944 27.936 189.984 27.92 190.032 27.92C190.048 27.92 190.048 27.888 190.032 27.824C190.064 27.824 190.104 27.808 190.152 27.776C190.2 27.76 190.232 27.752 190.248 27.752C190.264 27.752 190.336 27.784 190.464 27.848C190.592 27.912 190.664 27.944 190.68 27.944H190.704C190.768 27.88 190.8 27.832 190.8 27.8C190.832 27.8 190.872 27.824 190.92 27.872C191 27.792 191.064 27.752 191.112 27.752C191.128 27.752 191.144 27.76 191.16 27.776C191.176 27.792 191.192 27.8 191.208 27.8C191.256 27.8 191.336 27.744 191.448 27.632H191.52C191.536 27.648 191.552 27.656 191.568 27.656H191.616C191.632 27.72 191.632 27.808 191.616 27.92L191.688 28.016C191.72 27.984 191.744 27.984 191.76 28.016L191.808 27.944V27.824C191.808 27.824 191.816 27.808 191.832 27.776C191.848 27.76 191.872 27.752 191.904 27.752C191.92 27.752 191.936 27.76 191.952 27.776C191.968 27.744 191.992 27.704 192.024 27.656C192.056 27.608 192.088 27.552 192.12 27.488C192.12 27.504 192.136 27.512 192.168 27.512C192.248 27.528 192.304 27.552 192.336 27.584C192.368 27.536 192.432 27.512 192.528 27.512L192.6 27.584L192.768 27.488V27.392L192.912 27.272C193.2 27.144 193.384 27.08 193.464 27.08L193.512 27.128C193.528 27.128 193.536 27.104 193.536 27.056C193.552 27.072 193.6 27.056 193.68 27.008C193.744 27.04 193.768 27.064 193.752 27.08C193.736 27.096 193.744 27.104 193.776 27.104H193.944C194.024 27.104 194.072 27.104 194.088 27.104C194.12 27.12 194.144 27.128 194.16 27.128C194.192 27.128 194.224 27.104 194.256 27.056C194.288 27.024 194.408 26.936 194.616 26.792C194.824 26.664 194.96 26.6 195.024 26.6C195.008 26.584 195.008 26.552 195.024 26.504C195.024 26.488 195.024 26.48 195.024 26.48V26.504C195.024 26.504 195.064 26.504 195.144 26.504C195.192 26.504 195.224 26.48 195.24 26.432L195.288 26.48L195.432 26.408C195.464 26.376 195.448 26.32 195.384 26.24V26.072L195.48 26.048C195.512 26.048 195.544 26.056 195.576 26.072C195.624 26.104 195.656 26.12 195.672 26.12C195.736 26.088 195.84 26.04 195.984 25.976C196.128 25.912 196.208 25.848 196.224 25.784V25.76C196.224 25.712 196.24 25.648 196.272 25.568C196.32 25.488 196.36 25.448 196.392 25.448C196.424 25.448 196.448 25.456 196.464 25.472H196.512C196.544 25.472 196.616 25.424 196.728 25.328C196.744 25.312 196.752 25.288 196.752 25.256C196.752 25.224 196.76 25.184 196.776 25.136C196.776 25.136 196.832 25.176 196.944 25.256C196.96 25.256 196.976 25.248 196.992 25.232C197.024 25.2 197.056 25.184 197.088 25.184V24.848C197.12 24.832 197.152 24.816 197.184 24.8C197.232 24.784 197.288 24.76 197.352 24.728C197.4 24.696 197.448 24.624 197.496 24.512H197.64C197.64 24.48 197.656 24.424 197.688 24.344C197.672 24.344 197.672 24.336 197.688 24.32V24.344C197.688 24.344 197.704 24.344 197.736 24.344C197.688 24.344 197.712 24.328 197.808 24.296C197.776 24.184 197.736 24.12 197.688 24.104C197.704 24.088 197.712 24.064 197.712 24.032H197.856C197.856 23.984 197.84 23.944 197.808 23.912C197.84 23.864 197.896 23.816 197.976 23.768C198.072 23.72 198.12 23.664 198.12 23.6C198.12 23.568 198.12 23.536 198.12 23.504C198.12 23.456 198.104 23.408 198.072 23.36C198.072 23.328 198.08 23.296 198.096 23.264H198.12C198.232 23.264 198.288 23.128 198.288 22.856C198.288 22.664 198.256 22.512 198.192 22.4C198.192 22.384 198.2 22.368 198.216 22.352C198.2 22.32 198.16 22.248 198.096 22.136C198.048 22.024 197.96 21.888 197.832 21.728L197.616 21.44C197.392 21.216 197.264 21.104 197.232 21.104C197.2 21.104 197.192 21.112 197.208 21.128C197.208 21.144 197.208 21.152 197.208 21.152C197.208 21.152 197.208 21.144 197.208 21.128C197.16 21.048 197.104 21.008 197.04 21.008C197.024 21.008 197.008 21.016 196.992 21.032C196.976 20.92 196.936 20.864 196.872 20.864H196.848C196.848 20.88 196.84 20.888 196.824 20.888C196.808 20.888 196.776 20.864 196.728 20.816C196.68 20.768 196.648 20.744 196.632 20.744H196.608C196.608 20.76 196.6 20.768 196.584 20.768C196.632 20.768 196.616 20.744 196.536 20.696C196.488 20.696 196.344 20.648 196.104 20.552C195.88 20.456 195.712 20.408 195.6 20.408C195.6 20.36 195.584 20.336 195.552 20.336C195.536 20.336 195.528 20.344 195.528 20.36C195.528 20.376 195.52 20.384 195.504 20.384C195.488 20.384 195.384 20.344 195.192 20.264H195.072C195.056 20.264 195.04 20.264 195.024 20.264C195.008 20.248 194.96 20.232 194.88 20.216C194.864 20.216 194.848 20.224 194.832 20.24L194.784 20.168C194.784 20.168 194.768 20.152 194.736 20.12C194.704 20.152 194.672 20.168 194.64 20.168C194.608 20.168 194.536 20.144 194.424 20.096C194.328 20.048 194.272 20.024 194.256 20.024C194.224 20.024 194.184 20.032 194.136 20.048H193.992C193.976 20.048 193.96 20.04 193.944 20.024C193.928 20.008 193.912 20 193.896 20C193.864 20 193.808 20 193.728 20C193.664 20 193.584 19.992 193.488 19.976L193.416 19.904H193.368L193.32 19.856L193.224 19.928C193.144 19.848 193.056 19.808 192.96 19.808H192.864C192.832 19.824 192.8 19.832 192.768 19.832C192.752 19.832 192.744 19.824 192.744 19.808C192.76 19.792 192.76 19.784 192.744 19.784C192.728 19.784 192.712 19.776 192.696 19.76C192.696 19.744 192.688 19.736 192.672 19.736L192.504 19.784C192.488 19.784 192.448 19.768 192.384 19.736C192.32 19.688 192.272 19.664 192.24 19.664H192.192C192.176 19.664 192.12 19.656 192.024 19.64C191.944 19.624 191.824 19.6 191.664 19.568L191.136 19.448L191.064 19.472C191.016 19.472 190.872 19.416 190.632 19.304C190.408 19.192 190.28 19.136 190.248 19.136H190.2C190.184 19.152 190.168 19.16 190.152 19.16C190.088 19.16 189.992 19.12 189.864 19.04V19.088C189.784 19.056 189.504 18.968 189.024 18.824C188.768 18.696 188.408 18.504 187.944 18.248C187.864 18.152 187.808 18.048 187.776 17.936V17.744C187.712 17.6 187.64 17.504 187.56 17.456C187.592 17.36 187.576 17.296 187.512 17.264C187.544 17.184 187.536 17.104 187.488 17.024L187.56 16.52C187.592 16.488 187.616 16.432 187.632 16.352C187.648 16.256 187.704 16.072 187.8 15.8C187.816 15.768 187.824 15.736 187.824 15.704C187.824 15.672 187.832 15.632 187.848 15.584C187.848 15.6 187.856 15.616 187.872 15.632C187.888 15.616 187.912 15.576 187.944 15.512C187.976 15.432 188.04 15.368 188.136 15.32C188.136 15.288 188.152 15.24 188.184 15.176C188.232 15.112 188.32 14.992 188.448 14.816C188.56 14.768 188.688 14.64 188.832 14.432C188.976 14.224 189.104 14.08 189.216 14L189.432 13.928L189.528 13.808L190.032 13.52C190.064 13.488 190.136 13.464 190.248 13.448L190.296 13.4C190.36 13.4 190.392 13.376 190.392 13.328L190.44 13.376C190.44 13.36 190.528 13.312 190.704 13.232L190.896 13.136C190.944 13.088 191.008 13.056 191.088 13.04C191.12 13.024 191.152 13.016 191.184 13.016C191.216 13.016 191.256 13.008 191.304 12.992C191.32 12.992 191.336 12.976 191.352 12.944C191.384 12.912 191.408 12.896 191.424 12.896C191.44 12.896 191.448 12.904 191.448 12.92H191.472C191.456 12.92 191.504 12.888 191.616 12.824C191.84 12.664 192.12 12.576 192.456 12.56C192.472 12.56 192.496 12.544 192.528 12.512C192.56 12.48 192.584 12.464 192.6 12.464H192.648C192.664 12.48 192.68 12.488 192.696 12.488C192.728 12.488 192.76 12.48 192.792 12.464C192.824 12.432 192.856 12.416 192.888 12.416C192.824 12.416 192.896 12.384 193.104 12.32C193.328 12.24 193.6 12.2 193.92 12.2C193.968 12.2 194.016 12.192 194.064 12.176H194.232C194.248 12.176 194.256 12.168 194.256 12.152H194.28C194.36 12.152 194.44 12.144 194.52 12.128C194.6 12.112 194.648 12.072 194.664 12.008L194.712 12.056C194.76 11.976 194.8 11.976 194.832 12.056V12.008H194.952C194.968 12.008 194.976 12.016 194.976 12.032C194.992 12.048 195.008 12.056 195.024 12.056C195.072 12.056 195.096 12.04 195.096 12.008L195.192 12.08C195.32 11.936 195.416 11.864 195.48 11.864L195.648 11.912C195.68 11.912 195.696 11.904 195.696 11.888C195.696 11.872 195.704 11.864 195.72 11.864C195.736 11.864 195.784 11.88 195.864 11.912C195.96 11.944 196.024 11.96 196.056 11.96C196.072 11.96 196.104 11.944 196.152 11.912C196.2 11.864 196.232 11.84 196.248 11.84C196.36 11.856 196.44 11.88 196.488 11.912C196.552 11.928 196.648 11.96 196.776 12.008C196.856 11.912 196.904 11.864 196.92 11.864C196.952 11.864 197.032 11.896 197.16 11.96L197.256 11.888C197.24 11.904 197.232 11.928 197.232 11.96C197.248 11.976 197.264 11.984 197.28 11.984H197.424C197.456 11.984 197.456 11.96 197.424 11.912C197.488 11.976 197.544 12.008 197.592 12.008C197.608 12.008 197.616 12 197.616 11.984H197.64C197.624 11.984 197.648 12.008 197.712 12.056C197.696 12.056 197.704 12.064 197.736 12.08C197.768 12.08 197.816 12.088 197.88 12.104C197.912 12.136 197.936 12.2 197.952 12.296C197.968 12.28 197.976 12.256 197.976 12.224C197.976 12.256 197.984 12.28 198 12.296L198.504 12.512C198.504 12.608 198.576 12.704 198.72 12.8C198.704 12.864 198.744 12.984 198.84 13.16C198.952 13.336 198.992 13.456 198.96 13.52C199.024 13.632 199.056 13.728 199.056 13.808C199.056 13.968 199.032 14.12 198.984 14.264C198.936 14.328 198.88 14.432 198.816 14.576C198.768 14.72 198.64 14.88 198.432 15.056C198.192 15.264 198.048 15.424 198 15.536L197.352 16.04C197.32 16.072 197.296 16.104 197.28 16.136C197.264 16.152 197.256 16.16 197.256 16.16C197.224 16.16 197.208 16.152 197.208 16.136C197.224 16.12 197.216 16.112 197.184 16.112C197.2 16.112 197.104 16.168 196.896 16.28L196.728 16.328C196.68 16.36 196.616 16.408 196.536 16.472C196.472 16.52 196.384 16.584 196.272 16.664C196.208 16.68 196.136 16.712 196.056 16.76C195.976 16.792 195.88 16.84 195.768 16.904C195.768 16.856 195.744 16.832 195.696 16.832L196.152 16.448C196.184 16.448 196.224 16.44 196.272 16.424L196.704 16.04L196.896 15.944C196.96 15.928 196.992 15.88 196.992 15.8H197.04C197.216 15.8 197.352 15.648 197.448 15.344C197.496 15.344 197.528 15.352 197.544 15.368C197.56 15.32 197.592 15.272 197.64 15.224C197.688 15.176 197.752 15.112 197.832 15.032C197.928 14.904 198.032 14.752 198.144 14.576C198.256 14.384 198.368 14.184 198.48 13.976C198.48 13.976 198.464 13.944 198.432 13.88C198.448 13.848 198.48 13.808 198.528 13.76C198.576 13.696 198.6 13.656 198.6 13.64C198.6 13.64 198.584 13.608 198.552 13.544V13.208C198.552 13.096 198.496 12.984 198.384 12.872C198.352 12.888 198.328 12.896 198.312 12.896L198.336 12.8C198.336 12.752 198.232 12.672 198.024 12.56C197.768 12.4 197.608 12.32 197.544 12.32H197.472C197.456 12.336 197.432 12.344 197.4 12.344C197.368 12.344 197.312 12.328 197.232 12.296C197.168 12.264 197.128 12.248 197.112 12.248C197.096 12.248 197.088 12.256 197.088 12.272C197.088 12.288 197.08 12.296 197.064 12.296L196.536 12.176C196.52 12.176 196.512 12.184 196.512 12.2C196.512 12.216 196.504 12.224 196.488 12.224C196.472 12.224 196.448 12.216 196.416 12.2C196.384 12.184 196.352 12.176 196.32 12.176C196.304 12.176 196.288 12.184 196.272 12.2C196.272 12.216 196.264 12.224 196.248 12.224C196.232 12.224 196.224 12.216 196.224 12.2H196.176C196.16 12.2 196.152 12.208 196.152 12.224C196.152 12.24 196.144 12.248 196.128 12.248C196.112 12.248 196.096 12.24 196.08 12.224C196.08 12.208 196.072 12.2 196.056 12.2C196.04 12.2 196.032 12.208 196.032 12.224H196.056L195.672 12.296C195.64 12.296 195.6 12.296 195.552 12.296C195.504 12.296 195.448 12.304 195.384 12.32L195.312 12.272C195.056 12.368 194.864 12.416 194.736 12.416C194.704 12.416 194.688 12.408 194.688 12.392H194.664C194.632 12.392 194.52 12.424 194.328 12.488C194.152 12.552 194.056 12.584 194.04 12.584C194.024 12.584 194.024 12.576 194.04 12.56C194.04 12.544 194.032 12.536 194.016 12.536C194.032 12.536 194.04 12.536 194.04 12.536C194.04 12.52 194.04 12.512 194.04 12.512C194.04 12.496 193.984 12.504 193.872 12.536C193.76 12.568 193.648 12.608 193.536 12.656C193.44 12.688 193.384 12.72 193.368 12.752H193.344C193.344 12.736 193.336 12.728 193.32 12.728C193.224 12.728 193.136 12.792 193.056 12.92C193.056 12.904 193.064 12.888 193.08 12.872L192.984 12.824L192.864 12.992L192.816 12.944C192.88 12.944 192.744 13.008 192.408 13.136C192.392 13.152 192.384 13.16 192.384 13.16C192.384 13.16 192.384 13.168 192.384 13.184C192.368 13.168 192.368 13.16 192.384 13.16C192.368 13.16 192.36 13.16 192.36 13.16C192.36 13.176 192.24 13.232 192 13.328L191.736 13.424L191.568 13.544L190.2 14.552C190.04 14.664 189.92 14.792 189.84 14.936C189.776 15.064 189.696 15.208 189.6 15.368L189.528 15.32C189.512 15.4 189.432 15.48 189.288 15.56C189.304 15.544 189.312 15.584 189.312 15.68C189.312 15.712 189.264 15.768 189.168 15.848V15.92C189.168 16.016 189.176 16.096 189.192 16.16C189.176 16.208 189.16 16.272 189.144 16.352C189.144 16.416 189.112 16.536 189.048 16.712C189.048 16.728 189.048 16.752 189.048 16.784C189.048 16.816 189.056 16.848 189.072 16.88C189.056 16.944 189.04 16.992 189.024 17.024C189.024 17.04 189.024 17.04 189.024 17.024C189.024 17.168 189.032 17.224 189.048 17.192C189.224 17.256 189.296 17.4 189.264 17.624C189.344 17.704 189.384 17.744 189.384 17.744C189.4 17.744 189.408 17.736 189.408 17.72H189.432C189.464 17.72 189.504 17.744 189.552 17.792C189.6 17.84 189.664 17.864 189.744 17.864C189.728 17.88 189.736 17.936 189.768 18.032C189.816 18.128 189.856 18.176 189.888 18.176C189.904 18.176 189.912 18.168 189.912 18.152H189.936C189.952 18.152 190.024 18.2 190.152 18.296C190.28 18.392 190.352 18.44 190.368 18.44H190.392C190.392 18.424 190.4 18.416 190.416 18.416C190.432 18.416 190.52 18.48 190.68 18.608C190.856 18.72 190.96 18.776 190.992 18.776C191.008 18.776 191.112 18.736 191.304 18.656L191.592 18.968C191.608 18.952 191.616 18.928 191.616 18.896C191.744 19.04 191.864 19.112 191.976 19.112C192.008 19.112 192.04 19.128 192.072 19.16L192.12 19.088C192.12 19.12 192.136 19.136 192.168 19.136C192.184 19.136 192.192 19.128 192.192 19.112H192.216C192.424 19.24 192.536 19.304 192.552 19.304C192.568 19.304 192.592 19.296 192.624 19.28C192.656 19.264 192.68 19.256 192.696 19.256C192.728 19.256 192.784 19.296 192.864 19.376C192.88 19.36 192.888 19.344 192.888 19.328C192.968 19.408 193.104 19.448 193.296 19.448C193.44 19.544 193.56 19.592 193.656 19.592C193.752 19.592 193.808 19.6 193.824 19.616L193.992 19.688C194.008 19.688 194.048 19.68 194.112 19.664C194.176 19.648 194.224 19.64 194.256 19.64C194.432 19.672 194.552 19.704 194.616 19.736C194.68 19.752 194.688 19.76 194.64 19.76C194.656 19.76 194.672 19.752 194.688 19.736L194.736 19.784L194.952 19.928C194.984 19.928 195.008 19.952 195.024 20L195.144 19.904C195.192 19.952 195.2 19.976 195.168 19.976L195.12 20.024L195.216 20.096C195.296 20.032 195.376 20 195.456 20C195.44 20 195.432 20 195.432 20C195.448 20 195.464 20 195.48 20H195.456C195.392 20 195.44 20.024 195.6 20.072C195.696 20.104 195.752 20.136 195.768 20.168H196.032C196.064 20.264 196.112 20.312 196.176 20.312C196.208 20.312 196.216 20.304 196.2 20.288C196.2 20.272 196.208 20.264 196.224 20.264C196.256 20.264 196.32 20.288 196.416 20.336C196.432 20.336 196.456 20.36 196.488 20.408C196.52 20.456 196.552 20.48 196.584 20.48C196.6 20.48 196.608 20.472 196.608 20.456H196.632C196.664 20.456 196.712 20.512 196.776 20.624C196.792 20.608 196.8 20.592 196.8 20.576L197.016 20.72C197.032 20.72 197.056 20.72 197.088 20.72C197.12 20.72 197.16 20.728 197.208 20.744C197.224 20.76 197.248 20.8 197.28 20.864C197.328 20.912 197.368 20.936 197.4 20.936C197.416 20.936 197.424 20.928 197.424 20.912H197.448C197.464 20.912 197.48 20.936 197.496 20.984C197.512 21.016 197.536 21.032 197.568 21.032C197.6 21.016 197.624 21.008 197.64 21.008C197.64 21.024 197.704 21.096 197.832 21.224C197.816 21.224 197.88 21.32 198.024 21.512C198.104 21.592 198.168 21.648 198.216 21.68C198.28 21.696 198.368 21.776 198.48 21.92C198.464 21.936 198.456 21.984 198.456 22.064L198.672 22.256C198.672 22.272 198.712 22.384 198.792 22.592C198.872 22.784 198.912 22.976 198.912 23.168C198.912 23.28 198.896 23.392 198.864 23.504C198.848 23.616 198.824 23.736 198.792 23.864C198.76 24.008 198.752 24.088 198.768 24.104C198.72 24.12 198.664 24.216 198.6 24.392C198.536 24.584 198.424 24.8 198.264 25.04C198.248 25.056 198.2 25.112 198.12 25.208C198.056 25.288 197.952 25.408 197.808 25.568L197.736 25.76C197.704 25.808 197.656 25.864 197.592 25.928C197.528 25.992 197.456 26.064 197.376 26.144L197.088 26.312C196.816 26.504 196.68 26.624 196.68 26.672V26.648H196.656C196.688 26.648 196.648 26.68 196.536 26.744C196.536 26.76 196.52 26.784 196.488 26.816C196.472 26.864 196.424 26.92 196.344 26.984C196.312 26.984 196.248 27 196.152 27.032C196.12 27.064 196.072 27.104 196.008 27.152C195.944 27.216 195.872 27.28 195.792 27.344L195.552 27.416C195.552 27.416 195.512 27.456 195.432 27.536C195.368 27.616 195.304 27.656 195.24 27.656C195.256 27.656 195.248 27.64 195.216 27.608H195.192C195.176 27.608 195.168 27.64 195.168 27.704H195.12C195.136 27.704 195.088 27.736 194.976 27.8C194.912 27.848 194.816 27.896 194.688 27.944C194.56 27.992 194.424 28.072 194.28 28.184C194.2 28.184 194.152 28.192 194.136 28.208L194.088 28.16C194.072 28.224 194.024 28.256 193.944 28.256C193.928 28.256 193.92 28.248 193.92 28.232H193.896C193.88 28.232 193.84 28.256 193.776 28.304C193.728 28.368 193.696 28.4 193.68 28.4L193.44 28.352C193.44 28.352 193.4 28.4 193.32 28.496C193.24 28.592 193.144 28.64 193.032 28.64C193.016 28.64 193.008 28.632 193.008 28.616L192.984 28.592C192.952 28.592 192.928 28.6 192.912 28.616C192.896 28.648 192.88 28.664 192.864 28.664H192.84C192.84 28.648 192.832 28.64 192.816 28.64C192.8 28.64 192.768 28.656 192.72 28.688C192.672 28.72 192.632 28.736 192.6 28.736H192.552C192.536 28.72 192.52 28.712 192.504 28.712C192.44 28.712 192.296 28.776 192.072 28.904L191.976 28.76C191.928 28.872 191.864 28.928 191.784 28.928C191.752 28.928 191.712 28.904 191.664 28.856H191.616C191.584 28.856 191.568 28.864 191.568 28.88C191.584 28.896 191.584 28.904 191.568 28.904H191.544C191.544 28.888 191.536 28.88 191.52 28.88C191.504 28.88 191.44 28.912 191.328 28.976C191.216 29.04 191.136 29.072 191.088 29.072C191.088 29.04 191.056 29.016 190.992 29C190.944 28.984 190.88 28.952 190.8 28.904L190.704 29.024H190.68L190.632 29.072C190.52 29.056 190.408 29 190.296 28.904V28.952H190.152C190.104 28.936 190.064 28.928 190.032 28.928C190.016 28.928 189.968 28.96 189.888 29.024C189.824 29.104 189.776 29.144 189.744 29.144ZM193.344 24.584C193.296 24.616 193.256 24.592 193.224 24.512L193.248 24.32H193.392C193.392 24.352 193.384 24.392 193.368 24.44C193.368 24.472 193.36 24.52 193.344 24.584ZM184.104 26.6H184.152V26.504H184.104V26.6ZM200.706 25.976C200.706 25.976 200.714 25.976 200.73 25.976C200.714 25.928 200.626 25.864 200.466 25.784C200.482 25.752 200.49 25.728 200.49 25.712C200.49 25.68 200.49 25.664 200.49 25.664C200.49 25.648 200.482 25.632 200.466 25.616V25.568C200.466 25.504 200.442 25.424 200.394 25.328V25.016C200.458 24.984 200.498 24.912 200.514 24.8C200.514 24.768 200.522 24.744 200.538 24.728C200.522 24.664 200.514 24.616 200.514 24.584C200.514 24.552 200.514 24.528 200.514 24.512L200.586 24.416C200.634 24.224 200.658 24.032 200.658 23.84L200.73 23.744L200.85 23.216L200.994 22.856L201.09 22.784C201.09 22.656 201.122 22.52 201.186 22.376V22.328C201.17 22.312 201.154 22.304 201.138 22.304C201.106 22.304 200.866 22.456 200.418 22.76C200.338 22.824 200.258 22.856 200.178 22.856H200.154C200.154 22.84 200.146 22.832 200.13 22.832C200.114 22.832 200.066 22.864 199.986 22.928C199.922 22.992 199.874 23.024 199.842 23.024C199.858 23.008 199.834 22.992 199.77 22.976C199.834 22.928 199.866 22.888 199.866 22.856C200.17 22.792 200.418 22.624 200.61 22.352C200.658 22.336 200.754 22.272 200.898 22.16C200.93 22.144 200.97 22.128 201.018 22.112C201.066 22.096 201.106 22.048 201.138 21.968L201.258 21.872C201.258 21.872 201.282 21.864 201.33 21.848C201.378 21.816 201.442 21.768 201.522 21.704C201.522 21.64 201.57 21.536 201.666 21.392C201.73 21.312 201.77 21.192 201.786 21.032C201.85 21 201.882 20.96 201.882 20.912C201.898 20.864 201.914 20.808 201.93 20.744C202.026 20.568 202.074 20.416 202.074 20.288H202.17C202.186 20.288 202.194 20.28 202.194 20.264C202.194 20.264 202.186 20.248 202.17 20.216C202.17 20.184 202.17 20.136 202.17 20.072C202.17 20.008 202.21 19.88 202.29 19.688C202.37 19.496 202.41 19.408 202.41 19.424C202.442 19.376 202.474 19.352 202.506 19.352C202.554 19.352 202.586 19.392 202.602 19.472C202.618 19.552 202.626 19.6 202.626 19.616C202.69 19.6 202.722 19.536 202.722 19.424V19.16C202.738 19.144 202.77 19.112 202.818 19.064C202.866 19 202.898 18.856 202.914 18.632C203.074 18.472 203.234 18.144 203.394 17.648C203.442 17.648 203.474 17.656 203.49 17.672V17.576C203.57 17.432 203.666 17.264 203.778 17.072C203.906 16.864 204.05 16.64 204.21 16.4L204.354 16.088C204.434 15.912 204.546 15.712 204.69 15.488C204.834 15.264 205.002 15.024 205.194 14.768C205.274 14.688 205.37 14.616 205.482 14.552C205.514 14.52 205.546 14.472 205.578 14.408C205.626 14.344 205.682 14.272 205.746 14.192C205.794 14.208 205.826 14.224 205.842 14.24C205.826 14.24 205.89 14.184 206.034 14.072C206.114 14.04 206.186 13.984 206.25 13.904L206.226 13.784L206.322 13.472C206.338 13.472 206.37 13.456 206.418 13.424C206.466 13.376 206.498 13.352 206.514 13.352C206.546 13.352 206.578 13.352 206.61 13.352C206.658 13.336 206.698 13.328 206.73 13.328C207.098 13.328 207.33 13.504 207.426 13.856L207.546 14.264L207.354 14.36L207.018 14.696C206.97 14.712 206.914 14.752 206.85 14.816C206.786 14.864 206.714 14.912 206.634 14.96L206.154 15.392C206.154 15.408 206.138 15.448 206.106 15.512C206.058 15.528 205.962 15.592 205.818 15.704C205.77 15.816 205.666 15.944 205.506 16.088C205.474 16.2 205.426 16.288 205.362 16.352C205.058 16.752 204.77 17.088 204.498 17.36C204.482 17.36 204.458 17.392 204.426 17.456C204.394 17.504 204.33 17.576 204.234 17.672C204.218 17.688 204.21 17.744 204.21 17.84C204.178 17.824 204.13 17.864 204.066 17.96C204.002 18.056 203.97 18.104 203.97 18.104V18.2C203.906 18.264 203.85 18.344 203.802 18.44C203.818 18.488 203.826 18.528 203.826 18.56C203.73 18.624 203.634 18.704 203.538 18.8L203.298 19.328C203.298 19.392 203.29 19.448 203.274 19.496C203.226 19.496 203.138 19.544 203.01 19.64C202.93 19.832 202.898 19.96 202.914 20.024C202.818 20.056 202.754 20.112 202.722 20.192L202.482 20.72C202.482 20.752 202.506 20.792 202.554 20.84C202.634 20.776 202.722 20.696 202.818 20.6C202.93 20.488 203.05 20.368 203.178 20.24C203.21 20.208 203.21 20.184 203.178 20.168C203.306 20.088 203.426 20 203.538 19.904C203.666 19.808 203.738 19.688 203.754 19.544C203.85 19.448 203.906 19.376 203.922 19.328C203.938 19.344 203.954 19.352 203.97 19.352C204.066 19.336 204.122 19.296 204.138 19.232C204.154 19.152 204.242 19.088 204.402 19.04C204.578 18.832 204.69 18.672 204.738 18.56L204.882 18.248C204.882 18.2 204.89 18.168 204.906 18.152C205.002 18.104 205.042 18.08 205.026 18.08C205.042 18.08 205.058 18.088 205.074 18.104H205.122C205.202 18.104 205.266 18.04 205.314 17.912L205.41 17.864C205.41 17.8 205.466 17.728 205.578 17.648C205.706 17.552 205.794 17.472 205.842 17.408V17.336L206.25 16.712C206.234 16.696 206.226 16.632 206.226 16.52L206.586 16.304C206.634 16.112 206.754 15.912 206.946 15.704C206.93 15.688 206.922 15.664 206.922 15.632C206.922 15.6 206.946 15.56 206.994 15.512C207.042 15.464 207.114 15.44 207.21 15.44C207.21 15.424 207.218 15.408 207.234 15.392L207.306 15.152C207.562 14.784 207.69 14.512 207.69 14.336C207.722 14.32 207.77 14.264 207.834 14.168C207.946 14.168 208.01 14.056 208.026 13.832C208.09 13.72 208.146 13.592 208.194 13.448C208.242 13.304 208.298 13.144 208.362 12.968C208.442 12.84 208.482 12.672 208.482 12.464C208.514 12.464 208.53 12.448 208.53 12.416C208.53 12.384 208.506 12.344 208.458 12.296C208.426 12.232 208.41 12.2 208.41 12.2C208.394 12.168 208.386 12.136 208.386 12.104C208.386 12.008 208.442 11.936 208.554 11.888C208.554 11.872 208.562 11.864 208.578 11.864L208.65 12.104C208.666 12.12 208.674 12.2 208.674 12.344C208.658 12.52 208.642 12.656 208.626 12.752C208.626 12.832 208.61 12.912 208.578 12.992C208.562 13.072 208.514 13.216 208.434 13.424C208.418 13.472 208.434 13.512 208.482 13.544L208.41 13.76C208.394 13.824 208.362 13.912 208.314 14.024C208.266 14.136 208.218 14.264 208.17 14.408C208.09 14.456 207.994 14.632 207.882 14.936C207.866 14.936 207.85 14.928 207.834 14.912C207.754 14.992 207.738 15.072 207.786 15.152V15.224C207.706 15.304 207.634 15.408 207.57 15.536C207.506 15.648 207.442 15.776 207.378 15.92C207.314 15.984 207.234 16.128 207.138 16.352C207.138 16.352 207.122 16.368 207.09 16.4C207.01 16.432 206.866 16.592 206.658 16.88C206.594 16.992 206.53 17.096 206.466 17.192C206.402 17.288 206.338 17.384 206.274 17.48C206.258 17.48 206.234 17.496 206.202 17.528C206.17 17.544 206.138 17.552 206.106 17.552C206.09 17.552 206.082 17.544 206.082 17.528H206.058C206.01 17.528 205.938 17.6 205.842 17.744V17.888L205.674 18.128C205.626 18.128 205.586 18.152 205.554 18.2L205.05 18.704C205.05 18.704 205.034 18.752 205.002 18.848C204.922 18.96 204.738 19.104 204.45 19.28L204.306 19.448L203.73 20.048H203.658L203.226 20.552C203.034 20.68 202.922 20.784 202.89 20.864C202.778 20.912 202.682 20.976 202.602 21.056C202.522 21.136 202.45 21.208 202.386 21.272H202.338C201.922 21.688 201.666 22.176 201.57 22.736C201.538 22.768 201.474 22.912 201.378 23.168C201.346 23.248 201.306 23.352 201.258 23.48C201.226 23.592 201.186 23.728 201.138 23.888C201.122 23.92 201.098 23.976 201.066 24.056C201.034 24.12 201.002 24.192 200.97 24.272C200.97 24.304 200.97 24.344 200.97 24.392C200.97 24.424 200.962 24.472 200.946 24.536L200.85 24.728C200.786 24.84 200.746 24.96 200.73 25.088C200.714 25.216 200.706 25.32 200.706 25.4C200.706 25.528 200.762 25.592 200.874 25.592C200.954 25.592 201.026 25.568 201.09 25.52C201.09 25.472 201.074 25.432 201.042 25.4C201.058 25.4 201.082 25.392 201.114 25.376C201.162 25.344 201.226 25.288 201.306 25.208C201.306 25.208 201.314 25.2 201.33 25.184C201.362 25.168 201.386 25.144 201.402 25.112C201.482 25.08 201.626 24.952 201.834 24.728C201.994 24.552 202.074 24.448 202.074 24.416C202.074 24.416 202.09 24.432 202.122 24.464L202.266 24.32C202.298 24.32 202.386 24.24 202.53 24.08L202.866 23.792C202.866 23.792 202.874 23.792 202.89 23.792C202.906 23.792 202.922 23.784 202.938 23.768C202.954 23.72 203.058 23.6 203.25 23.408C203.282 23.392 203.322 23.368 203.37 23.336C203.434 23.304 203.506 23.264 203.586 23.216C203.602 23.12 203.634 23.064 203.682 23.048C203.73 23.032 203.826 22.984 203.97 22.904C204.13 22.824 204.218 22.784 204.234 22.784C204.25 22.784 204.258 22.792 204.258 22.808H204.306C204.338 22.808 204.37 22.784 204.402 22.736C204.45 22.688 204.53 22.656 204.642 22.64C204.658 22.576 204.706 22.544 204.786 22.544C204.866 22.544 204.914 22.576 204.93 22.64C204.946 22.64 204.962 22.632 204.978 22.616C205.01 22.6 205.034 22.592 205.05 22.592C205.082 22.592 205.106 22.6 205.122 22.616C205.138 22.632 205.154 22.64 205.17 22.64C205.186 22.64 205.194 22.632 205.194 22.616C205.21 22.6 205.234 22.592 205.266 22.592C205.218 22.592 205.29 22.632 205.482 22.712C205.498 22.76 205.546 22.848 205.626 22.976C205.722 23.104 205.826 23.192 205.938 23.24C205.938 23.288 206.034 23.408 206.226 23.6C206.258 23.632 206.29 23.68 206.322 23.744C206.37 23.808 206.426 23.88 206.49 23.96C206.57 24.008 206.634 24.072 206.682 24.152L206.778 24.32C206.778 24.336 206.818 24.368 206.898 24.416C207.026 24.528 207.194 24.648 207.402 24.776C207.418 24.792 207.434 24.816 207.45 24.848C207.482 24.864 207.506 24.872 207.522 24.872C207.538 24.872 207.562 24.864 207.594 24.848C207.61 24.912 207.674 24.968 207.786 25.016H207.81C207.81 25 207.818 24.992 207.834 24.992C207.85 24.992 207.874 25.008 207.906 25.04C207.938 25.072 207.978 25.088 208.026 25.088H208.122C208.17 25.088 208.178 25.064 208.146 25.016L208.266 25.04L208.314 25.088C208.426 25.008 208.466 24.944 208.434 24.896C208.546 24.912 208.61 24.912 208.626 24.896C208.674 24.912 208.698 24.96 208.698 25.04C208.698 25.072 208.642 25.168 208.53 25.328C208.482 25.344 208.41 25.376 208.314 25.424C208.218 25.472 208.162 25.496 208.146 25.496C208.13 25.496 208.098 25.488 208.05 25.472C208.002 25.44 207.962 25.432 207.93 25.448L207.666 25.496C207.65 25.496 207.594 25.488 207.498 25.472C207.418 25.456 207.362 25.448 207.33 25.448C207.25 25.448 207.018 25.328 206.634 25.088L206.37 24.848C206.29 24.816 206.13 24.704 205.89 24.512C205.618 24.288 205.498 24.176 205.53 24.176C205.498 24.192 205.474 24.2 205.458 24.2C205.458 24.152 205.45 24.112 205.434 24.08C205.178 23.92 205.05 23.792 205.05 23.696C205.05 23.68 205.026 23.672 204.978 23.672C204.93 23.608 204.882 23.576 204.834 23.576C204.802 23.576 204.762 23.584 204.714 23.6C204.666 23.616 204.634 23.624 204.618 23.624C204.57 23.624 204.498 23.56 204.402 23.432C204.37 23.432 204.322 23.432 204.258 23.432C204.194 23.416 204.122 23.4 204.042 23.384C203.962 23.464 203.906 23.544 203.874 23.624C203.698 23.704 203.618 23.784 203.634 23.864C203.362 23.928 203.17 24.016 203.058 24.128C203.058 24.16 203.074 24.176 203.106 24.176C203.026 24.24 202.97 24.288 202.938 24.32C202.906 24.352 202.866 24.368 202.818 24.368L202.53 24.56C202.498 24.592 202.45 24.632 202.386 24.68C202.338 24.728 202.274 24.784 202.194 24.848C202.194 24.848 202.162 24.864 202.098 24.896C202.05 24.912 201.962 24.952 201.834 25.016L201.474 25.472C201.426 25.488 201.362 25.552 201.282 25.664C201.234 25.68 201.154 25.736 201.042 25.832C200.946 25.928 200.874 25.976 200.826 25.976C200.794 25.976 200.778 25.968 200.778 25.952C200.794 25.936 200.794 25.928 200.778 25.928C200.746 25.928 200.73 25.944 200.73 25.976C200.73 25.976 200.722 25.976 200.706 25.976ZM199.362 23.288C199.362 23.256 199.37 23.232 199.386 23.216C199.418 23.184 199.49 23.152 199.602 23.12C199.65 23.056 199.698 23.024 199.746 23.024C199.762 23.024 199.786 23.04 199.818 23.072C199.754 23.088 199.634 23.16 199.458 23.288H199.362ZM210.148 26.096C210.1 26.096 210.06 26.056 210.028 25.976C210.012 25.992 210.004 26.008 210.004 26.024H209.86L209.788 25.88C209.772 25.896 209.764 25.912 209.764 25.928C209.748 25.928 209.724 25.912 209.692 25.88L209.62 25.928C209.54 25.848 209.452 25.744 209.356 25.616C209.276 25.472 209.228 25.328 209.212 25.184C209.196 25.168 209.164 25.16 209.116 25.16V24.968C209.18 24.952 209.22 24.824 209.236 24.584L209.308 24.488V24.368L209.26 24.32L209.356 24.248L209.62 23.504L209.86 23.24V23.168C210.052 23.04 210.172 22.904 210.22 22.76C210.284 22.76 210.316 22.728 210.316 22.664C210.524 22.6 210.604 22.496 210.556 22.352C210.588 22.336 210.604 22.328 210.604 22.328C210.62 22.328 210.628 22.328 210.628 22.328C210.644 22.328 210.676 22.344 210.724 22.376C210.772 22.392 210.804 22.4 210.82 22.4C210.852 22.4 210.876 22.392 210.892 22.376C210.924 22.36 210.948 22.352 210.964 22.352C211.028 22.416 211.068 22.448 211.084 22.448C211.164 22.448 211.244 22.416 211.324 22.352C211.324 22.368 211.332 22.392 211.348 22.424C211.364 22.456 211.372 22.48 211.372 22.496C211.372 22.576 211.34 22.648 211.276 22.712L211.348 22.808C211.348 22.92 211.252 23.096 211.06 23.336C210.868 23.544 210.732 23.664 210.652 23.696C210.636 23.712 210.62 23.744 210.604 23.792C210.588 23.824 210.564 23.856 210.532 23.888H210.484L210.436 23.84L210.196 24.152C210.196 24.216 210.132 24.336 210.004 24.512C209.956 24.528 209.916 24.536 209.884 24.536C209.868 24.52 209.86 24.52 209.86 24.536V24.704C209.94 24.848 209.972 24.944 209.956 24.992C209.908 25.088 209.884 25.144 209.884 25.16C209.884 25.144 209.932 25.208 210.028 25.352C210.012 25.368 210.004 25.424 210.004 25.52C210.132 25.536 210.3 25.608 210.508 25.736H210.604C210.668 25.736 210.708 25.728 210.724 25.712C210.756 25.68 210.772 25.664 210.772 25.664C210.788 25.664 210.796 25.672 210.796 25.688H210.82C210.836 25.688 210.876 25.656 210.94 25.592C211.004 25.528 211.044 25.496 211.06 25.496C211.076 25.496 211.084 25.504 211.084 25.52C211.084 25.536 211.092 25.544 211.108 25.544C211.124 25.544 211.156 25.536 211.204 25.52C211.252 25.504 211.292 25.496 211.324 25.496V25.424C211.308 25.408 211.308 25.4 211.324 25.4V25.424C211.34 25.44 211.396 25.464 211.492 25.496L211.468 25.4C211.516 25.384 211.556 25.336 211.588 25.256C211.668 25.256 211.74 25.248 211.804 25.232C211.884 25.2 211.924 25.16 211.924 25.112H212.116C212.116 25.144 212.132 25.16 212.164 25.16C212.324 25.16 212.412 25.056 212.428 24.848L212.572 24.704C212.572 24.704 212.588 24.72 212.62 24.752C212.684 24.688 212.74 24.656 212.788 24.656C212.804 24.656 212.812 24.664 212.812 24.68C212.828 24.696 212.852 24.704 212.884 24.704C212.932 24.704 212.98 24.68 213.028 24.632C213.076 24.584 213.1 24.552 213.1 24.536C213.132 24.504 213.172 24.472 213.22 24.44C213.268 24.408 213.308 24.36 213.34 24.296L213.484 24.368C213.468 24.352 213.636 24.208 213.988 23.936C214.148 23.872 214.228 23.824 214.228 23.792C214.292 23.792 214.356 23.768 214.42 23.72V23.648L214.756 23.48V23.624H214.636C214.62 23.64 214.612 23.688 214.612 23.768L214.06 24.2C214.028 24.2 214.02 24.192 214.036 24.176H214.012C214.028 24.176 213.956 24.256 213.796 24.416C213.764 24.448 213.7 24.464 213.604 24.464C213.396 24.656 213.316 24.744 213.364 24.728C213.348 24.712 213.332 24.704 213.316 24.704C213.3 24.72 213.292 24.752 213.292 24.8H213.268C213.204 24.8 213.108 24.864 212.98 24.992C212.964 24.992 212.94 24.992 212.908 24.992C212.876 24.992 212.844 25 212.812 25.016C212.748 25.064 212.668 25.128 212.572 25.208C212.492 25.272 212.396 25.352 212.284 25.448H212.14C212.028 25.544 211.948 25.592 211.9 25.592H211.828C211.812 25.576 211.796 25.568 211.78 25.568C211.764 25.568 211.7 25.6 211.588 25.664C211.492 25.728 211.428 25.76 211.396 25.76H211.372C211.372 25.744 211.364 25.736 211.348 25.736C211.332 25.736 211.268 25.768 211.156 25.832C211.06 25.88 211.004 25.904 210.988 25.904H210.964C210.964 25.888 210.948 25.88 210.916 25.88C210.9 25.88 210.876 25.888 210.844 25.904C210.828 25.92 210.788 25.936 210.724 25.952C210.564 26.032 210.516 26.072 210.58 26.072C210.564 26.072 210.516 26.064 210.436 26.048C210.356 26.032 210.3 26.024 210.268 26.024L210.148 26.096ZM214.948 23.432C214.932 23.432 214.916 23.424 214.9 23.408C214.9 23.376 214.892 23.36 214.876 23.36L215.212 23C215.276 23 215.308 23.016 215.308 23.048C215.308 23.112 215.252 23.192 215.14 23.288C215.044 23.368 214.98 23.416 214.948 23.432ZM211.804 21.512C211.676 21.512 211.5 21.424 211.276 21.248C211.084 21.056 210.988 20.904 210.988 20.792C211.18 20.712 211.388 20.624 211.612 20.528C211.852 20.416 212.1 20.296 212.356 20.168H212.38C212.316 20.344 212.228 20.488 212.116 20.6L212.164 20.768V20.912L212.044 21.056C212.044 21.36 211.964 21.512 211.804 21.512ZM216.24 34.712C216.208 34.712 216.168 34.696 216.12 34.664C216.072 34.632 216.04 34.616 216.024 34.616C215.976 34.616 215.952 34.624 215.952 34.64H215.88C215.752 34.512 215.584 34.264 215.376 33.896V33.752L215.28 33.392C215.264 33.36 215.232 33.32 215.184 33.272C215.152 33.24 215.12 33.192 215.088 33.128C215.12 33.032 215.12 32.896 215.088 32.72C215.056 32.704 215.008 32.648 214.944 32.552C214.976 32.424 214.976 32.216 214.944 31.928L214.776 31.688C214.76 31.672 214.752 31.648 214.752 31.616L214.872 31.064C214.872 31.08 214.856 31.04 214.824 30.944C214.824 30.912 214.816 30.88 214.8 30.848C214.8 30.832 214.8 30.816 214.8 30.8C214.8 30.752 214.816 30.664 214.848 30.536C214.832 30.552 214.824 30.52 214.824 30.44C214.84 30.44 214.848 30.424 214.848 30.392V29.72C214.848 29.672 214.856 29.64 214.872 29.624V29.264C214.888 29.264 214.912 29.176 214.944 29L215.088 28.256C215.088 28.224 215.072 28.192 215.04 28.16V27.992L215.136 27.92V27.728L215.184 27.68C215.184 27.536 215.168 27.448 215.136 27.416C215.152 27.4 215.168 27.384 215.184 27.368C215.2 27.352 215.216 27.336 215.232 27.32V27.176L215.328 27.104C215.36 26.848 215.368 26.712 215.352 26.696H215.4L215.352 26.672C215.4 26.56 215.408 26.432 215.376 26.288C215.36 26.16 215.36 26.088 215.376 26.072C215.296 26.04 215.248 26 215.232 25.952L215.112 25.928L215.088 25.952V26C215.072 26.048 215.008 26.072 214.896 26.072C214.768 26.04 214.672 25.96 214.608 25.832L214.512 25.808C214.544 25.776 214.52 25.744 214.44 25.712C214.36 25.664 214.296 25.576 214.248 25.448C214.28 25.4 214.328 25.352 214.392 25.304L214.992 25.424C215.024 25.376 215.056 25.352 215.088 25.352C215.152 25.352 215.208 25.384 215.256 25.448H215.4C215.432 25.336 215.48 25.248 215.544 25.184C215.56 25.168 215.568 25.128 215.568 25.064L215.712 24.632C215.68 24.552 215.68 24.448 215.712 24.32C215.728 24.304 215.76 24.232 215.808 24.104V23.936C215.824 23.904 215.84 23.872 215.856 23.84C215.872 23.808 215.896 23.768 215.928 23.72V23.48L215.976 23.408C215.96 23.36 215.952 23.264 215.952 23.12L216.096 22.76C216.096 22.744 216.136 22.712 216.216 22.664C216.264 22.472 216.272 22.36 216.24 22.328C216.304 22.28 216.336 22.216 216.336 22.136C216.352 22.04 216.392 21.88 216.456 21.656C216.472 21.64 216.464 21.632 216.432 21.632L216.528 21.512C216.512 21.368 216.288 21.232 215.856 21.104C215.84 21.088 215.784 21.048 215.688 20.984C215.592 20.904 215.52 20.864 215.472 20.864C215.44 20.864 215.416 20.872 215.4 20.888H215.328L215.304 20.792C215.24 20.744 215.168 20.672 215.088 20.576V20.408C215.072 20.376 215.056 20.36 215.04 20.36C215.072 20.312 215.112 20.256 215.16 20.192C215.144 20.176 215.136 20.136 215.136 20.072C215.184 20.008 215.232 19.96 215.28 19.928C215.328 19.88 215.496 19.84 215.784 19.808C215.8 19.808 215.816 19.8 215.832 19.784C215.848 19.784 215.856 19.792 215.856 19.808C215.872 19.824 215.888 19.832 215.904 19.832C215.92 19.832 215.928 19.824 215.928 19.808C215.944 19.776 215.96 19.76 215.976 19.76C216.072 19.76 216.152 19.784 216.216 19.832C216.232 19.864 216.352 19.976 216.576 20.168H216.744C216.744 20.136 216.744 20.088 216.744 20.024C216.744 19.96 216.752 19.888 216.768 19.808C216.768 19.792 216.792 19.736 216.84 19.64C216.824 19.624 216.816 19.56 216.816 19.448C216.864 19.224 216.888 19.136 216.888 19.184C216.888 19.168 216.88 19.152 216.864 19.136C216.864 19.056 216.856 18.976 216.84 18.896C216.84 18.816 216.832 18.728 216.816 18.632C216.832 18.6 216.84 18.576 216.84 18.56C216.84 18.528 216.84 18.512 216.84 18.512C216.744 18.336 216.696 18.248 216.696 18.248C216.696 18.152 216.736 18.104 216.816 18.104C216.88 18.104 216.92 18.128 216.936 18.176C216.984 18.352 217.04 18.504 217.104 18.632C217.184 18.76 217.224 18.912 217.224 19.088L217.2 19.136C217.184 19.152 217.192 19.184 217.224 19.232L217.152 20.096C217.152 20.112 217.136 20.144 217.104 20.192C217.088 20.24 217.08 20.272 217.08 20.288C217.08 20.416 217.136 20.512 217.248 20.576C217.312 20.608 217.352 20.624 217.368 20.624C217.384 20.608 217.4 20.6 217.416 20.6C217.416 20.68 217.504 20.784 217.68 20.912H217.704C217.704 20.896 217.712 20.888 217.728 20.888C217.776 20.888 217.848 20.928 217.944 21.008C218.04 21.088 218.088 21.16 218.088 21.224L218.544 21.584L218.496 21.704L218.568 21.776C218.616 21.872 218.696 21.92 218.808 21.92C218.824 21.968 218.848 22.032 218.88 22.112C218.912 22.176 218.944 22.248 218.976 22.328C219.072 22.344 219.128 22.36 219.144 22.376C219.16 22.36 219.176 22.352 219.192 22.352L219.24 22.4V22.712C219.256 22.728 219.32 22.736 219.432 22.736L219.528 22.928C219.544 22.96 219.528 22.992 219.48 23.024L219.552 23.096C219.568 23.096 219.576 23.08 219.576 23.048C219.608 23.064 219.632 23.08 219.648 23.096C219.664 23.112 219.68 23.128 219.696 23.144C219.76 23.432 219.864 23.584 220.008 23.6C220.008 23.632 220 23.688 219.984 23.768C219.968 23.848 219.96 23.904 219.96 23.936L220.176 24.2L220.2 24.464C220.2 24.56 220.208 24.632 220.224 24.68L220.896 24.56L221.256 24.488C221.288 24.456 221.328 24.432 221.376 24.416C221.776 24.368 222.24 24.224 222.768 23.984C222.784 24 222.808 24.008 222.84 24.008C222.872 24.008 222.904 24.016 222.936 24.032L223.056 23.912C223.264 23.8 223.392 23.784 223.44 23.864C223.456 23.912 223.36 23.992 223.152 24.104C223.04 24.168 222.896 24.224 222.72 24.272C222.544 24.32 222.208 24.432 221.712 24.608L221.16 24.776L220.272 24.944C220.288 24.992 220.296 25.032 220.296 25.064C220.296 25.096 220.296 25.128 220.296 25.16L220.248 25.208V25.424C220.2 25.424 220.168 25.456 220.152 25.52L219.912 25.64V25.808C219.896 25.856 219.848 25.904 219.768 25.952H219.648C219.488 26.032 219.424 26.072 219.456 26.072H219.432C219.432 26.056 219.424 26.048 219.408 26.048C219.392 26.048 219.328 26.072 219.216 26.12C219.12 26.168 219.064 26.192 219.048 26.192C219.016 26.192 218.984 26.184 218.952 26.168C218.936 26.152 218.92 26.144 218.904 26.144C218.872 26.144 218.816 26.16 218.736 26.192C218.672 26.224 218.64 26.24 218.64 26.24C218.624 26.24 218.616 26.24 218.616 26.24H218.64C218.624 26.224 218.56 26.2 218.448 26.168C218.336 26.152 218.264 26.144 218.232 26.144C218.216 26.144 218.2 26.152 218.184 26.168C218.184 26.184 218.176 26.192 218.16 26.192C218.144 26.192 218.12 26.184 218.088 26.168C218.072 26.152 218.048 26.144 218.016 26.144C218 26.144 217.984 26.152 217.968 26.168H217.92C217.936 26.168 217.904 26.144 217.824 26.096C217.792 26.096 217.744 26.096 217.68 26.096C217.616 26.096 217.544 26.088 217.464 26.072L217.152 26.144H216.888C216.872 26.144 216.848 26.128 216.816 26.096C216.816 26.096 216.752 26.096 216.624 26.096H216.504C216.456 26.096 216.4 26.096 216.336 26.096C216.288 26.096 216.224 26.104 216.144 26.12C216.128 26.184 216.112 26.248 216.096 26.312C216.08 26.392 216.064 26.488 216.048 26.6C216.064 26.648 216.064 26.704 216.048 26.768C216 26.816 215.968 26.864 215.952 26.912C215.936 26.976 215.92 27.032 215.904 27.08C215.904 27.144 215.904 27.208 215.904 27.272C215.904 27.32 215.936 27.36 216 27.392C216.064 27.424 216.096 27.472 216.096 27.536C216.096 27.536 216.088 27.56 216.072 27.608C216.056 27.656 216.032 27.72 216 27.8C216 27.832 215.984 27.872 215.952 27.92C215.92 27.984 215.872 28.072 215.808 28.184V28.28C215.808 28.328 215.8 28.376 215.784 28.424C215.784 28.488 215.776 28.56 215.76 28.64C215.76 28.704 215.752 28.776 215.736 28.856C215.736 28.952 215.736 29.056 215.736 29.168C215.736 29.28 215.736 29.392 215.736 29.504C215.752 29.632 215.76 29.76 215.76 29.888V29.912C215.76 29.944 215.744 29.984 215.712 30.032C215.696 30.08 215.688 30.12 215.688 30.152C215.688 30.216 215.704 30.296 215.736 30.392C215.704 30.44 215.68 30.544 215.664 30.704C215.696 30.8 215.696 30.936 215.664 31.112C215.6 31.32 215.568 31.392 215.568 31.328V31.832C215.616 31.848 215.664 31.848 215.712 31.832C215.68 31.88 215.656 32.056 215.64 32.36C215.624 32.36 215.616 32.376 215.616 32.408V33.248L215.712 33.368H215.64C215.624 33.384 215.616 33.424 215.616 33.488C215.616 33.584 215.648 33.712 215.712 33.872C215.792 34.032 215.864 34.12 215.928 34.136C215.944 34.136 215.936 34.176 215.904 34.256L215.952 34.328C215.984 34.296 216 34.264 216 34.232H216.072C216.2 34.36 216.288 34.424 216.336 34.424C216.368 34.424 216.4 34.416 216.432 34.4H216.504V34.592C216.44 34.656 216.408 34.688 216.408 34.688H216.312C216.296 34.704 216.272 34.712 216.24 34.712ZM215.04 20.36C215.04 20.344 215.04 20.344 215.04 20.36V20.36ZM216.336 25.352C216.688 25.32 217.008 25.288 217.296 25.256C217.6 25.208 217.88 25.152 218.136 25.088L218.736 24.944C218.8 24.944 218.864 24.944 218.928 24.944C219.008 24.928 219.104 24.912 219.216 24.896C219.232 24.912 219.264 24.92 219.312 24.92L219.744 24.824L219.912 24.776C219.88 24.68 219.864 24.632 219.864 24.632C219.816 24.648 219.752 24.544 219.672 24.32C219.672 24.336 219.616 24.224 219.504 23.984L219.336 23.744L219.168 23.6C219.056 23.52 218.936 23.424 218.808 23.312C218.696 23.184 218.568 23.056 218.424 22.928C218.408 22.864 218.368 22.808 218.304 22.76C218.24 22.696 218.192 22.624 218.16 22.544C218.08 22.48 217.944 22.384 217.752 22.256C217.56 22.112 217.312 21.96 217.008 21.8V21.824H216.912V21.872C216.912 21.872 216.88 21.944 216.816 22.088C216.768 22.232 216.736 22.328 216.72 22.376C216.736 22.408 216.744 22.472 216.744 22.568L216.624 22.88C216.56 23.216 216.512 23.504 216.48 23.744V23.888C216.416 24.08 216.384 24.248 216.384 24.392C216.384 24.6 216.392 24.696 216.408 24.68V24.656C216.408 24.672 216.408 24.68 216.408 24.68L216.336 24.824V25.352ZM218.04 25.736L218.184 25.664L218.232 25.712C218.264 25.68 218.288 25.664 218.304 25.664H218.664L218.856 25.616C218.904 25.616 218.944 25.632 218.976 25.664C218.992 25.6 219.024 25.568 219.072 25.568C219.104 25.6 219.2 25.632 219.36 25.664C219.392 25.632 219.416 25.608 219.432 25.592C219.464 25.576 219.48 25.568 219.48 25.568C219.496 25.568 219.504 25.576 219.504 25.592H219.552C219.584 25.592 219.616 25.568 219.648 25.52C219.696 25.472 219.768 25.44 219.864 25.424L219.96 25.208L219.888 25.16C219.936 25.08 219.968 25.032 219.984 25.016L219.312 25.136C219.152 25.152 218.888 25.208 218.52 25.304C218.168 25.4 217.712 25.528 217.152 25.688C217.216 25.688 217.28 25.688 217.344 25.688C217.424 25.688 217.504 25.68 217.584 25.664C217.584 25.68 217.664 25.688 217.824 25.688C217.968 25.688 218.04 25.704 218.04 25.736ZM214.032 25.424C214.016 25.408 214 25.392 213.984 25.376C213.984 25.36 213.968 25.344 213.936 25.328V25.208L214.032 25.136L214.176 25.304L214.032 25.424Z"
        fill="url(#paint0_linear_1149_99)" />
    <circle cx="172" cy="23" r="2" fill="#008ECC" />
    <path
        d="M7.392 31.12C6.464 31.12 5.416 31.04 4.248 30.88C3.608 30.8 3.168 30.632 2.928 30.376C2.688 30.12 2.584 29.704 2.616 29.128C2.728 27.544 2.992 25.592 3.408 23.272C3.824 20.936 4.328 18.688 4.92 16.528C5.032 16.128 5.256 15.848 5.592 15.688C5.928 15.528 6.368 15.448 6.912 15.448C7.888 15.448 8.376 15.72 8.376 16.264C8.376 16.488 8.328 16.744 8.232 17.032C7.816 18.312 7.4 20.032 6.984 22.192C6.568 24.336 6.272 26.384 6.096 28.336C6.576 28.384 7.12 28.408 7.728 28.408C10.528 28.408 12.616 27.56 13.992 25.864C15.384 24.168 16.08 21.904 16.08 19.072C16.08 17.168 15.536 15.696 14.448 14.656C13.36 13.616 11.824 13.096 9.84 13.096C8.56 13.096 7.288 13.296 6.024 13.696C4.776 14.096 3.648 14.624 2.64 15.28C2.432 15.424 2.208 15.496 1.968 15.496C1.696 15.496 1.48 15.384 1.32 15.16C1.16 14.92 1.08 14.632 1.08 14.296C1.08 13.912 1.144 13.6 1.272 13.36C1.4 13.104 1.616 12.872 1.92 12.664C3.024 11.912 4.32 11.344 5.808 10.96C7.296 10.56 8.728 10.36 10.104 10.36C12.056 10.36 13.744 10.704 15.168 11.392C16.592 12.064 17.688 13.056 18.456 14.368C19.224 15.68 19.608 17.264 19.608 19.12C19.608 21.536 19.128 23.648 18.168 25.456C17.208 27.248 15.808 28.64 13.968 29.632C12.128 30.624 9.936 31.12 7.392 31.12ZM31.9185 25.648C32.1265 25.648 32.2865 25.744 32.3985 25.936C32.5265 26.128 32.5905 26.392 32.5905 26.728C32.5905 27.368 32.4385 27.864 32.1345 28.216C31.5425 28.936 30.7025 29.6 29.6145 30.208C28.5425 30.816 27.3905 31.12 26.1585 31.12C24.4785 31.12 23.1745 30.664 22.2465 29.752C21.3185 28.84 20.8545 27.592 20.8545 26.008C20.8545 24.904 21.0865 23.88 21.5505 22.936C22.0145 21.976 22.6545 21.216 23.4705 20.656C24.3025 20.096 25.2385 19.816 26.2785 19.816C27.2065 19.816 27.9505 20.096 28.5105 20.656C29.0705 21.2 29.3505 21.944 29.3505 22.888C29.3505 23.992 28.9505 24.944 28.1505 25.744C27.3665 26.528 26.0305 27.152 24.1425 27.616C24.5425 28.352 25.3025 28.72 26.4225 28.72C27.1425 28.72 27.9585 28.472 28.8705 27.976C29.7985 27.464 30.5985 26.8 31.2705 25.984C31.4625 25.76 31.6785 25.648 31.9185 25.648ZM25.8705 22.168C25.2785 22.168 24.7745 22.512 24.3585 23.2C23.9585 23.888 23.7585 24.72 23.7585 25.696V25.744C24.7025 25.52 25.4465 25.184 25.9905 24.736C26.5345 24.288 26.8065 23.768 26.8065 23.176C26.8065 22.872 26.7185 22.632 26.5425 22.456C26.3825 22.264 26.1585 22.168 25.8705 22.168ZM35.1004 31.648C34.2684 31.648 33.6284 31.456 33.1804 31.072C32.7484 30.688 32.5324 30.256 32.5324 29.776C32.5324 29.36 32.6844 29 32.9884 28.696C33.2924 28.392 33.7404 28.24 34.3324 28.24C34.5404 28.24 34.7804 28.264 35.0524 28.312C35.3404 28.344 35.5564 28.368 35.7004 28.384C35.6844 27.968 35.5884 27.576 35.4124 27.208C35.2524 26.84 35.0444 26.488 34.7884 26.152C34.5324 25.8 34.2924 25.496 34.0684 25.24C33.5724 26.184 33.0764 26.968 32.5804 27.592C32.1004 28.216 31.5724 28.808 30.9964 29.368C30.7084 29.656 30.4044 29.8 30.0844 29.8C29.8284 29.8 29.6204 29.712 29.4604 29.536C29.3004 29.344 29.2204 29.112 29.2204 28.84C29.2204 28.52 29.3324 28.224 29.5564 27.952L29.8684 27.568C30.7484 26.48 31.4124 25.584 31.8604 24.88C32.1324 24.416 32.4524 23.8 32.8204 23.032C33.1884 22.248 33.5484 21.44 33.9004 20.608C34.2044 19.904 34.8364 19.552 35.7964 19.552C36.2444 19.552 36.5564 19.592 36.7324 19.672C36.9084 19.752 36.9964 19.88 36.9964 20.056C36.9964 20.152 36.9644 20.304 36.9004 20.512C36.8364 20.72 36.7484 20.928 36.6364 21.136C36.3484 21.712 36.2044 22.2 36.2044 22.6C36.2044 22.84 36.2844 23.104 36.4444 23.392C36.6204 23.68 36.8844 24.04 37.2364 24.472C37.7484 25.144 38.1324 25.72 38.3884 26.2C38.6604 26.664 38.7964 27.176 38.7964 27.736C38.7964 27.896 38.7804 28.12 38.7484 28.408C39.5324 28.104 40.4524 27.296 41.5084 25.984C41.7004 25.76 41.9164 25.648 42.1564 25.648C42.3644 25.648 42.5244 25.744 42.6364 25.936C42.7644 26.128 42.8284 26.392 42.8284 26.728C42.8284 27.336 42.6764 27.832 42.3724 28.216C41.5724 29.208 40.8044 29.888 40.0684 30.256C39.3484 30.608 38.4524 30.8 37.3804 30.832C36.7404 31.376 35.9804 31.648 35.1004 31.648ZM44.0226 18.232C43.3506 18.232 42.8466 18.08 42.5106 17.776C42.1746 17.456 42.0066 17.016 42.0066 16.456C42.0066 15.896 42.2226 15.432 42.6546 15.064C43.1026 14.68 43.6546 14.488 44.3106 14.488C44.9026 14.488 45.3826 14.632 45.7506 14.92C46.1186 15.208 46.3026 15.616 46.3026 16.144C46.3026 16.784 46.0946 17.296 45.6786 17.68C45.2626 18.048 44.7106 18.232 44.0226 18.232ZM43.8306 31.12C42.7906 31.12 42.0306 30.752 41.5506 30.016C41.0866 29.28 40.8546 28.304 40.8546 27.088C40.8546 26.368 40.9426 25.448 41.1186 24.328C41.3106 23.192 41.5506 22.136 41.8386 21.16C41.9826 20.648 42.1746 20.296 42.4146 20.104C42.6546 19.912 43.0386 19.816 43.5666 19.816C44.3826 19.816 44.7906 20.088 44.7906 20.632C44.7906 21.032 44.6386 21.96 44.3346 23.416C43.9506 25.176 43.7586 26.368 43.7586 26.992C43.7586 27.472 43.8226 27.84 43.9506 28.096C44.0786 28.352 44.2946 28.48 44.5986 28.48C44.8866 28.48 45.2466 28.28 45.6786 27.88C46.1106 27.48 46.6866 26.848 47.4066 25.984C47.5986 25.76 47.8146 25.648 48.0546 25.648C48.2626 25.648 48.4226 25.744 48.5346 25.936C48.6626 26.128 48.7266 26.392 48.7266 26.728C48.7266 27.368 48.5746 27.864 48.2706 28.216C46.6866 30.152 45.2066 31.12 43.8306 31.12ZM59.0728 25.696C59.2808 25.696 59.4408 25.8 59.5528 26.008C59.6808 26.2 59.7448 26.448 59.7448 26.752C59.7448 27.12 59.6888 27.408 59.5768 27.616C59.4648 27.824 59.2888 28.008 59.0488 28.168C57.6728 29.096 56.6648 29.784 56.0248 30.232L54.4888 31.264C53.8808 34.576 53.0808 37.176 52.0888 39.064C51.1128 40.968 49.8648 41.92 48.3448 41.92C47.5288 41.92 46.8648 41.664 46.3528 41.152C45.8408 40.656 45.5848 40 45.5848 39.184C45.5848 38.048 46.0328 36.824 46.9288 35.512C47.8248 34.216 49.5048 32.616 51.9688 30.712L52.1128 29.776C51.8408 30.208 51.4808 30.544 51.0328 30.784C50.6008 31.008 50.1688 31.12 49.7368 31.12C48.7448 31.12 47.9528 30.76 47.3608 30.04C46.7688 29.32 46.4728 28.376 46.4728 27.208C46.4728 25.928 46.7688 24.72 47.3608 23.584C47.9528 22.432 48.7368 21.512 49.7128 20.824C50.7048 20.12 51.7528 19.768 52.8568 19.768C53.2088 19.768 53.4408 19.84 53.5528 19.984C53.6808 20.112 53.7848 20.352 53.8648 20.704C54.1688 20.64 54.5208 20.608 54.9208 20.608C55.3208 20.608 55.6008 20.672 55.7608 20.8C55.9368 20.912 56.0248 21.144 56.0248 21.496C56.0248 21.688 56.0168 21.84 56.0008 21.952C55.9368 22.448 55.7368 23.704 55.4008 25.72C55.3368 26.104 55.2648 26.528 55.1848 26.992C55.1208 27.44 55.0488 27.92 54.9688 28.432C56.2008 27.472 57.3848 26.624 58.5208 25.888C58.7288 25.76 58.9128 25.696 59.0728 25.696ZM50.6008 28.696C50.9688 28.696 51.3208 28.472 51.6568 28.024C51.9928 27.576 52.2328 26.936 52.3768 26.104L53.1448 22C52.4888 22.016 51.8808 22.272 51.3208 22.768C50.7608 23.248 50.3128 23.888 49.9768 24.688C49.6408 25.488 49.4728 26.336 49.4728 27.232C49.4728 27.728 49.5688 28.096 49.7608 28.336C49.9688 28.576 50.2488 28.696 50.6008 28.696ZM48.6088 39.592C49.0088 39.592 49.4568 39.112 49.9528 38.152C50.4648 37.192 50.9528 35.664 51.4168 33.568C50.1848 34.624 49.2968 35.576 48.7528 36.424C48.2088 37.272 47.9368 38.016 47.9368 38.656C47.9368 38.928 47.9848 39.152 48.0808 39.328C48.1928 39.504 48.3688 39.592 48.6088 39.592ZM59.7154 31.12C59.1074 31.12 58.6754 30.8 58.4194 30.16C58.1794 29.52 58.0594 28.496 58.0594 27.088C58.0594 25.008 58.3554 23.032 58.9474 21.16C59.0914 20.696 59.3234 20.36 59.6434 20.152C59.9794 19.928 60.4434 19.816 61.0354 19.816C61.3554 19.816 61.5794 19.856 61.7074 19.936C61.8354 20.016 61.8994 20.168 61.8994 20.392C61.8994 20.648 61.7794 21.224 61.5394 22.12C61.3794 22.76 61.2514 23.32 61.1554 23.8C61.0594 24.28 60.9794 24.872 60.9154 25.576C61.4434 24.2 62.0354 23.08 62.6914 22.216C63.3474 21.352 63.9874 20.736 64.6114 20.368C65.2514 20 65.8354 19.816 66.3634 19.816C66.8754 19.816 67.2594 19.952 67.5154 20.224C67.7874 20.48 67.9234 20.864 67.9234 21.376C67.9234 21.792 67.8354 22.576 67.6594 23.728C67.4994 24.704 67.3714 25.632 67.2754 26.512C67.1794 27.376 67.1314 28.344 67.1314 29.416C67.1314 30.024 67.0034 30.464 66.7474 30.736C66.5074 30.992 66.1074 31.12 65.5474 31.12C65.0194 31.12 64.6354 30.984 64.3954 30.712C64.1554 30.44 64.0354 30.032 64.0354 29.488C64.0354 28.848 64.1474 27.792 64.3714 26.32C64.5634 25.04 64.6594 24.224 64.6594 23.872C64.6594 23.616 64.5714 23.488 64.3954 23.488C64.1874 23.488 63.8914 23.76 63.5074 24.304C63.1394 24.832 62.7554 25.536 62.3554 26.416C61.9714 27.296 61.6594 28.224 61.4194 29.2C61.2434 29.952 61.0354 30.464 60.7954 30.736C60.5714 30.992 60.2114 31.12 59.7154 31.12Z"
        fill="url(#paint1_linear_1149_99)" />
    <circle cx="77" cy="23" r="2" fill="#008ECC" />
    <path
        d="M95.512 26.208C94.536 27.072 93.528 27.888 92.488 28.656C91.464 29.424 90.608 29.968 89.92 30.288C89.872 30.464 89.8 30.592 89.704 30.672C89.608 30.768 89.464 30.816 89.272 30.816C89.128 30.816 89.024 30.784 88.96 30.72C88.896 30.672 88.864 30.576 88.864 30.432C88.864 30.336 88.896 29.936 88.96 29.232C89.04 28.528 89.08 27.704 89.08 26.76C89.08 25.16 89.056 23.712 89.008 22.416C88.976 20.912 88.96 19.856 88.96 19.248C88.96 18.304 89.056 17.528 89.248 16.92C89.392 16.536 89.648 16.344 90.016 16.344C90.144 16.344 90.256 16.368 90.352 16.416C90.464 16.464 90.52 16.536 90.52 16.632C90.504 16.712 90.416 16.992 90.256 17.472C90.112 17.952 90.04 18.408 90.04 18.84C90.04 20.04 90.064 21.352 90.112 22.776C90.144 24.6 90.16 25.864 90.16 26.568C90.16 27.768 90.152 28.488 90.136 28.728C90.712 28.504 91.488 28.04 92.464 27.336C93.456 26.632 94.288 25.992 94.96 25.416C96.352 24.168 97.368 23.048 98.008 22.056C98.648 21.064 98.968 20.032 98.968 18.96C98.968 17.664 98.152 16.776 96.52 16.296C94.904 15.816 92.784 15.576 90.16 15.576C89.36 15.576 88.288 15.672 86.944 15.864C86.688 15.88 86.288 15.96 85.744 16.104C85.504 16.184 85.336 16.224 85.24 16.224C85.112 16.224 84.992 16.12 84.88 15.912C84.752 15.704 84.688 15.496 84.688 15.288C84.688 15.208 84.744 15.136 84.856 15.072C84.968 14.992 85.144 14.936 85.384 14.904C86.344 14.776 87.16 14.68 87.832 14.616C88.52 14.552 89.32 14.52 90.232 14.52C93.144 14.52 95.512 14.848 97.336 15.504C99.176 16.16 100.096 17.272 100.096 18.84C100.096 20.088 99.736 21.272 99.016 22.392C98.296 23.512 97.128 24.784 95.512 26.208ZM111.167 24.24C111.167 24.528 110.951 25.16 110.519 26.136C110.103 27.112 109.463 28.016 108.599 28.848C107.751 29.68 106.703 30.096 105.455 30.096C104.431 30.096 103.575 29.776 102.887 29.136C102.199 28.496 101.855 27.512 101.855 26.184C101.855 24.936 102.143 23.704 102.719 22.488C103.295 21.256 104.047 20.256 104.975 19.488C105.903 18.704 106.863 18.312 107.855 18.312C108.447 18.312 108.943 18.448 109.343 18.72C109.759 18.976 109.967 19.352 109.967 19.848C109.967 20.408 109.647 20.952 109.007 21.48C108.383 22.008 107.567 22.472 106.559 22.872C105.551 23.272 104.511 23.56 103.439 23.736C103.247 24.472 103.151 25.192 103.151 25.896C103.151 26.824 103.367 27.544 103.799 28.056C104.247 28.568 104.879 28.824 105.695 28.824C106.927 28.824 107.927 28.384 108.695 27.504C109.463 26.624 110.103 25.632 110.615 24.528C110.647 24.464 110.703 24.344 110.783 24.168C110.863 23.976 110.935 23.88 110.999 23.88C111.111 23.88 111.167 24 111.167 24.24ZM107.567 19.296C106.959 19.296 106.375 19.496 105.815 19.896C105.255 20.296 104.783 20.776 104.399 21.336C104.031 21.896 103.791 22.392 103.679 22.824C104.415 22.744 105.191 22.536 106.007 22.2C106.823 21.864 107.503 21.496 108.047 21.096C108.607 20.696 108.887 20.368 108.887 20.112C108.887 19.856 108.751 19.656 108.479 19.512C108.223 19.368 107.919 19.296 107.567 19.296ZM124.124 18.48C123.292 19.424 122.516 20.776 121.796 22.536C121.076 24.296 120.508 26.2 120.092 28.248C120.044 28.488 119.964 28.968 119.852 29.688L119.732 30.528C119.684 30.784 119.572 30.984 119.396 31.128C119.236 31.272 118.948 31.344 118.532 31.344C118.452 31.344 118.18 30.864 117.716 29.904C117.252 28.928 116.764 27.88 116.252 26.76L115.22 24.504C114.596 23.144 114.076 22.08 113.66 21.312C113.244 20.544 112.94 20.16 112.748 20.16C112.684 20.16 112.628 20.2 112.58 20.28C112.548 20.36 112.508 20.4 112.46 20.4C112.38 20.4 112.308 20.368 112.244 20.304C112.196 20.224 112.172 20.144 112.172 20.064C112.172 19.856 112.284 19.584 112.508 19.248C112.748 18.912 112.98 18.744 113.204 18.744C113.364 18.744 113.484 18.776 113.564 18.84C113.644 18.904 113.716 18.976 113.78 19.056C113.844 19.136 113.892 19.2 113.924 19.248C114.308 19.728 114.972 20.992 115.916 23.04C116.252 23.76 117.084 25.64 118.412 28.68L118.964 29.952C118.964 29.536 119.044 28.864 119.204 27.936C119.556 26.048 120.084 24.176 120.788 22.32C121.492 20.464 122.316 18.912 123.26 17.664C123.452 17.408 123.604 17.232 123.716 17.136C123.844 17.024 124.004 16.968 124.196 16.968C124.276 16.968 124.404 17.096 124.58 17.352C124.756 17.592 124.844 17.752 124.844 17.832C124.844 17.912 124.732 18.024 124.508 18.168C124.3 18.312 124.172 18.416 124.124 18.48ZM135.144 24.24C135.144 24.528 134.928 25.16 134.496 26.136C134.08 27.112 133.44 28.016 132.576 28.848C131.728 29.68 130.68 30.096 129.432 30.096C128.408 30.096 127.552 29.776 126.864 29.136C126.176 28.496 125.832 27.512 125.832 26.184C125.832 24.936 126.12 23.704 126.696 22.488C127.272 21.256 128.024 20.256 128.952 19.488C129.88 18.704 130.84 18.312 131.832 18.312C132.424 18.312 132.92 18.448 133.32 18.72C133.736 18.976 133.944 19.352 133.944 19.848C133.944 20.408 133.624 20.952 132.984 21.48C132.36 22.008 131.544 22.472 130.536 22.872C129.528 23.272 128.488 23.56 127.416 23.736C127.224 24.472 127.128 25.192 127.128 25.896C127.128 26.824 127.344 27.544 127.776 28.056C128.224 28.568 128.856 28.824 129.672 28.824C130.904 28.824 131.904 28.384 132.672 27.504C133.44 26.624 134.08 25.632 134.592 24.528C134.624 24.464 134.68 24.344 134.76 24.168C134.84 23.976 134.912 23.88 134.976 23.88C135.088 23.88 135.144 24 135.144 24.24ZM131.544 19.296C130.936 19.296 130.352 19.496 129.792 19.896C129.232 20.296 128.76 20.776 128.376 21.336C128.008 21.896 127.768 22.392 127.656 22.824C128.392 22.744 129.168 22.536 129.984 22.2C130.8 21.864 131.48 21.496 132.024 21.096C132.584 20.696 132.864 20.368 132.864 20.112C132.864 19.856 132.728 19.656 132.456 19.512C132.2 19.368 131.896 19.296 131.544 19.296ZM138.357 29.88C138.165 29.88 137.981 29.656 137.805 29.208C137.645 28.744 137.565 28.048 137.565 27.12C137.581 25.312 137.605 23.128 137.637 20.568C137.685 18.008 137.725 16.08 137.757 14.784C137.773 14.32 137.853 13.888 137.997 13.488C138.157 13.088 138.429 12.888 138.812 12.888C138.941 12.888 139.021 12.96 139.053 13.104C139.101 13.232 139.125 13.488 139.125 13.872C139.125 13.888 139.117 13.944 139.101 14.04C139.101 14.12 139.101 14.272 139.101 14.496C138.813 18.704 138.669 22.808 138.669 26.808C138.669 27.32 138.781 27.864 139.005 28.44C139.245 29.016 139.365 29.32 139.365 29.352C139.365 29.512 139.261 29.64 139.053 29.736C138.845 29.832 138.613 29.88 138.357 29.88ZM144.601 30.168C143.529 30.168 142.737 29.872 142.225 29.28C141.713 28.688 141.457 27.952 141.457 27.072C141.457 26.304 141.593 25.352 141.865 24.216C142.153 23.08 142.553 22.064 143.065 21.168C143.097 21.104 143.225 20.872 143.449 20.472C143.689 20.056 143.953 19.744 144.241 19.536C144.529 19.312 144.833 19.2 145.153 19.2C145.297 19.2 145.425 19.24 145.537 19.32C145.665 19.384 145.729 19.472 145.729 19.584C145.729 19.616 145.681 19.696 145.585 19.824C145.505 19.936 145.441 20.024 145.393 20.088C144.849 20.744 144.409 21.392 144.073 22.032C143.625 22.848 143.273 23.656 143.017 24.456C142.777 25.256 142.657 26.128 142.657 27.072C142.657 28.336 143.425 28.968 144.961 28.968C145.681 28.968 146.345 28.76 146.953 28.344C147.577 27.928 148.073 27.424 148.441 26.832C148.809 26.224 148.993 25.672 148.993 25.176C148.993 24.616 148.809 24.128 148.441 23.712C148.073 23.296 147.569 22.856 146.929 22.392C146.513 22.088 146.209 21.84 146.017 21.648C145.825 21.456 145.729 21.296 145.729 21.168C145.729 20.976 145.865 20.824 146.137 20.712C146.409 20.584 146.729 20.52 147.097 20.52C147.305 20.52 147.441 20.536 147.505 20.568C147.569 20.584 147.601 20.624 147.601 20.688C147.601 20.72 147.569 20.776 147.505 20.856C147.457 20.92 147.433 20.976 147.433 21.024C147.433 21.072 147.593 21.232 147.913 21.504C148.553 22.032 149.089 22.568 149.521 23.112C149.953 23.656 150.169 24.296 150.169 25.032C150.169 25.656 149.937 26.376 149.473 27.192C149.009 28.008 148.353 28.712 147.505 29.304C146.657 29.88 145.689 30.168 144.601 30.168ZM154.771 28.08C154.739 29.168 154.723 30.056 154.723 30.744C154.723 31.656 154.763 32.488 154.843 33.24C154.875 33.528 154.891 33.728 154.891 33.84C154.891 34.096 154.835 34.312 154.723 34.488C154.611 34.68 154.451 34.776 154.243 34.776C153.955 34.776 153.795 34.672 153.763 34.464C153.747 34.192 153.723 33.768 153.691 33.192C153.675 32.632 153.667 32.064 153.667 31.488L153.691 28.128C153.611 28.128 153.459 28.136 153.235 28.152C153.027 28.168 152.819 28.176 152.611 28.176C152.227 28.176 152.035 27.912 152.035 27.384C152.035 27 152.131 26.808 152.323 26.808C152.387 26.808 152.579 26.856 152.899 26.952C153.219 27.048 153.491 27.096 153.715 27.096L153.691 20.304C153.563 20.288 153.299 20.264 152.899 20.232C152.499 20.184 152.203 20.104 152.011 19.992C151.835 19.88 151.747 19.72 151.747 19.512C151.747 19.096 151.827 18.888 151.987 18.888C152.163 18.888 152.379 18.952 152.635 19.08C152.667 19.096 152.763 19.144 152.923 19.224C153.083 19.288 153.307 19.336 153.595 19.368C153.691 19.112 153.779 18.936 153.859 18.84C153.955 18.744 154.131 18.696 154.387 18.696C154.707 18.696 154.867 18.76 154.867 18.888C154.867 18.936 154.843 19.024 154.795 19.152C154.747 19.264 154.723 19.376 154.723 19.488C155.715 19.632 156.835 19.928 158.083 20.376C159.347 20.808 160.435 21.36 161.347 22.032C162.275 22.704 162.739 23.44 162.739 24.24C162.739 25.376 162.003 26.256 160.531 26.88C159.059 27.504 157.139 27.904 154.771 28.08ZM154.675 20.4C154.707 21.328 154.731 22.56 154.747 24.096C154.763 25.616 154.771 26.624 154.771 27.12C155.731 27.12 156.755 27 157.843 26.76C158.931 26.504 159.843 26.168 160.579 25.752C161.331 25.32 161.707 24.848 161.707 24.336C161.707 23.664 161.323 23.056 160.555 22.512C159.787 21.968 158.859 21.52 157.771 21.168C156.699 20.816 155.667 20.56 154.675 20.4Z"
        fill="url(#paint2_linear_1149_99)" />
    <defs>
        <linearGradient id="paint0_linear_1149_99" x1="222" y1="21" x2="180" y2="21" gradientUnits="userSpaceOnUse">
            <stop stop-color="#FA8142" />
            <stop offset="1" stop-color="#F9BA08" />
        </linearGradient>
        <linearGradient id="paint1_linear_1149_99" x1="0" y1="21" x2="69" y2="21" gradientUnits="userSpaceOnUse">
            <stop stop-color="#03A6E0" />
            <stop offset="1" stop-color="#11E7B3" stop-opacity="0.75" />
        </linearGradient>
        <linearGradient id="paint2_linear_1149_99" x1="164" y1="24.5" x2="85" y2="24.5" gradientUnits="userSpaceOnUse">
            <stop stop-color="#6C7983" />
            <stop offset="1" stop-color="white" stop-opacity="0.6" />
        </linearGradient>
    </defs>
</svg>
