<svg width="77" height="29" viewBox="0 0 77 29" fill="none" xmlns="http://www.w3.org/2000/svg">
    <path fill-rule="evenodd" clip-rule="evenodd"
        d="M71.3853 26.8779C71.4492 26.3875 71.3042 27.5322 71.1596 28.2395C71.0682 28.3549 70.9582 28.3193 70.923 28.3048C70.8957 28.2937 70.7631 28.2294 70.8069 28.0543C71.4295 25.5571 70.6566 21.2942 68.6558 18.0117C66.6726 14.758 63.4698 12.4649 59.1864 13.8853C59.0822 13.9196 58.9698 13.8631 58.9352 13.7594C58.9009 13.6553 58.9573 13.5428 59.0615 13.5085C63.5496 12.0204 66.9172 14.3962 68.9948 17.8048C70.7459 20.6774 71.5709 24.282 71.3853 26.8779Z"
        fill="#C6C6C6" />
    <path fill-rule="evenodd" clip-rule="evenodd"
        d="M59.3564 13.653C59.7939 13.8195 60.2349 13.9714 60.6597 14.1719C61.7917 14.7062 62.8548 15.501 63.6073 16.5068C63.673 16.595 63.6548 16.7193 63.5673 16.7849C63.4792 16.8506 63.3549 16.8324 63.2892 16.7449C62.5756 15.7899 61.5643 15.038 60.4903 14.5313C60.0038 14.3019 59.4955 14.1371 58.9963 13.9397C58.9715 13.9295 58.752 13.8504 58.7103 13.8209C58.6127 13.7529 58.6157 13.6625 58.6224 13.6208C58.6276 13.5859 58.6422 13.5453 58.6774 13.5055C58.7065 13.473 58.7761 13.4243 58.883 13.3789C59.225 13.2325 60.0719 13.0054 60.2069 12.9534C61.7552 12.3578 63.0956 11.5438 64.5282 10.7221C64.6235 10.6679 64.7451 10.7007 64.7997 10.7956C64.8542 10.8905 64.8211 11.0118 64.7261 11.0663C63.2754 11.8986 61.9169 12.721 60.3497 13.3236C60.257 13.3597 59.7325 13.531 59.3564 13.653Z"
        fill="#C6C6C6" />
    <path
        d="M4.34 19.76C3.80667 19.6267 3.32667 19.36 2.9 18.96C2.48667 18.56 2.22 18.1467 2.1 17.72C2.08667 17.5467 2.06667 17.32 2.04 17.04C2.02667 16.76 2.02 16.5 2.02 16.26C2.03333 16.02 2.05333 15.88 2.08 15.84C2.12 15.8133 2.14 15.7333 2.14 15.6C2.12667 15.5467 2.13333 15.46 2.16 15.34C2.2 15.2067 2.24 15.0733 2.28 14.94C2.34667 14.78 2.38 14.6533 2.38 14.56C2.38 14.4533 2.37333 14.3733 2.36 14.32C2.36 14.32 2.38 14.28 2.42 14.2C2.46 14.1067 2.50667 14.0333 2.56 13.98C2.64 13.9 2.67333 13.82 2.66 13.74C2.66 13.66 2.66 13.62 2.66 13.62C2.64667 13.5667 2.66 13.4933 2.7 13.4C2.74 13.3067 2.78 13.2333 2.82 13.18C2.84667 13.1533 2.88 13.1 2.92 13.02C2.97333 12.9267 3 12.88 3 12.88C3 12.84 3.02667 12.7333 3.08 12.56C3.14667 12.3867 3.22 12.2 3.3 12C3.38 11.7867 3.45333 11.5933 3.52 11.42C3.6 11.2467 3.66 11.1333 3.7 11.08V11.04C3.75333 10.9067 3.82667 10.7667 3.92 10.62C3.93333 10.5533 3.96667 10.4467 4.02 10.3C4.07333 10.14 4.13333 9.98667 4.2 9.84C4.34667 9.52 4.52667 9.16 4.74 8.76C4.96667 8.34667 5.20667 7.94 5.46 7.54C5.71333 7.12667 5.95333 6.76 6.18 6.44C6.42 6.10667 6.62667 5.86 6.8 5.7C7.02667 5.44667 7.20667 5.31333 7.34 5.3C7.47333 5.28667 7.64 5.38 7.84 5.58C7.93333 5.67333 8 5.78667 8.04 5.92C8.08 6.05333 8.09333 6.17333 8.08 6.28C8.08 6.37333 8.05333 6.42667 8 6.44C7.90667 6.49333 7.76667 6.64667 7.58 6.9C7.39333 7.14 7.18 7.42667 6.94 7.76C6.71333 8.09333 6.48667 8.44 6.26 8.8C6.04667 9.14667 5.86 9.46 5.7 9.74C5.52667 10.1267 5.36667 10.4667 5.22 10.76C5.07333 11.04 5 11.18 5 11.18C4.98667 11.22 4.97333 11.2533 4.96 11.28C4.94667 11.3067 4.93333 11.3333 4.92 11.36C4.72 11.7733 4.55333 12.1533 4.42 12.5C4.28667 12.8333 4.15333 13.1867 4.02 13.56C3.94 13.6533 3.89333 13.7467 3.88 13.84C3.86667 13.9333 3.86 13.98 3.86 13.98C3.83333 13.9667 3.81333 14 3.8 14.08C3.78667 14.1467 3.76 14.2267 3.72 14.32C3.65333 14.3733 3.61333 14.46 3.6 14.58C3.58667 14.6867 3.58 14.7933 3.58 14.9C3.48667 15.14 3.4 15.4333 3.32 15.78C3.24 16.1133 3.18 16.44 3.14 16.76C3.11333 17.0667 3.10667 17.3067 3.12 17.48C3.14667 17.7067 3.26 17.9133 3.46 18.1C3.67333 18.2733 3.92667 18.42 4.22 18.54C4.36667 18.5933 4.49333 18.64 4.6 18.68C4.70667 18.7067 4.80667 18.72 4.9 18.72C5.00667 18.7333 5.14 18.7333 5.3 18.72C5.47333 18.6933 5.70667 18.6533 6 18.6H5.98C6.15333 18.5733 6.33333 18.54 6.52 18.5C6.72 18.4467 6.90667 18.4 7.08 18.36C7.24 18.3333 7.39333 18.3067 7.54 18.28C7.68667 18.24 7.8 18.2067 7.88 18.18C8.17333 18.1 8.38667 18.0467 8.52 18.02C8.65333 17.98 8.75333 17.9867 8.82 18.04C8.88667 18.0933 8.93333 18.16 8.96 18.24C8.98667 18.3067 8.98 18.4 8.94 18.52C8.91333 18.5867 8.80667 18.6867 8.62 18.82C8.43333 18.94 8.20667 19.06 7.94 19.18C7.68667 19.3 7.43333 19.4 7.18 19.48C6.91333 19.6 6.59333 19.6933 6.22 19.76C5.86 19.8267 5.50667 19.86 5.16 19.86C4.82667 19.86 4.55333 19.8267 4.34 19.76ZM14.0356 18.3C13.7556 18.54 13.429 18.68 13.0556 18.72C12.6956 18.76 12.3423 18.7067 11.9956 18.56C11.649 18.4 11.3623 18.16 11.1356 17.84C10.909 17.5467 10.7623 17.2133 10.6956 16.84C10.629 16.4533 10.6223 15.9533 10.6756 15.34C10.7156 14.82 10.8823 14.3 11.1756 13.78C11.469 13.2467 11.8223 12.7733 12.2356 12.36C12.6623 11.9467 13.0823 11.66 13.4956 11.5C13.6956 11.3667 13.8623 11.3067 13.9956 11.32C14.1423 11.32 14.3623 11.3333 14.6556 11.36C14.9623 11.4 15.189 11.46 15.3356 11.54C15.4956 11.62 15.6223 11.7267 15.7156 11.86C15.9156 12.06 16.049 12.26 16.1156 12.46C16.1823 12.6467 16.2156 12.8333 16.2156 13.02C16.1623 13.3133 15.9623 13.6733 15.6156 14.1C15.2823 14.5133 14.8423 14.8533 14.2956 15.12C14.0023 15.2133 13.6823 15.2533 13.3356 15.24C12.989 15.2267 12.7023 15.14 12.4756 14.98C12.2223 14.8733 12.0556 14.8933 11.9756 15.04C11.8956 15.1733 11.8223 15.5067 11.7556 16.04C11.7023 16.5467 11.7423 16.92 11.8756 17.16C12.009 17.3867 12.189 17.52 12.4156 17.56C12.6823 17.6133 12.889 17.6533 13.0356 17.68C13.1956 17.6933 13.389 17.6333 13.6156 17.5C13.829 17.3667 13.9623 17.2933 14.0156 17.28C14.069 17.2533 14.109 17.2267 14.1356 17.2C14.1756 17.16 14.2623 17.0733 14.3956 16.94C14.489 16.8467 14.5623 16.78 14.6156 16.74C14.669 16.6867 14.729 16.66 14.7956 16.66C14.8623 16.66 14.9223 16.6933 14.9756 16.76C15.029 16.8133 15.0823 16.8533 15.1356 16.88C15.269 16.88 15.2956 16.96 15.2156 17.12C15.149 17.28 15.009 17.4733 14.7956 17.7C14.5823 17.9133 14.329 18.1133 14.0356 18.3ZM14.0156 14.06C14.1623 13.9933 14.3156 13.9 14.4756 13.78C14.6356 13.6467 14.769 13.5067 14.8756 13.36C14.9956 13.2 15.0556 13.0667 15.0556 12.96C15.0556 12.7733 14.969 12.62 14.7956 12.5C14.6223 12.3667 14.3623 12.3467 14.0156 12.44C13.869 12.48 13.7023 12.58 13.5156 12.74C13.329 12.8867 13.149 13.0533 12.9756 13.24C12.8156 13.4267 12.6823 13.5933 12.5756 13.74C12.4823 13.8867 12.449 13.9733 12.4756 14C12.5156 14.0667 12.629 14.12 12.8156 14.16C13.0023 14.1867 13.209 14.1933 13.4356 14.18C13.6756 14.1667 13.869 14.1267 14.0156 14.06ZM18.7195 18.42C18.6129 18.4467 18.4729 18.46 18.2995 18.46C18.1262 18.4467 17.9729 18.4267 17.8395 18.4C17.7195 18.36 17.6595 18.32 17.6595 18.28C17.6595 18.2133 17.6262 18.18 17.5595 18.18C17.5595 18.18 17.5262 18.1533 17.4595 18.1C17.4062 18.0467 17.3195 17.9933 17.1995 17.94C17.0795 17.7533 17.0195 17.5533 17.0195 17.34C17.0195 17.1133 17.0795 16.76 17.1995 16.28C17.2395 15.9467 17.3662 15.56 17.5795 15.12C17.8062 14.6667 18.0795 14.2067 18.3995 13.74C18.7195 13.2733 19.0529 12.8533 19.3995 12.48C19.7595 12.1067 20.0862 11.8333 20.3795 11.66C20.5662 11.4733 20.7929 11.3733 21.0595 11.36C21.3262 11.3467 21.5795 11.4067 21.8195 11.54C21.9529 11.6067 22.0862 11.7133 22.2195 11.86C22.3529 12.0067 22.4795 12.1667 22.5995 12.34C22.7195 12.5133 22.8195 12.6867 22.8995 12.86C22.9395 13.0067 22.9595 13.14 22.9595 13.26C22.9729 13.3667 22.9729 13.5 22.9595 13.66C22.9595 13.82 22.9395 14.06 22.8995 14.38C22.8329 14.62 22.7729 14.9133 22.7195 15.26C22.6795 15.6067 22.6595 15.9067 22.6595 16.16C22.6329 16.4133 22.6595 16.5933 22.7395 16.7C22.8329 16.8067 22.9662 16.8133 23.1395 16.72C23.2995 16.64 23.4529 16.6067 23.5995 16.62C23.7462 16.62 23.8595 16.66 23.9395 16.74C24.0329 16.82 24.0795 16.94 24.0795 17.1C24.0795 17.26 23.9995 17.4267 23.8395 17.6C23.6929 17.76 23.5062 17.9 23.2795 18.02C23.0662 18.1267 22.8595 18.18 22.6595 18.18C22.5129 18.18 22.3729 18.0933 22.2395 17.92C22.1062 17.7333 21.9862 17.5133 21.8795 17.26C21.7862 16.9933 21.6995 16.74 21.6195 16.5L21.4995 16.04L20.6395 16.86C20.4662 17.0467 20.2929 17.22 20.1195 17.38C19.9595 17.5267 19.8595 17.6333 19.8195 17.7C19.7529 17.82 19.6262 17.94 19.4395 18.06C19.2662 18.18 19.0262 18.3 18.7195 18.42ZM18.7795 17.24C19.0062 17.1067 19.2662 16.9133 19.5595 16.66C19.8529 16.3933 20.1395 16.1067 20.4195 15.8C20.6995 15.48 20.9329 15.1867 21.1195 14.92C21.3462 14.6133 21.5195 14.3267 21.6395 14.06C21.7595 13.7933 21.8462 13.54 21.8995 13.3C21.8462 13.1533 21.7595 13 21.6395 12.84C21.5195 12.6667 21.4129 12.5733 21.3195 12.56C21.0262 12.56 20.7129 12.7467 20.3795 13.12C20.0595 13.48 19.7462 13.8733 19.4395 14.3C19.3862 14.3667 19.3129 14.4733 19.2195 14.62C19.1262 14.7667 19.0329 14.9067 18.9395 15.04C18.8595 15.16 18.8062 15.24 18.7795 15.28C18.7395 15.3333 18.6595 15.4867 18.5395 15.74C18.4329 15.98 18.3262 16.2267 18.2195 16.48C18.1129 16.72 18.0595 16.88 18.0595 16.96C18.0595 17.04 18.0662 17.1267 18.0795 17.22C18.1062 17.3133 18.1729 17.3733 18.2795 17.4C18.3862 17.4267 18.5529 17.3733 18.7795 17.24ZM25.4269 18.3C25.3069 18.2067 25.2202 18.1133 25.1669 18.02C25.1269 17.9267 25.1269 17.7467 25.1669 17.48C25.2069 17.1067 25.2602 16.78 25.3269 16.5C25.3935 16.2067 25.4735 15.8733 25.5669 15.5C25.5935 15.34 25.6669 15.0667 25.7869 14.68C25.9202 14.2933 26.0802 13.8733 26.2669 13.42C26.4535 12.9667 26.6402 12.54 26.8269 12.14C27.0135 11.7267 27.1735 11.42 27.3069 11.22C27.4135 11.14 27.5402 11.1067 27.6869 11.12C27.8469 11.1333 27.9802 11.1933 28.0869 11.3C28.2335 11.42 28.2535 11.6333 28.1469 11.94C28.0535 12.2333 27.8535 12.7 27.5469 13.34C27.3869 13.7 27.2669 13.9733 27.1869 14.16C27.1069 14.3333 27.0735 14.44 27.0869 14.48C27.1002 14.5067 27.1602 14.4867 27.2669 14.42C27.3469 14.2733 27.4935 14.1067 27.7069 13.92C27.9202 13.72 28.1469 13.5267 28.3869 13.34C28.6269 13.1533 28.8535 12.9867 29.0669 12.84C29.2802 12.6933 29.4269 12.6 29.5069 12.56C29.6135 12.4933 29.7335 12.44 29.8669 12.4C30.0135 12.3467 30.1135 12.3067 30.1669 12.28C30.4735 12.1333 30.7869 12.08 31.1069 12.12C31.4269 12.16 31.6269 12.28 31.7069 12.48C31.7202 12.5867 31.7602 12.6667 31.8269 12.72C31.9069 12.7733 31.9469 12.8 31.9469 12.8C32.0002 12.8 32.0269 12.82 32.0269 12.86C32.0402 12.9 32.0469 12.92 32.0469 12.92C32.0469 13.0133 31.9735 13.0733 31.8269 13.1C31.6935 13.1133 31.5202 13.1267 31.3069 13.14C31.1335 13.1533 30.9802 13.1867 30.8469 13.24C30.7135 13.2933 30.5535 13.36 30.3669 13.44C29.8602 13.7333 29.3735 14.02 28.9069 14.3C28.4535 14.58 28.0135 14.9533 27.5869 15.42C27.4935 15.5267 27.4002 15.6533 27.3069 15.8C27.2135 15.9467 27.1135 16.1067 27.0069 16.28C26.9402 16.3467 26.8735 16.4933 26.8069 16.72C26.7402 16.9467 26.6802 17.1667 26.6269 17.38C26.5869 17.58 26.5669 17.7 26.5669 17.74C26.5669 17.74 26.5469 17.8067 26.5069 17.94C26.4669 18.06 26.4002 18.18 26.3069 18.3C26.1469 18.5133 26.0135 18.62 25.9069 18.62C25.8002 18.62 25.6402 18.5133 25.4269 18.3ZM38.4539 18.76C38.3206 18.76 38.1806 18.6867 38.0339 18.54C37.9006 18.3933 37.7806 18.2133 37.6739 18C37.5806 17.7733 37.5339 17.56 37.5339 17.36C37.5339 17.16 37.5806 16.7867 37.6739 16.24C37.7806 15.6933 37.9072 15.14 38.0539 14.58C38.1606 14.2333 38.1939 14.0333 38.1539 13.98C38.1139 13.9267 37.9339 14 37.6139 14.2C37.4272 14.2933 37.2606 14.3933 37.1139 14.5C36.9672 14.5933 36.8406 14.7 36.7339 14.82C36.6672 14.8733 36.5672 14.96 36.4339 15.08C36.3006 15.2 36.1606 15.3133 36.0139 15.42C35.8406 15.5533 35.6206 15.74 35.3539 15.98C35.0872 16.22 34.8206 16.46 34.5539 16.7C34.3006 16.94 34.1072 17.1267 33.9739 17.26C33.9472 17.3133 33.9072 17.36 33.8539 17.4C33.8006 17.44 33.7406 17.4667 33.6739 17.48C33.6072 17.48 33.5339 17.4667 33.4539 17.44C33.3072 17.4 33.1672 17.3133 33.0339 17.18C32.9139 17.0467 32.8539 16.8933 32.8539 16.72C32.8539 16.5867 32.9072 16.36 33.0139 16.04C33.1206 15.7067 33.2606 15.3067 33.4339 14.84C33.6206 14.3733 33.8339 13.88 34.0739 13.36C34.1139 13.2933 34.1472 13.2133 34.1739 13.12C34.2006 13.0133 34.2206 12.9 34.2339 12.78C34.2606 12.66 34.2739 12.5467 34.2739 12.44C34.2739 12.3733 34.2806 12.3067 34.2939 12.24C34.3206 12.16 34.3472 12.0867 34.3739 12.02C34.4139 11.94 34.4472 11.8867 34.4739 11.86C34.5272 11.7533 34.6206 11.7267 34.7539 11.78C34.8872 11.82 35.0006 11.9133 35.0939 12.06C35.2939 12.2467 35.3939 12.48 35.3939 12.76C35.4072 13.04 35.3406 13.3867 35.1939 13.8C35.1406 13.8933 35.0939 13.9867 35.0539 14.08C35.0272 14.16 35.0006 14.2333 34.9739 14.3C34.9472 14.3533 34.9272 14.4 34.9139 14.44C34.9006 14.4667 34.8939 14.48 34.8939 14.48C34.9472 14.48 35.0672 14.42 35.2539 14.3C35.4406 14.18 35.6606 14.0467 35.9139 13.9C36.1139 13.7533 36.2872 13.62 36.4339 13.5C36.5939 13.3667 36.7272 13.2667 36.8339 13.2C36.9406 13.12 37.0072 13.08 37.0339 13.08C37.0872 13.08 37.1539 13.06 37.2339 13.02C37.3139 12.98 37.3806 12.9333 37.4339 12.88C37.4872 12.8267 37.5272 12.8 37.5539 12.8C37.5939 12.7867 37.6139 12.78 37.6139 12.78C37.6139 12.78 37.6406 12.78 37.6939 12.78C37.7472 12.7667 37.8006 12.7333 37.8539 12.68C37.9606 12.6 38.1006 12.58 38.2739 12.62C38.4472 12.6467 38.6072 12.7133 38.7539 12.82C38.9006 12.9267 38.9739 13.0467 38.9739 13.18C38.9739 13.2333 38.9872 13.28 39.0139 13.32C39.0539 13.3467 39.0739 13.36 39.0739 13.36C39.1806 13.36 39.2472 13.5267 39.2739 13.86C39.3139 14.1933 39.2806 14.5133 39.1739 14.82C39.1739 15.02 39.1339 15.26 39.0539 15.54C38.9872 15.82 38.9272 16.0867 38.8739 16.34C38.7672 16.6733 38.6939 16.9667 38.6539 17.22C38.6139 17.4733 38.6072 17.6867 38.6339 17.86C38.6606 18.0333 38.7072 18.1733 38.7739 18.28C38.8272 18.3733 38.8272 18.48 38.7739 18.6C38.7206 18.7067 38.6139 18.76 38.4539 18.76ZM41.6378 18.02C41.5845 18.02 41.5178 18.0067 41.4378 17.98C41.3711 17.94 41.3378 17.92 41.3378 17.92C41.3378 17.8667 41.3178 17.8 41.2778 17.72C41.2511 17.64 41.2378 17.5733 41.2378 17.52C41.1445 17.4667 41.0911 17.4133 41.0778 17.36C41.0645 17.2933 41.0845 17.1867 41.1378 17.04C41.2178 16.9067 41.3245 16.6933 41.4578 16.4C41.5911 16.0933 41.7311 15.7667 41.8778 15.42C42.0245 15.06 42.1645 14.7067 42.2978 14.36C42.4311 14.0133 42.5445 13.72 42.6378 13.48C42.7311 13.2267 42.7845 13.0733 42.7978 13.02C42.7978 12.9667 42.8178 12.9 42.8578 12.82C42.8978 12.74 42.9445 12.6733 42.9978 12.62C43.1045 12.5267 43.2178 12.52 43.3378 12.6C43.4578 12.6667 43.5578 12.7867 43.6378 12.96C43.7311 13.12 43.7778 13.3 43.7778 13.5C43.7778 13.5933 43.7111 13.8333 43.5778 14.22C43.4445 14.5933 43.2645 15.04 43.0378 15.56C42.8245 16.08 42.5845 16.6067 42.3178 17.14C42.1178 17.5267 41.9911 17.7733 41.9378 17.88C41.8845 17.9733 41.7845 18.02 41.6378 18.02ZM44.5778 10.44C44.4178 10.44 44.2445 10.38 44.0578 10.26C43.8845 10.1267 43.7311 9.96667 43.5978 9.78C43.4778 9.58 43.4178 9.38 43.4178 9.18C43.4178 9.11333 43.4578 9.02 43.5378 8.9C43.6178 8.78 43.6978 8.66 43.7778 8.54C43.8578 8.42 43.8978 8.34667 43.8978 8.32C44.0045 8.32 44.0845 8.32667 44.1378 8.34C44.2045 8.34 44.2845 8.36667 44.3778 8.42C44.5245 8.75333 44.7045 9.02667 44.9178 9.24C45.1445 9.45333 45.2578 9.63333 45.2578 9.78C45.2578 10.0733 45.2311 10.26 45.1778 10.34C45.1245 10.4067 44.9245 10.44 44.5778 10.44ZM45.9483 18.12C45.8949 18.12 45.8149 18.0867 45.7083 18.02C45.6149 17.94 45.5416 17.8733 45.4883 17.82C45.3949 17.7133 45.3349 17.6067 45.3083 17.5C45.2949 17.3933 45.2883 17.1533 45.2883 16.78C45.2883 16.3533 45.3749 15.8933 45.5483 15.4C45.7216 14.8933 46.0149 14.1867 46.4283 13.28L47.0883 11.88C47.1416 11.7733 47.1883 11.6933 47.2283 11.64C47.2816 11.5867 47.3283 11.5333 47.3683 11.48C47.4216 11.48 47.4683 11.48 47.5083 11.48C47.5483 11.48 47.5683 11.48 47.5683 11.48C47.6749 11.48 47.7816 11.5467 47.8883 11.68C47.9949 11.8 48.0749 11.9333 48.1283 12.08C48.1283 12.2533 48.1016 12.4333 48.0483 12.62C48.0083 12.8067 47.8483 13.0867 47.5683 13.46C47.4749 13.6067 47.3483 13.8533 47.1883 14.2C47.0416 14.5467 46.9416 14.8467 46.8883 15.1C46.8749 15.1133 46.8483 15.1733 46.8083 15.28C46.7683 15.3733 46.7216 15.48 46.6683 15.6C46.6283 15.72 46.5816 15.8333 46.5283 15.94L46.4283 16.38L47.7683 15C48.3949 14.3733 48.9016 13.9267 49.2883 13.66C49.6749 13.3933 49.9816 13.28 50.2083 13.32C50.4349 13.36 50.6283 13.54 50.7883 13.86C50.8816 14.0067 50.9483 14.14 50.9883 14.26C51.0416 14.3667 51.0749 14.5133 51.0883 14.7C51.1016 14.8867 51.0883 15.1667 51.0483 15.54V16.78C51.2483 16.7267 51.4083 16.68 51.5283 16.64C51.6483 16.5867 51.7749 16.5333 51.9083 16.48C52.0283 16.4267 52.1683 16.38 52.3283 16.34C52.4883 16.2867 52.6883 16.2533 52.9283 16.24C52.9149 16.4133 52.8549 16.6 52.7483 16.8C52.6416 16.9867 52.5083 17.1667 52.3483 17.34C52.1883 17.5133 52.0083 17.6533 51.8083 17.76C51.6216 17.8667 51.4349 17.92 51.2483 17.92C51.0749 17.92 50.8816 17.8333 50.6683 17.66C50.4549 17.4867 50.3016 17.2933 50.2083 17.08C50.1549 16.9333 50.1216 16.7733 50.1083 16.6C50.1083 16.4267 50.1083 16.1067 50.1083 15.64V14.9C50.1083 14.6867 50.0416 14.6267 49.9083 14.72C49.7883 14.8 49.6883 14.8733 49.6083 14.94C49.4083 15.1133 49.1949 15.3133 48.9683 15.54C48.7549 15.7667 48.5349 16 48.3083 16.24C47.6949 16.88 47.1816 17.3533 46.7683 17.66C46.3683 17.9667 46.0949 18.12 45.9483 18.12ZM56.0922 22.82C55.7189 22.9667 55.3255 22.94 54.9122 22.74C54.5122 22.5533 54.1655 22.2533 53.8722 21.84C53.8189 21.76 53.7522 21.6333 53.6722 21.46C53.6055 21.3 53.5389 21.1333 53.4722 20.96C53.4189 20.7867 53.3855 20.6333 53.3722 20.5C53.3589 20.3667 53.3722 20.2867 53.4122 20.26C53.4522 20.22 53.5189 20.2067 53.6122 20.22C53.7055 20.2333 53.7922 20.2667 53.8722 20.32C53.9655 20.3733 54.0255 20.44 54.0522 20.52C54.0922 20.6133 54.1522 20.7333 54.2322 20.88C54.3255 21.0267 54.4255 21.16 54.5322 21.28C54.6389 21.4 54.7189 21.4667 54.7722 21.48C55.0255 21.6 55.2122 21.6533 55.3322 21.64C55.4522 21.6267 55.5589 21.5867 55.6522 21.52C55.8789 21.3467 56.0655 21.12 56.2122 20.84C56.3589 20.56 56.5255 20.1267 56.7122 19.54C56.8589 19.0467 57.0055 18.5267 57.1522 17.98C57.3122 17.42 57.4522 16.9867 57.5722 16.68C57.6122 16.52 57.6589 16.3867 57.7122 16.28C57.7789 16.16 57.8389 16.0733 57.8922 16.02H58.0122C57.7189 16.2067 57.4589 16.42 57.2322 16.66C57.0055 16.9 56.7189 17.0933 56.3722 17.24C56.2922 17.3333 56.0922 17.3933 55.7722 17.42C55.4655 17.4333 55.1655 17.3933 54.8722 17.3C54.6855 17.1933 54.5455 17.1133 54.4522 17.06C54.3722 17.0067 54.3055 16.9333 54.2522 16.84C54.2122 16.7467 54.1522 16.6 54.0722 16.4C53.9789 16.2 53.9655 15.8733 54.0322 15.42C54.0989 14.9667 54.2189 14.5133 54.3922 14.06C54.5522 13.7267 54.7855 13.3667 55.0922 12.98C55.3989 12.5933 55.7255 12.2467 56.0722 11.94C56.4189 11.62 56.7322 11.42 57.0122 11.34C57.1189 11.2867 57.2322 11.2533 57.3522 11.24C57.4855 11.2133 57.6722 11.2333 57.9122 11.3C58.1389 11.3267 58.3122 11.38 58.4322 11.46C58.5522 11.5267 58.7455 11.6733 59.0122 11.9C59.1855 12.0733 59.3255 12.2467 59.4322 12.42C59.5522 12.5933 59.6455 12.7733 59.7122 12.96C59.8055 13.16 59.8389 13.3467 59.8122 13.52C59.7989 13.68 59.7255 13.8467 59.5922 14.02C59.4722 14.1933 59.3455 14.3667 59.2122 14.54C59.0789 14.7133 58.9789 14.9533 58.9122 15.26C58.8455 15.66 58.7389 16.1133 58.5922 16.62C58.4455 17.1133 58.3189 17.5733 58.2122 18L57.8922 19.24C57.5589 20.3733 57.2389 21.2133 56.9322 21.76C56.6389 22.32 56.3589 22.6733 56.0922 22.82ZM55.3722 16.42C55.6389 16.4067 55.8922 16.3533 56.1322 16.26C56.3722 16.1667 56.6055 16.0133 56.8322 15.8C57.0589 15.5733 57.2855 15.2867 57.5122 14.94C57.7389 14.62 57.8989 14.2867 57.9922 13.94C58.0855 13.58 58.1189 13.2333 58.0922 12.9C58.0789 12.6867 58.0455 12.5467 57.9922 12.48C57.9389 12.4133 57.8255 12.3933 57.6522 12.42C57.3989 12.46 57.1189 12.6 56.8122 12.84C56.5055 13.0667 56.2189 13.3533 55.9522 13.7C55.7522 13.9667 55.5855 14.2867 55.4522 14.66C55.3189 15.06 55.2389 15.44 55.2122 15.8C55.1855 16.16 55.2389 16.3667 55.3722 16.42Z"
        fill="#C6C6C6" />
</svg>
