<svg width="652" height="285" viewBox="0 0 652 285" fill="none" xmlns="http://www.w3.org/2000/svg">
<path d="M94.0241 72.1998C96.15 72.0226 98.8607 73.2095 102.156 75.7605C105.451 78.3116 107.223 81.0753 107.471 84.0517C108.152 92.2154 105.261 108.383 98.7985 132.556C96.5948 141.046 95.6276 146.906 95.897 150.138C95.9324 150.563 96.0387 150.811 96.2159 150.882C96.3931 150.953 97.9698 150.864 100.946 150.616C103.923 150.368 107.969 149.602 113.085 148.319C118.28 146.945 122.457 145.697 125.618 144.577C128.863 143.451 130.784 142.862 131.379 142.813C133.505 142.635 134.681 143.907 134.908 146.629C135.355 151.986 131.635 156.663 123.747 160.66C115.938 164.565 106.676 166.964 95.9612 167.857C91.7943 168.205 87.84 166.993 84.0982 164.222C80.4344 161.36 78.4466 158.057 78.1347 154.316C77.8227 150.574 79.9626 138.236 84.5541 117.302C89.1385 96.2835 91.1791 82.7553 90.6758 76.7175C90.4419 73.9113 91.558 72.4053 94.0241 72.1998ZM200.64 117.13C200.987 121.297 198.451 125.276 193.029 129.068C187.693 132.852 182.049 134.992 176.096 135.489C170.144 135.985 165.218 135.967 161.321 135.436C160.747 137.796 160.556 140.124 160.747 142.42C160.938 144.716 161.459 146.342 162.31 147.299C163.153 148.17 165.105 148.479 168.167 148.223C174.545 147.692 179.937 146.643 184.345 145.077C188.838 143.503 191.17 142.709 191.34 142.695C194.826 142.405 196.665 143.407 196.857 145.703C197.133 149.02 194.632 152.397 189.352 155.834C184.158 159.264 177.947 161.28 170.718 161.883C163.575 162.478 157.647 160.703 152.934 156.558C148.222 152.412 145.61 147.278 145.1 141.155C144.582 134.947 145.829 128.336 148.841 121.32C151.938 114.297 156.019 108.305 161.086 103.344C166.146 98.2987 171.354 95.5525 176.712 95.106C182.154 94.6523 187.395 96.9127 192.433 101.887C197.465 106.777 200.201 111.858 200.64 117.13ZM185.673 116.323C185.602 115.472 184.607 114.314 182.686 112.847C180.766 111.38 178.998 110.714 177.382 110.849C175.851 110.976 173.948 112.291 171.674 114.793C169.392 117.209 167.294 120.295 165.381 124.051C166.154 124.072 167.263 124.023 168.708 123.902C180.359 122.931 186.014 120.405 185.673 116.323ZM238.093 105.274C237.604 107.627 236.853 110.943 235.839 115.224C234.904 119.412 233.717 124.691 232.279 131.062C230.925 137.426 230.266 140.82 230.302 141.246C230.33 141.586 231.025 141.699 232.385 141.586C233.831 141.465 237.112 140.25 242.228 137.939C247.338 135.544 250.36 134.307 251.296 134.229C253.422 134.052 254.605 135.409 254.846 138.301C255.087 141.192 252.529 144.916 247.172 149.473C241.807 153.944 236.021 156.439 229.813 156.957C227.092 157.183 223.737 155.965 219.747 153.3C215.757 150.636 213.634 147.773 213.379 144.711C213.167 142.16 213.996 136.696 215.866 128.32C217.815 119.852 219.129 114.048 219.809 110.908C216.571 112.12 214.101 112.797 212.401 112.939C210.7 113.081 208.818 112.081 206.756 109.941C204.687 107.716 203.563 105.541 203.386 103.415C203.159 100.694 209.558 97.8481 222.583 94.8785C223.54 86.8353 223.777 79.9223 223.295 74.1397C223.082 71.5886 224.252 70.2067 226.803 69.994C229.014 69.8097 231.933 70.9364 235.562 73.3741C239.268 75.7196 241.231 78.2105 241.451 80.8467C241.664 83.3978 241.412 87.058 240.697 91.8273C244.764 91.317 247.861 90.9732 249.987 90.796C256.365 90.2643 259.674 91.4441 259.915 94.3354C260.071 96.2063 258.335 97.978 254.707 99.6505C251.157 101.231 245.618 103.105 238.093 105.274ZM274.541 41.4817C278.963 41.1131 282.709 42.3851 285.777 45.2976C288.931 48.203 290.731 52.3344 291.177 57.6918C291.624 63.0492 289.697 69.2039 285.395 76.1559C281.179 83.1009 277.072 86.7399 273.076 87.0731C269.079 87.4063 266.939 85.8721 266.655 82.4705C266.527 80.9399 267.856 77.8749 270.641 73.2756C273.419 68.5914 274.687 64.8036 274.446 61.9123C274.198 58.9359 272.848 56.608 270.396 54.9286C267.944 53.2491 266.647 51.559 266.505 49.8583C266.364 48.1575 267.115 46.3823 268.759 44.5327C270.403 42.683 272.33 41.6661 274.541 41.4817ZM346.886 81.0487C350.118 80.7793 353.466 82.4269 356.931 85.9913C360.397 89.5557 362.257 92.8687 362.512 95.93C362.683 97.971 361.875 99.0659 360.089 99.2147C359.068 99.2998 357.548 99.0412 355.529 98.4389C353.502 97.7515 351.468 97.4929 349.427 97.663C347.471 97.8261 344.594 98.751 340.796 100.438C337.082 102.117 335.318 104.063 335.502 106.274C335.573 107.124 336.824 108.261 339.255 109.686C341.685 111.11 344.332 112.559 347.195 114.033C350.058 115.507 352.765 117.679 355.317 120.549C357.861 123.334 359.282 126.512 359.579 130.084C359.87 133.57 357.571 137.316 352.681 141.32C347.876 145.317 341.988 147.606 335.014 148.187C328.126 148.761 322.085 147.681 316.89 144.945C311.696 142.21 308.96 139.184 308.684 135.868C308.408 132.551 309.63 130.78 312.351 130.553C313.457 130.461 314.81 130.776 316.412 131.499C320.869 133.61 326.244 134.404 332.537 133.879C338.915 133.348 342.033 132.231 341.891 130.531C341.75 128.83 340.361 127.062 337.724 125.226C335.166 123.299 332.367 121.563 329.327 120.018C326.372 118.466 323.555 116.517 320.876 114.172C318.275 111.734 316.872 109.282 316.666 106.816C316.283 102.224 320.036 96.902 327.923 90.8499C335.803 84.7127 342.124 81.4457 346.886 81.0487ZM442.073 63.3522C432.931 64.628 427.935 65.3014 427.085 65.3723C425.044 65.5424 422.9 64.4795 420.654 62.1835C418.4 59.8025 417.16 57.2513 416.933 54.5301C416.586 50.3632 428.53 47.2696 452.766 45.2493C465.182 44.2144 474.43 44.7279 480.51 46.7899C486.59 48.852 489.783 51.7113 490.088 55.3679C490.18 56.4734 489.631 57.5896 488.44 58.7164C487.243 59.7581 485.666 60.3605 483.71 60.5236C481.754 60.6866 478.172 60.8568 472.963 61.0341C467.755 61.2114 463.021 61.4347 458.762 61.7041C459.187 62.6962 459.456 63.8726 459.57 65.2332C459.683 66.5938 459.396 69.3151 458.709 73.3969C458.107 77.4717 457.21 83.1552 456.02 90.4473C454.823 97.6543 453.583 106.406 452.3 116.703C451.011 126.915 450.023 133.034 449.335 135.061C448.726 136.995 448.038 137.995 447.273 138.058C445.487 138.207 443.099 136.779 440.108 133.775C437.196 130.678 435.654 128.109 435.484 126.068C435.314 124.027 436.356 115.463 438.609 100.376C440.855 85.2036 442.01 72.8623 442.073 63.3522ZM540.871 94.5487C542.515 95.7817 543.383 96.951 543.476 98.0565C543.568 99.162 543.249 101.501 542.519 105.072C541.789 108.644 541.336 111.422 541.159 113.406C540.974 115.305 540.801 116.818 540.638 117.945C540.56 119.065 540.507 119.968 540.479 120.656C540.443 121.258 540.337 122.037 540.16 122.994C540.068 123.944 539.961 124.723 539.841 125.333C539.798 125.85 539.681 126.502 539.49 127.289C539.377 127.983 539.21 128.554 538.991 129C538.764 129.361 538.498 129.769 538.193 130.222C537.74 130.945 536.918 131.356 535.727 131.456C534.537 131.555 532.949 130.488 530.965 128.256C529.066 126.017 527.549 123.232 526.415 119.901C519.102 128.731 512.724 133.373 507.282 133.827C503.625 134.132 499.504 132.463 494.919 128.82C490.327 125.093 487.864 121.231 487.531 117.234C487.191 113.152 488.537 107.217 491.57 99.4291C494.603 91.6409 499 84.2956 504.761 77.3931C510.607 70.4836 516.634 66.7701 522.842 66.2526C526.414 65.9549 530.712 67.6945 535.736 71.4715C540.761 75.2485 543.418 78.8803 543.709 82.3669C543.993 85.7684 543.047 89.829 540.871 94.5487ZM505.432 117.797C508.833 117.514 513.149 114.842 518.379 109.782C523.687 104.63 526.726 98.468 527.499 91.2963C527.499 90.2688 528.172 89.6133 529.518 89.3298C528.859 84.5039 527.849 82.1476 526.489 82.261C523.087 82.5446 519.445 85.0746 515.561 89.851C511.763 94.6203 508.713 99.6271 506.41 104.871C504.192 110.108 503.182 113.917 503.38 116.298C503.437 116.979 503.561 117.439 503.752 117.68C504.022 117.829 504.582 117.868 505.432 117.797ZM564.225 26.8386C566.266 26.6685 569.058 28.3196 572.602 31.7919C576.145 35.2642 578.058 38.7012 578.342 42.1027C578.625 45.5042 578.622 51.627 578.332 60.471C578.034 69.23 577.549 76.2492 576.876 81.5287C572.384 112.901 568.735 128.704 565.929 128.938C564.058 129.094 561.595 127.801 558.541 125.058C555.564 122.224 553.995 119.829 553.831 117.873C553.817 117.703 554.597 113.185 556.17 104.32C557.743 95.4543 559.11 84.1229 560.272 70.3253C561.512 56.4357 561.614 43.283 560.579 30.8674C560.374 28.4013 561.589 27.0584 564.225 26.8386ZM600.449 126.06C598.493 126.223 595.896 124.856 592.657 121.958C589.503 119.052 587.849 116.664 587.693 114.793C587.65 114.283 588.632 109.106 590.637 99.2629C592.727 89.4125 594.612 77.6099 596.291 63.8548C598.055 50.0927 598.515 38.1518 597.672 28.0323C597.452 25.3961 598.533 23.9788 600.914 23.7803C602.955 23.6101 605.789 25.2577 609.418 28.7229C613.124 32.096 615.112 35.3983 615.381 38.6297C615.771 43.3069 614.808 52.2926 612.491 65.5871C610.259 78.8744 607.797 89.398 605.104 97.1578C606.089 95.62 607.418 93.5826 609.09 91.0456C610.84 88.4164 612.247 86.2869 613.31 84.6569C614.373 83.027 615.662 81.0356 617.179 78.6829C618.78 76.323 620.12 74.4131 621.197 72.9533C622.267 71.4084 623.454 69.7253 624.758 67.904C626.054 65.9977 627.171 64.4918 628.106 63.3863C629.119 62.1886 630.14 61.076 631.167 60.0484C633.052 58.0075 634.547 56.9409 635.653 56.8487C637.779 56.6715 640.238 57.9222 643.03 60.6009C645.815 63.1945 647.296 65.5543 647.474 67.6802C647.544 68.5306 645.879 70.6389 642.478 74.0051C639.161 77.3642 635.831 81.067 632.486 85.1135C629.226 89.1529 627.721 92.6608 627.969 95.6372C628.21 98.5285 629.297 101.306 631.232 103.971C633.245 106.543 635.332 108.467 637.493 109.743C639.655 111.018 641.65 112.35 643.478 113.739C645.384 115.036 646.38 116.195 646.465 117.215C646.742 120.532 644.626 122.378 640.119 122.754C634.762 123.2 627.285 119.285 617.69 111.008L614.373 108.202C607.641 119.895 603 125.848 600.449 126.06Z" fill="#FFA500"/>
<path d="M125.299 225.882C183.074 208.474 356.039 170.65 585.702 158.614" stroke="#FFA500" stroke-width="16" stroke-linecap="round"/>
<path d="M219.263 238.674C261.401 226.144 387.529 198.842 554.939 189.874" stroke="#FFA500" stroke-width="16" stroke-linecap="round"/>
<path d="M155.065 276.931C209.98 260.364 374.387 224.376 592.693 212.96" stroke="#FFA500" stroke-width="16" stroke-linecap="round"/>
</svg>
